SplineFontDB: 3.2
FontName: IBMPlexMono-SmBld
FullName: IBM Plex Mono SmBld
FamilyName: IBM Plex Mono
Weight: SemiBold
Copyright: Copyright 2017 IBM Corp. All rights reserved.
Version: 001.001
ItalicAngle: 0
UnderlinePosition: -156
UnderlineWidth: 88
Ascent: 780
Descent: 220
InvalidEm: 0
sfntRevision: 0x00020106
LayerCount: 2
Layer: 0 0 "Back" 1
Layer: 1 0 "Fore" 0
XUID: [1021 882 1051320642 13788]
StyleMap: 0x0000
FSType: 0
OS2Version: 4
OS2_WeightWidthSlopeOnly: 1
OS2_UseTypoMetrics: 0
CreationTime: 1703161127
ModificationTime: 1716580429
PfmFamily: 17
TTFWeight: 600
TTFWidth: 5
LineGap: 0
VLineGap: 0
Panose: 2 11 7 9 5 2 3 0 2 3
OS2TypoAscent: 780
OS2TypoAOffset: 0
OS2TypoDescent: -220
OS2TypoDOffset: 0
OS2TypoLinegap: 300
OS2WinAscent: 1025
OS2WinAOffset: 0
OS2WinDescent: 275
OS2WinDOffset: 0
HheadAscent: 1025
HheadAOffset: 0
HheadDescent: -275
HheadDOffset: 0
OS2SubXSize: 650
OS2SubYSize: 600
OS2SubXOff: 0
OS2SubYOff: 75
OS2SupXSize: 650
OS2SupYSize: 600
OS2SupXOff: 0
OS2SupYOff: 350
OS2StrikeYSize: 88
OS2StrikeYPos: 309
OS2CapHeight: 698
OS2XHeight: 516
OS2FamilyClass: 2057
OS2Vendor: 'IBM '
OS2CodePages: 60000197.00000000
OS2UnicodeRanges: a000026f.4000383b.00000000.00000000
Lookup: 1 0 0 "'aalt' Access All Alternates lookup 0" { "'aalt' Access All Alternates lookup 0 subtable"  } ['aalt' ('DFLT' <'dflt' > 'cyrl' <'BGR ' 'dflt' > 'latn' <'MOL ' 'ROM ' 'dflt' > ) ]
Lookup: 3 0 0 "'aalt' Access All Alternates lookup 1" { "'aalt' Access All Alternates lookup 1 subtable"  } ['aalt' ('DFLT' <'dflt' > 'cyrl' <'BGR ' 'dflt' > 'latn' <'MOL ' 'ROM ' 'dflt' > ) ]
Lookup: 1 0 0 "'locl' Localized Forms in Latin lookup 2" { "'locl' Localized Forms in Latin lookup 2 subtable"  } ['locl' ('latn' <'MOL ' > ) ]
Lookup: 1 0 0 "'locl' Localized Forms in Latin lookup 3" { "'locl' Localized Forms in Latin lookup 3 subtable"  } ['locl' ('latn' <'ROM ' > ) ]

StartChar: .notdef
Encoding: 65536 -1 0
Width: 600
GlyphClass: 1
Flags: MW
HStem: 0 88<120 480 120 568> 692 88<120 480 120 120>
VStem: 32 88<88 88 88 692> 480 88<88 692 692 692>
LayerCount: 2
Fore
SplineSet
32 0 m 1
 32 780 l 1
 568 780 l 1
 568 0 l 1
 32 0 l 1
120 88 m 1
 480 88 l 1
 480 692 l 1
 120 692 l 1
 120 88 l 1
EndSplineSet
Validated: 1
EndChar

StartChar: a
Encoding: 97 97 1
Width: 600
GlyphClass: 2
Flags: MW
HStem: -12 88<242.5 266> 0 96<459 565 504 565 504 565> 225 74<285 288 288 376> 432 96<241.5 309.5>
VStem: 56 127<118.5 139 139 159 118.5 195> 376 128<156 225 225 225 299 333 333 339 96 365.5>
AnchorPoint: "Anchor-2" 289 516 basechar 0
AnchorPoint: "Anchor-1" 566 0 basechar 0
AnchorPoint: "Anchor-0" 289 0 basechar 0
LayerCount: 2
Fore
SplineSet
565 0 m 1x7c
 490 0 l 2x7c
 428 0 393 34 387 89 c 1
 382 89 l 1
 363 25 306 -12 226 -12 c 0xbc
 123 -12 56 46 56 143 c 0
 56 247 133 299 285 299 c 2
 376 299 l 1
 376 333 l 2
 376 398 345 432 274 432 c 0
 209 432 172 404 144 364 c 1
 71 426 l 1
 103 483 175 528 287 528 c 0
 422 528 504 463 504 339 c 2
 504 96 l 1
 565 96 l 1
 565 0 l 1x7c
269 76 m 0xbc
 330 76 376 107 376 156 c 2
 376 225 l 1
 288 225 l 2
 218 225 183 202 183 159 c 2
 183 139 l 2
 183 98 216 76 269 76 c 0xbc
EndSplineSet
Validated: 1
Substitution2: "'salt' Stylistic Alternatives lookup 23 subtable" a.alt01
Substitution2: "'ss01' Style Set 1 lookup 16 subtable" a.alt01
Substitution2: "'ordn' Ordinals lookup 6 subtable" ordfeminine
Substitution2: "'aalt' Access All Alternates lookup 0 subtable" a.alt01
EndChar

StartChar: a.alt01
Encoding: 65537 -1 2
Width: 600
GlyphClass: 2
Flags: MW
HStem: -12 102<259 281.5> 0 21G<403 403 403 531> 426 102<259 281.5 183 325> 496 20G<403 531 531 531>
VStem: 45 134<178 217 217 299 178 349> 403 128<0 91 91 91 177 339 339 368.5 425 516 0 516>
AnchorPoint: "Anchor-2" 290 516 basechar 0
AnchorPoint: "Anchor-1" 530 0 basechar 0
AnchorPoint: "Anchor-0" 290 0 basechar 0
LayerCount: 2
Fore
SplineSet
403 0 m 1x5c
 403 91 l 1
 396 91 l 1
 368 29 321 -12 242 -12 c 0
 124 -12 45 76 45 258 c 0
 45 440 124 528 242 528 c 0xac
 321 528 368 487 396 425 c 1
 403 425 l 1
 403 516 l 1
 531 516 l 1
 531 0 l 1
 403 0 l 1x5c
296 90 m 0xac
 354 90 403 118 403 177 c 2
 403 339 l 2
 403 398 354 426 296 426 c 0
 222 426 179 377 179 299 c 2
 179 217 l 2
 179 139 222 90 296 90 c 0xac
EndSplineSet
Validated: 1
EndChar

StartChar: b
Encoding: 98 98 3
Width: 600
GlyphClass: 2
Flags: MW
HStem: -12 102<318.5 341 275 417> 0 21G<69 69 69 197> 426 102<318.5 341> 720 20G<69 197 197 197>
VStem: 69 128<0 91 147.5 177 177 339 425 740> 421 134<217 299 299 338>
AnchorPoint: "Anchor-0" 312 0 basechar 0
LayerCount: 2
Fore
SplineSet
69 0 m 1x7c
 69 740 l 1
 197 740 l 1
 197 425 l 1
 204 425 l 1
 232 487 279 528 358 528 c 0
 476 528 555 440 555 258 c 0
 555 76 476 -12 358 -12 c 0xbc
 279 -12 232 29 204 91 c 1
 197 91 l 1
 197 0 l 1
 69 0 l 1x7c
304 90 m 0xbc
 378 90 421 139 421 217 c 2
 421 299 l 2
 421 377 378 426 304 426 c 0
 246 426 197 398 197 339 c 2
 197 177 l 2
 197 118 246 90 304 90 c 0xbc
EndSplineSet
Validated: 1
EndChar

StartChar: c
Encoding: 99 99 4
Width: 600
GlyphClass: 2
Flags: MW
HStem: -12 104<282 351.5 282 375.5> 424 104<281.5 348>
VStem: 67 134<178 215 215 301 178 341>
AnchorPoint: "Anchor-2" 314 516 basechar 0
AnchorPoint: "Anchor-0" 302 0 basechar 0
LayerCount: 2
Fore
SplineSet
320 -12 m 0
 162 -12 67 92 67 258 c 0
 67 424 163 528 319 528 c 0
 428 528 493 478 527 404 c 1
 428 350 l 1
 410 394 377 424 319 424 c 0
 244 424 201 376 201 301 c 2
 201 215 l 2
 201 141 243 92 321 92 c 0
 382 92 416 123 439 169 c 1
 535 112 l 1
 500 39 431 -12 320 -12 c 0
EndSplineSet
Validated: 1
EndChar

StartChar: d
Encoding: 100 100 5
Width: 600
GlyphClass: 2
Flags: MW
HStem: -12 102<259 281.5> 0 21G<403 403 403 531> 426 102<259 281.5 183 325> 720 20G<403 531 531 531>
VStem: 45 134<178 217 217 299 178 349> 403 128<0 91 91 91 177 339 339 368.5 425 740 0 740>
AnchorPoint: "Anchor-3" 585 740 basechar 0
AnchorPoint: "Anchor-0" 288 0 basechar 0
LayerCount: 2
Fore
SplineSet
403 0 m 1x7c
 403 91 l 1
 396 91 l 1
 368 29 321 -12 242 -12 c 0xbc
 124 -12 45 76 45 258 c 0
 45 440 124 528 242 528 c 0
 321 528 368 487 396 425 c 1
 403 425 l 1
 403 740 l 1
 531 740 l 1
 531 0 l 1
 403 0 l 1x7c
296 90 m 0xbc
 354 90 403 118 403 177 c 2
 403 339 l 2
 403 398 354 426 296 426 c 0
 222 426 179 377 179 299 c 2
 179 217 l 2
 179 139 222 90 296 90 c 0xbc
EndSplineSet
Validated: 1
EndChar

StartChar: e
Encoding: 101 101 6
Width: 600
GlyphClass: 2
Flags: MW
HStem: -12 101<274 347.5 274 366.5> 227 76<183 417 183 545 183 417> 434 94<267 338>
VStem: 55 128<177 214 214 227 177 303 303 310 177 340.5> 417 128<227 312 227 349>
AnchorPoint: "Anchor-2" 301 516 basechar 0
AnchorPoint: "Anchor-1" 404 0 basechar 0
AnchorPoint: "Anchor-0" 307 0 basechar 0
LayerCount: 2
Fore
SplineSet
312 -12 m 0
 147 -12 55 92 55 257 c 0
 55 424 151 528 302 528 c 0
 451 528 545 425 545 269 c 2
 545 227 l 1
 183 227 l 1
 183 214 l 2
 183 140 232 89 316 89 c 0
 379 89 425 117 456 160 c 1
 529 87 l 1
 492 33 421 -12 312 -12 c 0
303 434 m 0
 231 434 183 384 183 310 c 2
 183 303 l 1
 417 303 l 1
 417 312 l 2
 417 386 373 434 303 434 c 0
EndSplineSet
Validated: 1
EndChar

StartChar: f
Encoding: 102 102 7
Width: 600
GlyphClass: 2
Flags: MW
HStem: 0 101<75 233 75 233 361 529> 415 101<65 233 65 233 361 552> 639 101<378 552 378 552 361 552>
VStem: 233 128<101 415 101 415 516 600 600 639>
AnchorPoint: "Anchor-0" 300 0 basechar 0
LayerCount: 2
Fore
SplineSet
75 0 m 1
 75 101 l 1
 233 101 l 1
 233 415 l 1
 65 415 l 1
 65 516 l 1
 233 516 l 1
 233 600 l 2
 233 682 279 740 378 740 c 2
 552 740 l 1
 552 639 l 1
 361 639 l 1
 361 516 l 1
 552 516 l 1
 552 415 l 1
 361 415 l 1
 361 101 l 1
 529 101 l 1
 529 0 l 1
 75 0 l 1
EndSplineSet
Validated: 1
EndChar

StartChar: g
Encoding: 103 103 8
Width: 600
GlyphClass: 2
Flags: MW
HStem: -212 86<260 343 343 380.5 260 392.5> -13 105<259 369 191 376> 164 84<282 327.5 263 360.5> 444 84<263 312.5 229.5 327.5> 510 96<463 556 463 556 434 556>
VStem: 53 108<-81 -61.5> 78 123<308.5 333 333 359 308 403> 83 98<111 121.5> 390 123<333 359 359 379.5 288.5 384> 456 120<-83.5 -47.5>
AnchorPoint: "Anchor-2" 295 516 basechar 0
LayerCount: 2
Fore
SplineSet
576 -54 m 0xf140
 576 -162 487 -212 298 -212 c 0
 111 -212 53 -164 53 -90 c 0xf440
 53 -33 88 -5 148 10 c 1
 148 18 l 1
 108 31 83 54 83 96 c 0xf180
 83 147 121 169 176 182 c 1
 176 187 l 1
 115 216 78 271 78 346 c 0
 78 460 164 528 295 528 c 0xf280
 330 528 362 523 389 514 c 1
 389 536 l 2
 389 576 416 606 463 606 c 2
 556 606 l 1
 556 510 l 1
 434 510 l 1
 434 493 l 1
 484 463 513 413 513 346 c 0xec80
 513 231 426 164 295 164 c 0
 269 164 244 166 221 172 c 1
 202 165 181 151 181 127 c 0
 181 95 216 92 259 92 c 2
 376 92 l 2
 519 92 576 32 576 -54 c 0xf140
456 -63 m 0
 456 -32 435 -13 369 -13 c 2
 191 -13 l 1
 171 -24 161 -41 161 -63 c 0
 161 -99 189 -126 260 -126 c 2
 343 -126 l 2
 418 -126 456 -104 456 -63 c 0
295 248 m 0
 360 248 390 283 390 333 c 2
 390 359 l 2
 390 409 360 444 295 444 c 0
 231 444 201 409 201 359 c 2
 201 333 l 2xf280
 201 283 231 248 295 248 c 0
EndSplineSet
Validated: 1
Substitution2: "'salt' Stylistic Alternatives lookup 23 subtable" g.alt01
Substitution2: "'ss02' Style Set 2 lookup 17 subtable" g.alt01
AlternateSubs2: "'aalt' Access All Alternates lookup 1 subtable" g.alt01 g.alt02
EndChar

StartChar: g.alt01
Encoding: 65538 -1 9
Width: 600
GlyphClass: 2
Flags: MW
HStem: -212 102<250 319.5 250 361.5> 10 103<259 281.5> 426 102<259 281.5 183 325> 496 20G<403 531 531 531>
VStem: 45 134<201 240 240 299 201 354> 403 128<16 27 27 114 114 114 200 339 339 368.5 425 516>
AnchorPoint: "Anchor-2" 290 516 basechar 0
LayerCount: 2
Fore
SplineSet
531 516 m 1xdc
 531 27 l 2
 531 -123 444 -212 279 -212 c 0
 182 -212 118 -181 77 -138 c 1
 146 -56 l 1
 180 -91 223 -110 277 -110 c 0
 362 -110 403 -64 403 16 c 2
 403 114 l 1
 396 114 l 1
 368 52 321 10 242 10 c 0
 124 10 45 100 45 269 c 0
 45 439 124 528 242 528 c 0xec
 321 528 368 487 396 425 c 1
 403 425 l 1
 403 516 l 1
 531 516 l 1xdc
296 113 m 0xdc
 354 113 403 141 403 200 c 2
 403 339 l 2
 403 398 354 426 296 426 c 0xec
 222 426 179 378 179 299 c 2
 179 240 l 2
 179 162 222 113 296 113 c 0xdc
EndSplineSet
Validated: 1
EndChar

StartChar: g.alt02
Encoding: 65539 -1 10
Width: 600
GlyphClass: 2
Flags: MW
HStem: -212 86<260 343 343 380.5 260 392.5> -13 105<259 369 191 376> 164 84<282 327.5 263 360.5> 428 88<487 574 487 487> 444 84<263 312 230 327.5>
VStem: 53 108<-81 -61.5> 78 123<308.5 333 333 359 308 403> 83 98<111 121.5> 390 123<333 359 359 361.5 288.5 384> 456 120<-83.5 -47.5>
AnchorPoint: "Anchor-2" 297 516 basechar 0
LayerCount: 2
Fore
SplineSet
298 -212 m 0xf140
 111 -212 53 -164 53 -90 c 0xf480
 53 -33 88 -5 148 10 c 1
 148 18 l 1
 108 31 83 54 83 96 c 0xf180
 83 147 121 169 176 182 c 1
 176 187 l 1
 115 217 78 271 78 346 c 0
 78 460 164 528 296 528 c 0xea80
 328 528 357 524 383 516 c 1
 574 516 l 1
 574 428 l 1
 487 428 l 1
 506 405 513 378 513 345 c 0xf480
 513 232 426 164 295 164 c 0
 269 164 244 166 221 172 c 1
 202 165 181 151 181 127 c 0
 181 95 216 92 259 92 c 2
 376 92 l 2
 519 92 576 32 576 -54 c 0
 576 -162 487 -212 298 -212 c 0xf140
295 248 m 0
 360 248 390 283 390 333 c 2
 390 359 l 2
 390 409 360 444 295 444 c 0
 231 444 201 409 201 359 c 2
 201 333 l 2xea80
 201 283 231 248 295 248 c 0
456 -63 m 0xf440
 456 -32 435 -13 369 -13 c 2
 191 -13 l 1
 171 -24 161 -41 161 -63 c 0
 161 -99 189 -126 260 -126 c 2
 343 -126 l 2
 418 -126 456 -104 456 -63 c 0xf440
EndSplineSet
Validated: 1
EndChar

StartChar: h
Encoding: 104 104 11
Width: 600
GlyphClass: 2
Flags: MW
HStem: 0 21G<75 75 75 203 402 402 402 530> 427 101<317 337> 720 20G<75 203 203 203>
VStem: 75 128<0 345 425 740> 402 128<0 315 315 333 0 352>
AnchorPoint: "Anchor-2" 139 698 basechar 0
AnchorPoint: "Anchor-0" 302 0 basechar 0
LayerCount: 2
Fore
SplineSet
75 0 m 1
 75 740 l 1
 203 740 l 1
 203 425 l 1
 208 425 l 1
 231 481 275 528 359 528 c 0
 460 528 530 458 530 333 c 2
 530 0 l 1
 402 0 l 1
 402 315 l 2
 402 389 369 427 305 427 c 0
 253 427 203 400 203 345 c 2
 203 0 l 1
 75 0 l 1
EndSplineSet
Validated: 1
EndChar

StartChar: i
Encoding: 105 105 12
Width: 600
GlyphClass: 2
Flags: MW
HStem: 0 101<98 268 98 268 396 554> 415 101<98 268 98 396> 596 154<302 362>
VStem: 250 164<661 685 643 703> 268 128<101 415 415 415>
AnchorPoint: "Anchor-1" 554 0 basechar 0
AnchorPoint: "Anchor-0" 332 0 basechar 0
LayerCount: 2
Fore
SplineSet
332 596 m 0xf0
 272 596 250 625 250 661 c 2
 250 685 l 2
 250 721 272 750 332 750 c 0
 392 750 414 721 414 685 c 2
 414 661 l 2
 414 625 392 596 332 596 c 0xf0
98 0 m 1
 98 101 l 1
 268 101 l 1
 268 415 l 1
 98 415 l 1
 98 516 l 1
 396 516 l 1
 396 101 l 1xe8
 554 101 l 1
 554 0 l 1
 98 0 l 1
EndSplineSet
Validated: 1
Substitution2: "Single Substitution lookup 26 subtable" dotlessi
EndChar

StartChar: j
Encoding: 106 106 13
Width: 600
GlyphClass: 1
Flags: MW
HStem: -200 101<95 308 95 292> 415 101<91 308 91 436> 596 154<343 403>
VStem: 291 164<661 685 643 703> 308 128<-99 -60 -60 415 415 415>
LayerCount: 2
Fore
SplineSet
95 -200 m 1xe8
 95 -99 l 1
 308 -99 l 1
 308 415 l 1
 91 415 l 1
 91 516 l 1
 436 516 l 1
 436 -60 l 2
 436 -142 390 -200 292 -200 c 2
 95 -200 l 1xe8
373 596 m 0
 313 596 291 625 291 661 c 2
 291 685 l 2
 291 721 313 750 373 750 c 0
 433 750 455 721 455 685 c 2
 455 661 l 2xf0
 455 625 433 596 373 596 c 0
EndSplineSet
Validated: 1
Substitution2: "Single Substitution lookup 26 subtable" uni0237
EndChar

StartChar: k
Encoding: 107 107 14
Width: 600
GlyphClass: 2
Flags: MW
HStem: 0 21G<77 77 77 205 431 431 431 584> 496 20G<413 562 562 562> 720 20G<77 205 205 205>
VStem: 77 128<0 182 306 740>
AnchorPoint: "Anchor-0" 312 0 basechar 0
LayerCount: 2
Fore
SplineSet
77 0 m 1
 77 740 l 1
 205 740 l 1
 205 306 l 1
 211 306 l 1
 286 388 l 1
 413 516 l 1
 562 516 l 1
 357 313 l 1
 584 0 l 1
 431 0 l 1
 266 240 l 1
 205 182 l 1
 205 0 l 1
 77 0 l 1
EndSplineSet
Validated: 1
EndChar

StartChar: l
Encoding: 108 108 15
Width: 600
GlyphClass: 2
Flags: MW
HStem: 0 101<72 236 72 236 364 529> 639 101<72 236 72 364>
VStem: 236 128<101 639 639 639>
AnchorPoint: "Anchor-3" 434 740 basechar 0
AnchorPoint: "Anchor-2" 300 698 basechar 0
AnchorPoint: "Anchor-0" 300 0 basechar 0
LayerCount: 2
Fore
SplineSet
72 0 m 1
 72 101 l 1
 236 101 l 1
 236 639 l 1
 72 639 l 1
 72 740 l 1
 364 740 l 1
 364 101 l 1
 529 101 l 1
 529 0 l 1
 72 0 l 1
EndSplineSet
Validated: 1
EndChar

StartChar: m
Encoding: 109 109 16
Width: 600
GlyphClass: 2
Flags: MW
HStem: 0 21G<37 143 37 37 247 247 247 353 457 457 457 562> 432 96<182 273> 496 20G<37 143 143 143>
VStem: 37 106<0 371 445 516> 247 106<0 351 351 371 0 381> 457 105<0 351 351 366 0 381>
AnchorPoint: "Anchor-2" 300 516 basechar 0
AnchorPoint: "Anchor-0" 300 0 basechar 0
LayerCount: 2
Fore
SplineSet
143 0 m 1xdc
 37 0 l 1
 37 516 l 1
 143 516 l 1xbc
 143 445 l 1
 149 445 l 1
 165 491 192 528 247 528 c 0
 299 528 330 496 339 442 c 1
 344 442 l 1
 362 489 392 528 455 528 c 0
 530 528 562 472 562 366 c 2
 562 0 l 1
 457 0 l 1
 457 351 l 2
 457 411 440 432 407 432 c 0
 376 432 353 412 353 371 c 2
 353 0 l 1
 247 0 l 1
 247 351 l 2
 247 411 231 432 198 432 c 0
 166 432 143 412 143 371 c 2
 143 0 l 1xdc
EndSplineSet
Validated: 1
EndChar

StartChar: n
Encoding: 110 110 17
Width: 600
GlyphClass: 2
Flags: MW
HStem: 0 21G<75 203 75 75 402 402 402 530> 427 101<317 337> 496 20G<75 203 203 203>
VStem: 75 128<0 345 425 516> 402 128<0 315 315 333 0 352>
AnchorPoint: "Anchor-2" 302 516 basechar 0
AnchorPoint: "Anchor-0" 302 0 basechar 0
LayerCount: 2
Fore
SplineSet
203 0 m 1xd8
 75 0 l 1
 75 516 l 1
 203 516 l 1xb8
 203 425 l 1
 208 425 l 1
 231 481 275 528 359 528 c 0
 460 528 530 458 530 333 c 2
 530 0 l 1
 402 0 l 1
 402 315 l 2
 402 389 369 427 305 427 c 0
 253 427 203 400 203 345 c 2
 203 0 l 1xd8
EndSplineSet
Validated: 1
EndChar

StartChar: o
Encoding: 111 111 18
Width: 600
GlyphClass: 2
Flags: MW
HStem: -12 98<263.5 336.5 263.5 378> 430 98<263.5 336.5>
VStem: 48 133<175 218 218 298 175 341> 419 133<218 298 298 341>
AnchorPoint: "Anchor-2" 300 516 basechar 0
AnchorPoint: "Anchor-0" 300 0 basechar 0
LayerCount: 2
Fore
SplineSet
300 -12 m 0
 144 -12 48 92 48 258 c 0
 48 424 144 528 300 528 c 0
 456 528 552 424 552 258 c 0
 552 92 456 -12 300 -12 c 0
300 86 m 0
 373 86 419 132 419 218 c 2
 419 298 l 2
 419 384 373 430 300 430 c 0
 227 430 181 384 181 298 c 2
 181 218 l 2
 181 132 227 86 300 86 c 0
EndSplineSet
Validated: 1
Substitution2: "'ordn' Ordinals lookup 6 subtable" ordmasculine
EndChar

StartChar: p
Encoding: 112 112 19
Width: 600
GlyphClass: 2
Flags: MW
HStem: -200 21G<69 69 69 197> -12 102<318.5 341 275 417> 426 102<318.5 341> 496 20G<69 197 197 197>
VStem: 69 128<-200 91 147.5 177 177 339 425 516> 421 134<217 299 299 338>
AnchorPoint: "Anchor-2" 312 516 basechar 0
LayerCount: 2
Fore
SplineSet
69 -200 m 1xec
 69 516 l 1
 197 516 l 1xdc
 197 425 l 1
 204 425 l 1
 232 487 279 528 358 528 c 0
 476 528 555 440 555 258 c 0
 555 76 476 -12 358 -12 c 0
 279 -12 232 29 204 91 c 1
 197 91 l 1
 197 -200 l 1
 69 -200 l 1xec
304 90 m 0
 378 90 421 139 421 217 c 2
 421 299 l 2
 421 377 378 426 304 426 c 0xec
 246 426 197 398 197 339 c 2
 197 177 l 2
 197 118 246 90 304 90 c 0
EndSplineSet
Validated: 1
EndChar

StartChar: q
Encoding: 113 113 20
Width: 600
GlyphClass: 2
Flags: MW
HStem: -200 21G<403 403 403 531> -12 102<259 281.5> 426 102<259 281.5 183 325> 496 20G<403 531 531 531>
VStem: 45 134<178 217 217 299 178 349> 403 128<-200 91 91 91 177 339 339 368.5 425 516 -200 516>
AnchorPoint: "Anchor-2" 288 516 basechar 0
LayerCount: 2
Fore
SplineSet
403 -200 m 1xdc
 403 91 l 1
 396 91 l 1
 368 29 321 -12 242 -12 c 0
 124 -12 45 76 45 258 c 0
 45 440 124 528 242 528 c 0xec
 321 528 368 487 396 425 c 1
 403 425 l 1
 403 516 l 1
 531 516 l 1
 531 -200 l 1
 403 -200 l 1xdc
296 90 m 0
 354 90 403 118 403 177 c 2
 403 339 l 2
 403 398 354 426 296 426 c 0
 222 426 179 377 179 299 c 2
 179 217 l 2
 179 139 222 90 296 90 c 0
EndSplineSet
Validated: 1
EndChar

StartChar: r
Encoding: 114 114 21
Width: 600
GlyphClass: 2
Flags: MW
HStem: 0 101<75 203 75 203 331 469> 396 120<75 455 505 561> 415 101<75 203 75 331>
VStem: 203 128<101 275 375 415 415 415>
AnchorPoint: "Anchor-2" 333 516 basechar 0
AnchorPoint: "Anchor-0" 267 0 basechar 0
LayerCount: 2
Fore
SplineSet
75 0 m 1xd0
 75 101 l 1
 203 101 l 1
 203 415 l 1
 75 415 l 1xb0
 75 516 l 1
 331 516 l 1
 331 375 l 1
 339 375 l 1
 358 448 402 516 505 516 c 2
 561 516 l 1
 561 396 l 1
 455 396 l 2
 374 396 331 341 331 275 c 2
 331 101 l 1
 469 101 l 1
 469 0 l 1
 75 0 l 1xd0
EndSplineSet
Validated: 1
EndChar

StartChar: s
Encoding: 115 115 22
Width: 600
GlyphClass: 2
Flags: MW
HStem: -12 93<262.5 331 262.5 371> 435 93<274 343>
VStem: 83 125<355.5 394 355.5 414.5> 405 126<124 164.5>
AnchorPoint: "Anchor-2" 303 516 basechar 0
AnchorPoint: "Anchor-0" 293 0 basechar 0
LayerCount: 2
Fore
SplineSet
298 -12 m 0
 185 -12 100 26 54 86 c 1
 129 154 l 1
 171 108 226 81 299 81 c 0
 363 81 405 102 405 146 c 0
 405 183 376 193 334 199 c 2
 251 212 l 2
 165 225 83 259 83 361 c 0
 83 468 170 528 310 528 c 0
 409 528 479 498 524 448 c 1
 457 374 l 1
 428 406 380 435 306 435 c 0
 242 435 208 414 208 374 c 0
 208 337 238 326 280 320 c 2
 362 307 l 2
 449 294 531 261 531 159 c 0
 531 53 444 -12 298 -12 c 0
EndSplineSet
Validated: 1
EndChar

StartChar: t
Encoding: 116 116 23
Width: 600
GlyphClass: 2
Flags: MW
HStem: 0 101<319 335 335 529> 415 101<41 143 143 163.5 41 191 41 143 319 529> 678 20G<200 319 319 319>
VStem: 191 128<140 415 101 415>
AnchorPoint: "Anchor-3" 393 774 basechar 0
AnchorPoint: "Anchor-0" 365 0 basechar 0
LayerCount: 2
Fore
SplineSet
529 0 m 1
 335 0 l 2
 237 0 191 58 191 140 c 2
 191 415 l 1
 41 415 l 1
 41 516 l 1
 143 516 l 2
 184 516 200 530 200 573 c 2
 200 698 l 1
 319 698 l 1
 319 516 l 1
 529 516 l 1
 529 415 l 1
 319 415 l 1
 319 101 l 1
 529 101 l 1
 529 0 l 1
EndSplineSet
Validated: 1
EndChar

StartChar: u
Encoding: 117 117 24
Width: 600
GlyphClass: 2
Flags: MW
HStem: -12 101<263 283> 0 21G<397 397 397 525> 496 20G<70 198 198 198 397 525 525 525>
VStem: 70 128<183 201 201 516> 397 128<0 91 91 91 171 516 0 516>
AnchorPoint: "Anchor-2" 298 516 basechar 0
AnchorPoint: "Anchor-1" 525 0 basechar 0
AnchorPoint: "Anchor-0" 298 0 basechar 0
LayerCount: 2
Fore
SplineSet
397 0 m 1x78
 397 91 l 1
 392 91 l 1
 369 35 325 -12 241 -12 c 0
 140 -12 70 58 70 183 c 2
 70 516 l 1
 198 516 l 1
 198 201 l 2
 198 127 231 89 295 89 c 0xb8
 347 89 397 116 397 171 c 2
 397 516 l 1
 525 516 l 1
 525 0 l 1
 397 0 l 1x78
EndSplineSet
Validated: 1
EndChar

StartChar: v
Encoding: 118 118 25
Width: 600
GlyphClass: 2
Flags: MW
HStem: 0 107<299 306 299 377 223 306> 496 20G<38 172 172 172 433 562 562 562>
VStem: 38 524<516 516>
AnchorPoint: "Anchor-2" 300 516 basechar 0
AnchorPoint: "Anchor-0" 300 0 basechar 0
LayerCount: 2
Fore
SplineSet
377 0 m 5
 223 0 l 5
 38 516 l 5
 172 516 l 5
 241 297 l 5
 299 107 l 5
 306 107 l 5
 364 297 l 5
 433 516 l 5
 562 516 l 5
 377 0 l 5
EndSplineSet
Validated: 1
EndChar

StartChar: w
Encoding: 119 119 26
Width: 600
GlyphClass: 2
Flags: MW
HStem: 0 90<80 174 165 174 165 235 430 439> 379 137<296 305 296 296>
VStem: 14 572<516 516>
AnchorPoint: "Anchor-2" 300 516 basechar 0
AnchorPoint: "Anchor-0" 300 0 basechar 0
LayerCount: 2
Fore
SplineSet
80 0 m 1
 14 516 l 1
 121 516 l 1
 165 90 l 1
 174 90 l 1
 244 516 l 1
 361 516 l 1
 430 90 l 1
 439 90 l 1
 484 516 l 1
 586 516 l 1
 520 0 l 1
 365 0 l 1
 305 379 l 1
 296 379 l 1
 235 0 l 1
 80 0 l 1
EndSplineSet
Validated: 1
EndChar

StartChar: x
Encoding: 120 120 27
Width: 600
GlyphClass: 2
Flags: MW
HStem: 0 21G<34 171 34 34 418 418 418 566> 496 20G<45 192 192 192 419 555 555 555>
VStem: 34 532<0 0>
AnchorPoint: "Anchor-2" 300 516 basechar 0
AnchorPoint: "Anchor-0" 300 0 basechar 0
LayerCount: 2
Fore
SplineSet
171 0 m 1
 34 0 l 1
 227 262 l 1
 45 516 l 1
 192 516 l 1
 254 425 l 1
 302 353 l 1
 309 353 l 1
 357 425 l 1
 419 516 l 1
 555 516 l 1
 373 268 l 1
 566 0 l 1
 418 0 l 1
 347 104 l 1
 298 177 l 1
 291 177 l 1
 242 104 l 1
 171 0 l 1
EndSplineSet
Validated: 1
EndChar

StartChar: y
Encoding: 121 121 28
Width: 600
GlyphClass: 2
Flags: MW
HStem: -200 101<75 169 75 198> 496 20G<29 165 165 165 441 571 571 571>
VStem: 29 542<516 516>
AnchorPoint: "Anchor-2" 302 516 basechar 0
AnchorPoint: "Anchor-0" 476 0 basechar 0
LayerCount: 2
Fore
SplineSet
361 300 m 1
 441 516 l 1
 571 516 l 1
 324 -92 l 2
 296 -162 254 -200 169 -200 c 2
 75 -200 l 1
 75 -99 l 1
 198 -99 l 1
 237 5 l 1
 29 516 l 1
 165 516 l 1
 244 300 l 1
 299 136 l 1
 306 136 l 1
 361 300 l 1
EndSplineSet
Validated: 1
EndChar

StartChar: z
Encoding: 122 122 29
Width: 600
GlyphClass: 2
Flags: MW
HStem: 0 101<218 528 218 528> 415 101<82 372 82 518>
VStem: 72 456<0 101 0 109 0 109>
AnchorPoint: "Anchor-2" 300 516 basechar 0
AnchorPoint: "Anchor-0" 300 0 basechar 0
LayerCount: 2
Fore
SplineSet
528 0 m 1
 72 0 l 1
 72 109 l 1
 372 415 l 1
 82 415 l 1
 82 516 l 1
 518 516 l 1
 518 407 l 1
 218 101 l 1
 528 101 l 1
 528 0 l 1
EndSplineSet
Validated: 1
EndChar

StartChar: A
Encoding: 65 65 30
Width: 600
GlyphClass: 2
Flags: MW
HStem: 0 21G<13 145 13 13 449 588 449 449> 177 107<216 378 216 400 193 378> 569 129<293 301 293 293>
VStem: 13 575<0 0>
AnchorPoint: "Anchor-2" 300 698 basechar 0
AnchorPoint: "Anchor-1" 588 0 basechar 0
AnchorPoint: "Anchor-0" 300 0 basechar 0
LayerCount: 2
Fore
SplineSet
588 0 m 1
 449 0 l 1
 400 177 l 1
 193 177 l 1
 145 0 l 1
 13 0 l 1
 209 698 l 1
 391 698 l 1
 588 0 l 1
378 284 m 1
 301 569 l 1
 293 569 l 1
 216 284 l 1
 378 284 l 1
EndSplineSet
Validated: 1
EndChar

StartChar: B
Encoding: 66 66 31
Width: 600
GlyphClass: 2
Flags: MW
HStem: 0 95<208 308 308 344.5 208 348> 309 91<208 291 291 308 208 291> 603 95<208 291 208 208>
VStem: 80 128<95 95 95 309 400 603> 395 134<485 518 518 549> 418 134<186 219 219 242.5 137 251.5>
AnchorPoint: "Anchor-2" 295 698 basechar 0
AnchorPoint: "Anchor-0" 304 0 basechar 0
LayerCount: 2
Fore
SplineSet
80 0 m 1xf4
 80 698 l 1
 323 698 l 2
 454 698 529 627 529 514 c 0xf8
 529 434 487 387 416 366 c 1
 416 361 l 1
 500 341 552 290 552 195 c 0
 552 79 473 0 348 0 c 2
 80 0 l 1xf4
208 95 m 1
 308 95 l 2
 381 95 418 120 418 186 c 2
 418 219 l 2xf4
 418 284 381 309 308 309 c 2
 208 309 l 1
 208 95 l 1
208 400 m 1
 291 400 l 2
 361 400 395 423 395 485 c 2
 395 518 l 2xf8
 395 580 361 603 291 603 c 2
 208 603 l 1
 208 400 l 1
EndSplineSet
Validated: 1
EndChar

StartChar: C
Encoding: 67 67 32
Width: 600
GlyphClass: 2
Flags: MW
HStem: -12 107<271 353.5 271 387.5> 603 107<271 353.5>
VStem: 50 139<234 289 289 409 229 464>
AnchorPoint: "Anchor-2" 317 698 basechar 0
AnchorPoint: "Anchor-0" 304 0 basechar 0
LayerCount: 2
Fore
SplineSet
318 -12 m 0
 136 -12 50 119 50 349 c 0
 50 579 136 710 318 710 c 0
 457 710 526 632 556 523 c 1
 436 489 l 1
 418 554 391 603 316 603 c 0
 226 603 189 529 189 409 c 2
 189 289 l 2
 189 169 226 95 316 95 c 0
 391 95 418 144 436 209 c 1
 556 175 l 1
 526 66 457 -12 318 -12 c 0
EndSplineSet
Validated: 1
EndChar

StartChar: D
Encoding: 68 68 33
Width: 600
GlyphClass: 2
Flags: MW
HStem: 0 105<202 281 281 290> 593 105<202 281 202 202>
VStem: 73 129<105 105 105 593> 422 137<289 410 410 462 236 469>
AnchorPoint: "Anchor-2" 278 698 basechar 0
AnchorPoint: "Anchor-0" 278 0 basechar 0
LayerCount: 2
Fore
SplineSet
73 0 m 1
 73 698 l 1
 290 698 l 2
 471 698 559 575 559 349 c 0
 559 123 471 0 290 0 c 2
 73 0 l 1
202 105 m 1
 281 105 l 2
 377 105 422 170 422 289 c 2
 422 410 l 2
 422 528 377 593 281 593 c 2
 202 593 l 1
 202 105 l 1
EndSplineSet
Validated: 1
EndChar

StartChar: E
Encoding: 69 69 34
Width: 600
GlyphClass: 2
Flags: MW
HStem: 0 108<214 524 214 524> 300 108<214 513 214 513> 590 108<214 524 214 214>
VStem: 83 131<108 300 408 590>
AnchorPoint: "Anchor-2" 304 698 basechar 0
AnchorPoint: "Anchor-1" 524 0 basechar 0
AnchorPoint: "Anchor-0" 304 0 basechar 0
LayerCount: 2
Fore
SplineSet
524 0 m 1
 83 0 l 1
 83 698 l 1
 524 698 l 1
 524 590 l 1
 214 590 l 1
 214 408 l 1
 513 408 l 1
 513 300 l 1
 214 300 l 1
 214 108 l 1
 524 108 l 1
 524 0 l 1
EndSplineSet
Validated: 1
EndChar

StartChar: F
Encoding: 70 70 35
Width: 600
GlyphClass: 2
Flags: MW
HStem: 0 21G<83 214 83 83> 300 108<214 507 214 507> 590 108<214 539 214 214>
VStem: 83 131<0 300 408 590>
AnchorPoint: "Anchor-2" 311 698 basechar 0
AnchorPoint: "Anchor-0" 145 0 basechar 0
LayerCount: 2
Fore
SplineSet
214 0 m 1
 83 0 l 1
 83 698 l 1
 539 698 l 1
 539 590 l 1
 214 590 l 1
 214 408 l 1
 507 408 l 1
 507 300 l 1
 214 300 l 1
 214 0 l 1
EndSplineSet
Validated: 1
EndChar

StartChar: G
Encoding: 71 71 36
Width: 600
GlyphClass: 2
Flags: MW
HStem: -12 106<259.5 300.5> 0 21G<421 421 421 538> 270 95<294 421 294 538> 603 107<257.5 338>
VStem: 41 139<236.5 297 297 409 236.5 462.5> 421 117<0 97 97 97 213 270 270 270>
AnchorPoint: "Anchor-2" 302 698 basechar 0
AnchorPoint: "Anchor-0" 299 0 basechar 0
LayerCount: 2
Fore
SplineSet
421 0 m 1x7c
 421 97 l 1
 413 97 l 1
 390 40 345 -12 256 -12 c 0
 115 -12 41 119 41 344 c 0
 41 581 125 710 302 710 c 0
 442 710 510 630 538 523 c 1
 418 489 l 1
 400 549 375 603 301 603 c 0
 214 603 180 529 180 409 c 2
 180 297 l 2
 180 176 212 94 307 94 c 0xbc
 381 94 421 144 421 213 c 2
 421 270 l 1
 294 270 l 1
 294 365 l 1
 538 365 l 1
 538 0 l 1
 421 0 l 1x7c
EndSplineSet
Validated: 1
EndChar

StartChar: H
Encoding: 72 72 37
Width: 600
GlyphClass: 2
Flags: MW
HStem: 0 21G<67 198 67 67 402 533 402 402> 300 108<198 402 198 402> 678 20G<67 198 198 198 402 533 533 533>
VStem: 67 131<0 300 0 408 408 698> 402 131<0 300 300 300 408 698 0 698>
AnchorPoint: "Anchor-2" 300 698 basechar 0
AnchorPoint: "Anchor-0" 300 0 basechar 0
LayerCount: 2
Fore
SplineSet
402 0 m 1
 402 300 l 1
 198 300 l 1
 198 0 l 1
 67 0 l 1
 67 698 l 1
 198 698 l 1
 198 408 l 1
 402 408 l 1
 402 698 l 1
 533 698 l 1
 533 0 l 1
 402 0 l 1
EndSplineSet
Validated: 1
EndChar

StartChar: I
Encoding: 73 73 38
Width: 600
GlyphClass: 2
Flags: MW
HStem: 0 98<78 235 365 522 78 235> 600 98<78 235 78 522 365 365 365 522>
VStem: 235 130<98 600 98 600>
AnchorPoint: "Anchor-2" 300 698 basechar 0
AnchorPoint: "Anchor-1" 522 0 basechar 0
AnchorPoint: "Anchor-0" 300 0 basechar 0
LayerCount: 2
Fore
SplineSet
522 0 m 1
 78 0 l 1
 78 98 l 1
 235 98 l 1
 235 600 l 1
 78 600 l 1
 78 698 l 1
 522 698 l 1
 522 600 l 1
 365 600 l 1
 365 98 l 1
 522 98 l 1
 522 0 l 1
EndSplineSet
Validated: 1
EndChar

StartChar: J
Encoding: 74 74 39
Width: 600
GlyphClass: 2
Flags: MW
HStem: -12 108<244.5 306.5 244.5 345> 590 108<134 370 134 502>
VStem: 370 132<206 590 590 590>
AnchorPoint: "Anchor-2" 319 698 basechar 0
AnchorPoint: "Anchor-0" 276 0 basechar 0
LayerCount: 2
Fore
SplineSet
134 698 m 1
 502 698 l 1
 502 191 l 2
 502 67 413 -12 277 -12 c 0
 145 -12 70 60 49 171 c 1
 172 197 l 1
 184 139 212 96 277 96 c 0
 336 96 370 131 370 206 c 2
 370 590 l 1
 134 590 l 1
 134 698 l 1
EndSplineSet
Validated: 1
EndChar

StartChar: K
Encoding: 75 75 40
Width: 600
GlyphClass: 2
Flags: MW
HStem: 0 21G<73 204 73 73 448 596 448 448> 678 20G<73 204 204 204 438 586 586 586>
VStem: 73 131<0 210 384 698>
AnchorPoint: "Anchor-2" 316 698 basechar 0
AnchorPoint: "Anchor-0" 324 0 basechar 0
LayerCount: 2
Fore
SplineSet
448 0 m 1
 277 306 l 1
 204 210 l 1
 204 0 l 1
 73 0 l 1
 73 698 l 1
 204 698 l 1
 204 384 l 1
 210 384 l 1
 291 500 l 1
 438 698 l 1
 586 698 l 1
 367 404 l 1
 596 0 l 1
 448 0 l 1
EndSplineSet
Validated: 1
EndChar

StartChar: L
Encoding: 76 76 41
Width: 600
GlyphClass: 2
Flags: MW
HStem: 0 108<231 540 231 540> 678 20G<100 231 231 231>
VStem: 100 131<108 698 108 698 108 698>
AnchorPoint: "Anchor-3" 311 740 basechar 0
AnchorPoint: "Anchor-2" 166 698 basechar 0
AnchorPoint: "Anchor-0" 320 0 basechar 0
LayerCount: 2
Fore
SplineSet
540 0 m 1
 100 0 l 1
 100 698 l 1
 231 698 l 1
 231 108 l 1
 540 108 l 1
 540 0 l 1
EndSplineSet
Validated: 1
EndChar

StartChar: M
Encoding: 77 77 42
Width: 600
GlyphClass: 2
Flags: MW
HStem: 0 21G<48 162 48 48 438 552 438 438> 166 275<300 308> 525 173<156 165 156 156 435 444 435 435>
VStem: 48 114<0 323 0 698> 438 114<0 323 323 323>
AnchorPoint: "Anchor-2" 300 698 basechar 0
AnchorPoint: "Anchor-0" 300 0 basechar 0
LayerCount: 2
Fore
SplineSet
438 0 m 1
 438 323 l 1
 444 525 l 1
 435 525 l 1
 300 166 l 1
 165 525 l 1
 156 525 l 1
 162 323 l 1
 162 0 l 1
 48 0 l 1
 48 698 l 1
 204 698 l 1
 301 441 l 1
 308 441 l 1
 406 698 l 1
 552 698 l 1
 552 0 l 1
 438 0 l 1
EndSplineSet
Validated: 1
EndChar

StartChar: N
Encoding: 78 78 43
Width: 600
GlyphClass: 2
Flags: MW
HStem: 0 197<411 421 411 533 372 421> 501 197<179 189 179 179>
VStem: 67 112<0 501 0 698> 421 112<197 698 0 698>
AnchorPoint: "Anchor-2" 300 698 basechar 0
AnchorPoint: "Anchor-0" 300 0 basechar 0
LayerCount: 2
Fore
SplineSet
372 0 m 1
 189 501 l 1
 179 501 l 1
 179 0 l 1
 67 0 l 1
 67 698 l 1
 228 698 l 1
 411 197 l 1
 421 197 l 1
 421 698 l 1
 533 698 l 1
 533 0 l 1
 372 0 l 1
EndSplineSet
Validated: 1
EndChar

StartChar: O
Encoding: 79 79 44
Width: 600
GlyphClass: 2
Flags: MW
HStem: -12 107<253.5 346.5 253.5 391> 603 107<253.5 346.5>
VStem: 36 139<235 289 289 409 229 463> 425 139<290 409 409 463 235 469>
AnchorPoint: "Anchor-2" 300 698 basechar 0
AnchorPoint: "Anchor-0" 300 0 basechar 0
LayerCount: 2
Fore
SplineSet
300 -12 m 0
 118 -12 36 121 36 349 c 0
 36 577 118 710 300 710 c 0
 482 710 564 577 564 349 c 0
 564 121 482 -12 300 -12 c 0
300 95 m 0
 393 95 425 169 425 290 c 2
 425 409 l 2
 425 529 393 603 300 603 c 0
 207 603 175 529 175 409 c 2
 175 289 l 2
 175 169 207 95 300 95 c 0
EndSplineSet
Validated: 1
EndChar

StartChar: P
Encoding: 80 80 45
Width: 600
GlyphClass: 2
Flags: MW
HStem: 0 21G<80 211 80 80> 266 107<211 318 318 345 211 318> 591 107<211 211 211 318>
VStem: 80 131<0 266 373 591> 417 138<463 501 501 532>
AnchorPoint: "Anchor-2" 300 698 basechar 0
AnchorPoint: "Anchor-0" 145 0 basechar 0
LayerCount: 2
Fore
SplineSet
211 0 m 1
 80 0 l 1
 80 698 l 1
 345 698 l 2
 480 698 555 615 555 482 c 0
 555 350 480 266 345 266 c 2
 211 266 l 1
 211 0 l 1
211 591 m 1
 211 373 l 1
 318 373 l 2
 388 373 417 401 417 463 c 2
 417 501 l 2
 417 563 388 591 318 591 c 2
 211 591 l 1
EndSplineSet
Validated: 1
EndChar

StartChar: Q
Encoding: 81 81 46
Width: 600
GlyphClass: 2
Flags: MW
HStem: -183 95<357 381 381 516> -7 102<243 346.5 253.5 357> 603 107<253.5 346.5>
VStem: 36 139<247.5 289 289 409 229 463> 243 114<-46 -7 -88 -7> 425 139<290 409 409 463 247.5 469>
CounterMasks: 1 1c
AnchorPoint: "Anchor-2" 300 698 basechar 0
LayerCount: 2
Fore
SplineSet
516 -88 m 1
 516 -183 l 1
 381 -183 l 2
 282 -183 243 -128 243 -46 c 2
 243 -7 l 1
 101 18 36 146 36 349 c 0
 36 577 118 710 300 710 c 0
 482 710 564 577 564 349 c 0
 564 146 499 18 357 -7 c 1
 357 -88 l 1
 516 -88 l 1
300 95 m 0
 393 95 425 169 425 290 c 2
 425 409 l 2
 425 529 393 603 300 603 c 0
 207 603 175 529 175 409 c 2
 175 289 l 2
 175 169 207 95 300 95 c 0
EndSplineSet
Validated: 1
EndChar

StartChar: R
Encoding: 82 82 47
Width: 600
GlyphClass: 2
Flags: MW
HStem: 0 21G<80 211 80 80 423 423 423 567> 271 102<211 318 211 290> 591 107<211 318 211 211>
VStem: 80 131<0 271 373 591> 417 138<463 501 501 532>
AnchorPoint: "Anchor-2" 305 698 basechar 0
AnchorPoint: "Anchor-0" 313 0 basechar 0
LayerCount: 2
Fore
SplineSet
211 271 m 1
 211 0 l 1
 80 0 l 1
 80 698 l 1
 345 698 l 2
 480 698 555 615 555 482 c 0
 555 380 505 305 418 286 c 1
 567 0 l 1
 423 0 l 1
 290 271 l 1
 211 271 l 1
211 373 m 1
 318 373 l 2
 388 373 417 401 417 463 c 2
 417 501 l 2
 417 563 388 591 318 591 c 2
 211 591 l 1
 211 373 l 1
EndSplineSet
Validated: 1
EndChar

StartChar: S
Encoding: 83 83 48
Width: 600
GlyphClass: 2
Flags: MW
HStem: -12 107<261.5 336 261.5 376.5> 603 107<270.5 343>
VStem: 62 132<482.5 540 482.5 569.5> 420 132<166.5 227.5>
AnchorPoint: "Anchor-2" 303 698 basechar 0
AnchorPoint: "Anchor-0" 293 0 basechar 0
LayerCount: 2
Fore
SplineSet
292 -12 m 0
 173 -12 88 33 35 101 c 1
 114 183 l 1
 166 123 227 95 296 95 c 0
 376 95 420 133 420 200 c 0
 420 255 391 282 315 294 c 2
 241 306 l 2
 112 328 62 406 62 503 c 0
 62 636 155 710 307 710 c 0
 416 710 496 673 544 613 c 1
 467 531 l 1
 430 575 378 603 308 603 c 0
 233 603 194 571 194 509 c 0
 194 456 223 430 300 417 c 2
 373 404 l 2
 493 382 552 313 552 209 c 0
 552 79 461 -12 292 -12 c 0
EndSplineSet
Validated: 1
EndChar

StartChar: T
Encoding: 84 84 49
Width: 600
GlyphClass: 2
Flags: MW
HStem: 0 21G<235 365 235 235> 590 108<25 235 25 575 365 575 365 365>
VStem: 235 130<0 590 0 590>
AnchorPoint: "Anchor-2" 300 698 basechar 0
AnchorPoint: "Anchor-0" 300 0 basechar 0
LayerCount: 2
Fore
SplineSet
575 590 m 1
 365 590 l 1
 365 0 l 1
 235 0 l 1
 235 590 l 1
 25 590 l 1
 25 698 l 1
 575 698 l 1
 575 590 l 1
EndSplineSet
Validated: 1
EndChar

StartChar: U
Encoding: 85 85 50
Width: 600
GlyphClass: 2
Flags: MW
HStem: -12 107<249.5 350.5 249.5 399.5> 678 20G<62 193 193 193 407 538 538 538>
VStem: 62 131<283 698> 407 131<263 283 283 698>
AnchorPoint: "Anchor-2" 300 698 basechar 0
AnchorPoint: "Anchor-1" 401 0 basechar 0
AnchorPoint: "Anchor-0" 300 0 basechar 0
LayerCount: 2
Fore
SplineSet
62 698 m 1
 193 698 l 1
 193 263 l 2
 193 160 199 95 300 95 c 0
 401 95 407 160 407 263 c 2
 407 698 l 1
 538 698 l 1
 538 283 l 2
 538 87 499 -12 300 -12 c 0
 101 -12 62 87 62 283 c 2
 62 698 l 1
EndSplineSet
Validated: 1
EndChar

StartChar: V
Encoding: 86 86 51
Width: 600
GlyphClass: 2
Flags: MW
HStem: 0 125<299 306 299 392 208 306> 678 20G<17 161 161 161 446 583 583 583>
VStem: 17 566<698 698>
AnchorPoint: "Anchor-2" 300 698 basechar 0
AnchorPoint: "Anchor-0" 300 0 basechar 0
LayerCount: 2
Fore
SplineSet
392 0 m 1
 208 0 l 1
 17 698 l 1
 161 698 l 1
 248 345 l 1
 299 125 l 1
 306 125 l 1
 358 345 l 1
 446 698 l 1
 583 698 l 1
 392 0 l 1
EndSplineSet
Validated: 1
EndChar

StartChar: W
Encoding: 87 87 52
Width: 600
GlyphClass: 2
Flags: MW
HStem: 0 130<162 171 162 234 65 171 433 442> 395 142<296 304 296 296> 678 20G<18 131 131 131 473 582 582 582>
VStem: 18 564<698 698>
AnchorPoint: "Anchor-2" 300 698 basechar 0
AnchorPoint: "Anchor-0" 300 0 basechar 0
LayerCount: 2
Fore
SplineSet
234 0 m 1
 65 0 l 1
 18 698 l 1
 131 698 l 1
 153 296 l 1
 162 130 l 1
 171 130 l 1
 241 537 l 1
 363 537 l 1
 433 130 l 1
 442 130 l 1
 451 296 l 1
 473 698 l 1
 582 698 l 1
 535 0 l 1
 366 0 l 1
 304 395 l 1
 296 395 l 1
 234 0 l 1
EndSplineSet
Validated: 1
EndChar

StartChar: X
Encoding: 88 88 53
Width: 600
GlyphClass: 2
Flags: MW
HStem: 0 21G<14 152 14 14 438 586 438 438> 678 20G<27 176 176 176 437 575 575 575>
VStem: 14 572<0 0>
AnchorPoint: "Anchor-2" 300 698 basechar 0
AnchorPoint: "Anchor-0" 300 0 basechar 0
LayerCount: 2
Fore
SplineSet
382 358 m 1
 586 0 l 1
 438 0 l 1
 362 139 l 1
 301 261 l 1
 293 261 l 1
 230 139 l 1
 152 0 l 1
 14 0 l 1
 219 360 l 1
 27 698 l 1
 176 698 l 1
 240 580 l 1
 301 459 l 1
 308 459 l 1
 370 580 l 1
 437 698 l 1
 575 698 l 1
 382 358 l 1
EndSplineSet
Validated: 1
EndChar

StartChar: Y
Encoding: 89 89 54
Width: 600
GlyphClass: 2
Flags: MW
HStem: 0 21G<235 365 235 235> 678 20G<8 154 154 154 451 592 592 592>
VStem: 235 130<0 255>
AnchorPoint: "Anchor-2" 300 698 basechar 0
AnchorPoint: "Anchor-0" 300 0 basechar 0
LayerCount: 2
Fore
SplineSet
365 0 m 1
 235 0 l 1
 235 255 l 1
 8 698 l 1
 154 698 l 1
 235 530 l 1
 298 387 l 1
 305 387 l 1
 369 530 l 1
 451 698 l 1
 592 698 l 1
 365 255 l 1
 365 0 l 1
EndSplineSet
Validated: 1
EndChar

StartChar: Z
Encoding: 90 90 55
Width: 600
GlyphClass: 2
Flags: MW
HStem: 0 108<193 552 193 552> 590 108<60 395 60 539>
VStem: 48 504<0 108 0 115 0 115>
AnchorPoint: "Anchor-2" 300 698 basechar 0
AnchorPoint: "Anchor-0" 299 0 basechar 0
LayerCount: 2
Fore
SplineSet
552 108 m 1
 552 0 l 1
 48 0 l 1
 48 115 l 1
 395 590 l 1
 60 590 l 1
 60 698 l 1
 539 698 l 1
 539 583 l 1
 193 108 l 1
 552 108 l 1
EndSplineSet
Validated: 1
EndChar

StartChar: zero
Encoding: 48 48 56
Width: 600
GlyphClass: 1
Flags: MW
HStem: -12 105<252 348 252 391> 287 124<169 169> 605 105<252 348>
VStem: 36 133<235 287 287 411 227 463> 238 124<338 360 324.5 373.5> 431 133<287 411 411 463 235 471>
CounterMasks: 1 fc
LayerCount: 2
Fore
SplineSet
300 -12 m 0
 118 -12 36 121 36 349 c 0
 36 577 118 710 300 710 c 0
 482 710 564 577 564 349 c 0
 564 121 482 -12 300 -12 c 0
300 93 m 0
 396 93 431 167 431 287 c 2
 431 411 l 2
 431 531 396 605 300 605 c 0
 204 605 169 531 169 411 c 2
 169 287 l 2
 169 167 204 93 300 93 c 0
300 290 m 0
 254 290 238 311 238 338 c 2
 238 360 l 2
 238 387 254 408 300 408 c 0
 346 408 362 387 362 360 c 2
 362 338 l 2
 362 311 346 290 300 290 c 0
EndSplineSet
Validated: 1
Substitution2: "'salt' Stylistic Alternatives lookup 23 subtable" zero.alt02
Substitution2: "'ss04' Style Set 4 lookup 19 subtable" zero.alt02
Substitution2: "'ss03' Style Set 3 lookup 18 subtable" zero.alt01
Substitution2: "'zero' Slashed Zero lookup 15 subtable" zero.alt01
Substitution2: "'onum' Oldstyle Figures lookup 13 subtable" zero.tosf
Substitution2: "'subs' Subscript lookup 12 subtable" uni2080
Substitution2: "'sinf' Scientific Inferiors lookup 11 subtable" uni2080
Substitution2: "'sups' Superscript lookup 10 subtable" uni2070
Substitution2: "'dnom' Denominators lookup 9 subtable" zero.dnom
Substitution2: "'numr' Numerators lookup 8 subtable" zero.numr
AlternateSubs2: "'aalt' Access All Alternates lookup 1 subtable" zero.alt01 zero.alt02 zero.tosf zero.tosf.alt01 zero.tosf.alt02 zero.numr zero.dnom
EndChar

StartChar: zero.alt01
Encoding: 65540 -1 57
Width: 600
GlyphClass: 1
Flags: MW
HStem: -12 101<271 349.5 271 391> 609 101<250.5 329>
VStem: 36 129<265 292 292 411 265 463> 435 129<287 406 406 433 429 433>
LayerCount: 2
Fore
SplineSet
300 -12 m 0
 118 -12 36 121 36 349 c 0
 36 577 118 710 300 710 c 0
 482 710 564 577 564 349 c 0
 564 121 482 -12 300 -12 c 0
300 609 m 0
 201 609 165 534 165 411 c 2
 165 292 l 2
 165 284 165 273 165 265 c 1
 414 536 l 1
 395 583 358 609 300 609 c 0
300 89 m 0
 399 89 435 164 435 287 c 2
 435 406 l 2
 435 414 435 425 435 433 c 1
 186 162 l 1
 205 115 242 89 300 89 c 0
EndSplineSet
Validated: 1
EndChar

StartChar: zero.alt02
Encoding: 65541 -1 58
Width: 600
GlyphClass: 1
Flags: MW
HStem: -12 107<253.5 346.5 253.5 391> 603 107<253.5 346.5>
VStem: 36 139<235 289 289 409 229 463> 425 139<290 409 409 463 235 469>
LayerCount: 2
Fore
SplineSet
300 -12 m 0
 118 -12 36 121 36 349 c 0
 36 577 118 710 300 710 c 0
 482 710 564 577 564 349 c 0
 564 121 482 -12 300 -12 c 0
300 95 m 0
 393 95 425 169 425 290 c 2
 425 409 l 2
 425 529 393 603 300 603 c 0
 207 603 175 529 175 409 c 2
 175 289 l 2
 175 169 207 95 300 95 c 0
EndSplineSet
Validated: 1
EndChar

StartChar: one
Encoding: 49 49 59
Width: 600
GlyphClass: 1
Flags: MW
HStem: 0 107<91 283 414 572 91 283> 603 95<274 283 274 274>
VStem: 283 131<107 603 603 603>
LayerCount: 2
Fore
SplineSet
572 0 m 1
 91 0 l 1
 91 107 l 1
 283 107 l 1
 283 603 l 1
 274 603 l 1
 122 423 l 1
 40 492 l 1
 213 698 l 1
 414 698 l 1
 414 107 l 1
 572 107 l 1
 572 0 l 1
EndSplineSet
Validated: 1
Substitution2: "'onum' Oldstyle Figures lookup 13 subtable" one.tosf
Substitution2: "'subs' Subscript lookup 12 subtable" uni2081
Substitution2: "'sinf' Scientific Inferiors lookup 11 subtable" uni2081
Substitution2: "'sups' Superscript lookup 10 subtable" onesuperior
Substitution2: "'dnom' Denominators lookup 9 subtable" one.dnom
Substitution2: "'numr' Numerators lookup 8 subtable" one.numr
AlternateSubs2: "'aalt' Access All Alternates lookup 1 subtable" one.tosf one.numr one.dnom
EndChar

StartChar: two
Encoding: 50 50 60
Width: 600
GlyphClass: 1
Flags: MW
HStem: 0 110<201 550 201 550> 597 113<249.5 319>
VStem: 392 139<485 495 495 528>
LayerCount: 2
Fore
SplineSet
550 110 m 1
 550 0 l 1
 58 0 l 1
 58 122 l 1
 282 313 l 2
 356 377 392 426 392 485 c 2
 392 495 l 2
 392 561 352 597 286 597 c 0
 213 597 177 551 160 493 c 1
 46 536 l 1
 76 628 152 710 297 710 c 0
 446 710 531 623 531 503 c 0
 531 389 454 314 353 233 c 2
 201 110 l 1
 550 110 l 1
EndSplineSet
Validated: 1
Substitution2: "'onum' Oldstyle Figures lookup 13 subtable" two.tosf
Substitution2: "'subs' Subscript lookup 12 subtable" uni2082
Substitution2: "'sinf' Scientific Inferiors lookup 11 subtable" uni2082
Substitution2: "'sups' Superscript lookup 10 subtable" twosuperior
Substitution2: "'dnom' Denominators lookup 9 subtable" two.dnom
Substitution2: "'numr' Numerators lookup 8 subtable" two.numr
AlternateSubs2: "'aalt' Access All Alternates lookup 1 subtable" two.tosf two.numr two.dnom
EndChar

StartChar: three
Encoding: 51 51 61
Width: 600
GlyphClass: 1
Flags: MW
HStem: -12 108<242 322 242 360> 307 109<203 272 272 273 203 272> 602 108<255.5 320>
VStem: 394 137<504 511 511 539.5> 407 137<200 208 208 240>
LayerCount: 2
Fore
SplineSet
203 416 m 1xe8
 272 416 l 2
 355 416 394 454 394 504 c 2
 394 511 l 2
 394 568 353 602 287 602 c 0
 224 602 175 571 141 518 c 1
 56 594 l 1
 105 659 172 710 291 710 c 0
 433 710 531 640 531 528 c 0xf0
 531 439 469 384 395 369 c 1
 395 364 l 1
 477 349 544 292 544 193 c 0
 544 70 440 -12 280 -12 c 0
 146 -12 76 50 31 117 c 1
 128 192 l 1
 161 136 202 96 282 96 c 0
 362 96 407 135 407 200 c 2
 407 208 l 2
 407 272 358 307 273 307 c 2
 203 307 l 1
 203 416 l 1xe8
EndSplineSet
Validated: 1
Substitution2: "'onum' Oldstyle Figures lookup 13 subtable" three.tosf
Substitution2: "'subs' Subscript lookup 12 subtable" uni2083
Substitution2: "'sinf' Scientific Inferiors lookup 11 subtable" uni2083
Substitution2: "'sups' Superscript lookup 10 subtable" threesuperior
Substitution2: "'dnom' Denominators lookup 9 subtable" three.dnom
Substitution2: "'numr' Numerators lookup 8 subtable" three.numr
AlternateSubs2: "'aalt' Access All Alternates lookup 1 subtable" three.tosf three.numr three.dnom
EndChar

StartChar: four
Encoding: 52 52 62
Width: 600
GlyphClass: 1
Flags: MW
HStem: 0 21G<351 476 351 351> 135 102<135 351 135 351 476 570> 570 128<343 343 343 351>
VStem: 351 125<0 135 237 570 570 570>
LayerCount: 2
Fore
SplineSet
476 0 m 1
 351 0 l 1
 351 135 l 1
 28 135 l 1
 28 247 l 1
 313 698 l 1
 476 698 l 1
 476 237 l 1
 570 237 l 1
 570 135 l 1
 476 135 l 1
 476 0 l 1
343 570 m 1
 135 237 l 1
 351 237 l 1
 351 570 l 1
 343 570 l 1
EndSplineSet
Validated: 1
Substitution2: "'onum' Oldstyle Figures lookup 13 subtable" four.tosf
Substitution2: "'subs' Subscript lookup 12 subtable" uni2084
Substitution2: "'sinf' Scientific Inferiors lookup 11 subtable" uni2084
Substitution2: "'sups' Superscript lookup 10 subtable" uni2074
Substitution2: "'dnom' Denominators lookup 9 subtable" four.dnom
Substitution2: "'numr' Numerators lookup 8 subtable" four.numr
AlternateSubs2: "'aalt' Access All Alternates lookup 1 subtable" four.tosf four.numr four.dnom
EndChar

StartChar: five
Encoding: 53 53 63
Width: 600
GlyphClass: 1
Flags: MW
HStem: -12 108<258 337 258 378.5> 343 106<303 336.5> 584 114<198 518 198 198>
VStem: 420 137<218 226 226 262.5>
LayerCount: 2
Fore
SplineSet
518 698 m 1
 518 584 l 1
 198 584 l 1
 181 350 l 1
 189 350 l 1
 220 409 262 449 344 449 c 0
 462 449 557 368 557 229 c 0
 557 90 462 -12 295 -12 c 0
 164 -12 94 50 51 117 c 1
 146 192 l 1
 179 138 219 96 297 96 c 0
 377 96 420 143 420 218 c 2
 420 226 l 2
 420 299 375 343 298 343 c 0
 239 343 205 316 182 291 c 1
 75 306 l 1
 101 698 l 1
 518 698 l 1
EndSplineSet
Validated: 1
Substitution2: "'onum' Oldstyle Figures lookup 13 subtable" five.tosf
Substitution2: "'subs' Subscript lookup 12 subtable" uni2085
Substitution2: "'sinf' Scientific Inferiors lookup 11 subtable" uni2085
Substitution2: "'sups' Superscript lookup 10 subtable" uni2075
Substitution2: "'dnom' Denominators lookup 9 subtable" five.dnom
Substitution2: "'numr' Numerators lookup 8 subtable" five.numr
AlternateSubs2: "'aalt' Access All Alternates lookup 1 subtable" five.tosf five.numr five.dnom
EndChar

StartChar: six
Encoding: 54 54 64
Width: 600
GlyphClass: 1
Flags: MW
HStem: -12 103<263 341.5 263 380.5> 344 101<307 341> 678 20G<300 478 478 478>
VStem: 46 135<178.5 212 212 224 173.5 362> 424 135<212 224 224 262.5>
LayerCount: 2
Fore
SplineSet
303 -12 m 0
 141 -12 46 95 46 262 c 0
 46 462 181 620 300 698 c 1
 478 698 l 1
 311 581 214 488 182 344 c 1
 190 342 l 1
 217 396 262 445 352 445 c 0
 470 445 559 361 559 228 c 0
 559 87 458 -12 303 -12 c 0
302 91 m 0
 381 91 424 135 424 212 c 2
 424 224 l 2
 424 301 380 344 302 344 c 0
 226 344 181 301 181 224 c 2
 181 212 l 2
 181 135 224 91 302 91 c 0
EndSplineSet
Validated: 1
Substitution2: "'onum' Oldstyle Figures lookup 13 subtable" six.tosf
Substitution2: "'subs' Subscript lookup 12 subtable" uni2086
Substitution2: "'sinf' Scientific Inferiors lookup 11 subtable" uni2086
Substitution2: "'sups' Superscript lookup 10 subtable" uni2076
Substitution2: "'dnom' Denominators lookup 9 subtable" six.dnom
Substitution2: "'numr' Numerators lookup 8 subtable" six.numr
AlternateSubs2: "'aalt' Access All Alternates lookup 1 subtable" six.tosf six.numr six.dnom
EndChar

StartChar: seven
Encoding: 55 55 65
Width: 600
GlyphClass: 1
Flags: MW
HStem: 0 21G<167 305 167 167> 591 107<167 416 167 167>
VStem: 55 112<463 591>
LayerCount: 2
Fore
SplineSet
305 0 m 1
 167 0 l 1
 416 591 l 1
 167 591 l 1
 167 463 l 1
 55 463 l 1
 55 698 l 1
 546 698 l 1
 546 584 l 1
 305 0 l 1
EndSplineSet
Validated: 1
Substitution2: "'onum' Oldstyle Figures lookup 13 subtable" seven.tosf
Substitution2: "'subs' Subscript lookup 12 subtable" uni2087
Substitution2: "'sinf' Scientific Inferiors lookup 11 subtable" uni2087
Substitution2: "'sups' Superscript lookup 10 subtable" uni2077
Substitution2: "'dnom' Denominators lookup 9 subtable" seven.dnom
Substitution2: "'numr' Numerators lookup 8 subtable" seven.numr
AlternateSubs2: "'aalt' Access All Alternates lookup 1 subtable" seven.tosf seven.numr seven.dnom
EndChar

StartChar: eight
Encoding: 56 56 66
Width: 600
GlyphClass: 1
Flags: MW
HStem: -12 102<261 339 261 383> 311 97<263.5 336.5 263.5 339.5> 608 102<263.5 336.5>
VStem: 42 136<159 190 190 210 159 237> 63 124<488.5 502 502 516 473 582.5> 413 124<502 516 516 544.5> 422 136<190 210 210 237 133 241.5>
LayerCount: 2
Fore
SplineSet
300 -12 m 0xf2
 134 -12 42 75 42 191 c 0xf2
 42 283 99 339 182 361 c 1
 182 369 l 1
 111 394 63 448 63 529 c 0
 63 636 149 710 300 710 c 0
 451 710 537 636 537 529 c 0xec
 537 448 489 394 418 369 c 1
 418 361 l 1
 501 339 558 283 558 191 c 0
 558 75 466 -12 300 -12 c 0xf2
300 90 m 0
 378 90 422 128 422 190 c 2
 422 210 l 2
 422 273 379 311 300 311 c 0
 221 311 178 273 178 210 c 2
 178 190 l 2
 178 128 222 90 300 90 c 0
300 408 m 0
 373 408 413 444 413 502 c 2
 413 516 l 2
 413 573 373 608 300 608 c 0
 227 608 187 573 187 516 c 2
 187 502 l 2xec
 187 444 227 408 300 408 c 0
EndSplineSet
Validated: 1
Substitution2: "'onum' Oldstyle Figures lookup 13 subtable" eight.tosf
Substitution2: "'subs' Subscript lookup 12 subtable" uni2088
Substitution2: "'sinf' Scientific Inferiors lookup 11 subtable" uni2088
Substitution2: "'sups' Superscript lookup 10 subtable" uni2078
Substitution2: "'dnom' Denominators lookup 9 subtable" eight.dnom
Substitution2: "'numr' Numerators lookup 8 subtable" eight.numr
AlternateSubs2: "'aalt' Access All Alternates lookup 1 subtable" eight.tosf eight.numr eight.dnom
EndChar

StartChar: nine
Encoding: 57 57 67
Width: 600
GlyphClass: 1
Flags: MW
HStem: 0 21G<122 300 122 122> 253 101<259 293> 607 103<258.5 337>
VStem: 41 135<435.5 474 474 486 435.5 540.5> 419 135<474 486 486 519.5 336 524.5>
LayerCount: 2
Fore
SplineSet
554 436 m 0
 554 236 419 78 300 0 c 1
 122 0 l 1
 289 117 386 210 418 354 c 1
 410 356 l 1
 383 302 338 253 248 253 c 0
 130 253 41 337 41 470 c 0
 41 611 142 710 297 710 c 0
 459 710 554 603 554 436 c 0
298 354 m 0
 374 354 419 397 419 474 c 2
 419 486 l 2
 419 563 376 607 298 607 c 0
 219 607 176 563 176 486 c 2
 176 474 l 2
 176 397 220 354 298 354 c 0
EndSplineSet
Validated: 1
Substitution2: "'onum' Oldstyle Figures lookup 13 subtable" nine.tosf
Substitution2: "'subs' Subscript lookup 12 subtable" uni2089
Substitution2: "'sinf' Scientific Inferiors lookup 11 subtable" uni2089
Substitution2: "'sups' Superscript lookup 10 subtable" uni2079
Substitution2: "'dnom' Denominators lookup 9 subtable" nine.dnom
Substitution2: "'numr' Numerators lookup 8 subtable" nine.numr
AlternateSubs2: "'aalt' Access All Alternates lookup 1 subtable" nine.tosf nine.numr nine.dnom
EndChar

StartChar: zero.tosf
Encoding: 65542 -1 68
Width: 600
GlyphClass: 1
Flags: MW
HStem: -12 107<265 335 265 375> 212 112<281 319> 441 107<265 335>
VStem: 42 137<182 219 219 317 178 354> 421 137<219 317 317 354 182 358>
CounterMasks: 1 e0
LayerCount: 2
Fore
SplineSet
300 212 m 0
 262 212 244 232 244 261 c 2
 244 275 l 2
 244 304 262 324 300 324 c 0
 338 324 356 304 356 275 c 2
 356 261 l 2
 356 232 338 212 300 212 c 0
300 95 m 0
 370 95 421 137 421 219 c 2
 421 317 l 2
 421 399 370 441 300 441 c 0
 230 441 179 399 179 317 c 2
 179 219 l 2
 179 137 230 95 300 95 c 0
300 -12 m 0
 150 -12 42 96 42 268 c 0
 42 440 150 548 300 548 c 0
 450 548 558 440 558 268 c 0
 558 96 450 -12 300 -12 c 0
EndSplineSet
Validated: 1
Substitution2: "'ss04' Style Set 4 lookup 19 subtable" zero.tosf.alt02
Substitution2: "'ss03' Style Set 3 lookup 18 subtable" zero.tosf.alt01
Substitution2: "'zero' Slashed Zero lookup 15 subtable" zero.tosf.alt01
Substitution2: "'lnum' Lining Figures lookup 14 subtable" zero
EndChar

StartChar: zero.tosf.alt01
Encoding: 65543 -1 69
Width: 600
GlyphClass: 1
Flags: MW
HStem: -12 103<281.5 336.5 281.5 375> 445 103<263.5 318.5>
VStem: 42 131<217 220 220 316 217 354> 427 131<220 316 316 319>
LayerCount: 2
Fore
SplineSet
300 -12 m 0
 150 -12 42 96 42 268 c 0
 42 440 150 548 300 548 c 0
 450 548 558 440 558 268 c 0
 558 96 450 -12 300 -12 c 0
300 91 m 0
 373 91 427 135 427 220 c 2
 427 316 l 2
 427 322 427 327 426 332 c 1
 208 126 l 1
 231 103 263 91 300 91 c 0
173 220 m 2
 173 214 173 209 174 204 c 1
 392 410 l 1
 369 433 337 445 300 445 c 0
 227 445 173 401 173 316 c 2
 173 220 l 2
EndSplineSet
Validated: 1
EndChar

StartChar: zero.tosf.alt02
Encoding: 65544 -1 70
Width: 600
GlyphClass: 1
Flags: MW
HStem: -12 107<265 335 265 375> 441 107<265 335>
VStem: 42 137<182 219 219 317 178 354> 421 137<219 317 317 354 182 358>
LayerCount: 2
Fore
SplineSet
300 -12 m 0
 150 -12 42 96 42 268 c 0
 42 440 150 548 300 548 c 0
 450 548 558 440 558 268 c 0
 558 96 450 -12 300 -12 c 0
300 95 m 0
 370 95 421 137 421 219 c 2
 421 317 l 2
 421 399 370 441 300 441 c 0
 230 441 179 399 179 317 c 2
 179 219 l 2
 179 137 230 95 300 95 c 0
EndSplineSet
Validated: 1
EndChar

StartChar: one.tosf
Encoding: 65545 -1 71
Width: 600
GlyphClass: 1
Flags: MW
HStem: 0 102<98 281 409 569 98 281> 516 20G<263 409 409 409>
VStem: 281 128<102 424 424 424>
LayerCount: 2
Fore
SplineSet
569 0 m 1
 98 0 l 1
 98 102 l 1
 281 102 l 1
 281 424 l 1
 273 424 l 1
 113 327 l 1
 59 417 l 1
 263 536 l 1
 409 536 l 1
 409 102 l 1
 569 102 l 1
 569 0 l 1
EndSplineSet
Validated: 1
Substitution2: "'lnum' Lining Figures lookup 14 subtable" one
EndChar

StartChar: two.tosf
Encoding: 65546 -1 72
Width: 600
GlyphClass: 1
Flags: MW
HStem: 0 102<237 541 237 541> 445 103<242 300>
VStem: 369 134<349 362 362 390>
LayerCount: 2
Fore
SplineSet
71 0 m 1
 71 108 l 1
 256 219 l 2
 325 261 369 304 369 349 c 2
 369 362 l 2
 369 418 326 445 274 445 c 0
 210 445 173 405 152 360 c 1
 63 417 l 1
 97 485 168 548 283 548 c 0
 421 548 503 484 503 364 c 0
 503 257 405 197 315 146 c 2
 237 102 l 1
 541 102 l 1
 541 0 l 1
 71 0 l 1
EndSplineSet
Validated: 1
Substitution2: "'lnum' Lining Figures lookup 14 subtable" two
EndChar

StartChar: three.tosf
Encoding: 65547 -1 73
Width: 600
GlyphClass: 1
Flags: MW
HStem: -166 103<236 309.5 236 348.5> 152 102<198 262 262 263 198 262> 445 103<247.5 307.5>
VStem: 376 134<343 354 354 382.5> 389 134<42 53 53 84.5>
LayerCount: 2
Fore
SplineSet
273 -166 m 0xe8
 146 -166 80 -107 36 -39 c 1
 127 30 l 1
 160 -26 199 -63 273 -63 c 0
 346 -63 389 -23 389 42 c 2
 389 53 l 2xe8
 389 116 343 152 263 152 c 2
 198 152 l 1
 198 254 l 1
 262 254 l 2
 340 254 376 293 376 343 c 2
 376 354 l 2
 376 411 338 445 277 445 c 0
 218 445 173 417 140 364 c 1
 59 435 l 1
 107 499 170 548 281 548 c 0
 420 548 510 478 510 368 c 0xf0
 510 280 450 227 377 211 c 1
 377 205 l 1
 457 190 523 133 523 38 c 0
 523 -84 424 -166 273 -166 c 0xe8
EndSplineSet
Validated: 1
Substitution2: "'lnum' Lining Figures lookup 14 subtable" three
EndChar

StartChar: four.tosf
Encoding: 65548 -1 74
Width: 600
GlyphClass: 1
Flags: MW
HStem: -154 21G<349 474 349 349> 0 98<135 349 135 349 474 566> 516 20G<310 474 474 474>
VStem: 349 125<-154 0 98 406 406 406>
LayerCount: 2
Fore
SplineSet
474 -154 m 1
 349 -154 l 1
 349 0 l 1
 24 0 l 1
 24 105 l 1
 310 536 l 1
 474 536 l 1
 474 98 l 1
 566 98 l 1
 566 0 l 1
 474 0 l 1
 474 -154 l 1
340 406 m 1
 135 98 l 1
 349 98 l 1
 349 406 l 1
 340 406 l 1
EndSplineSet
Validated: 1
Substitution2: "'lnum' Lining Figures lookup 14 subtable" four
EndChar

StartChar: five.tosf
Encoding: 65549 -1 75
Width: 600
GlyphClass: 1
Flags: MW
HStem: -166 103<257 331.5 257 372.5> 189 103<296 330> 431 105<204 506 204 204>
VStem: 411 134<60 68 68 104>
LayerCount: 2
Fore
SplineSet
292 -166 m 0
 170 -166 102 -108 60 -41 c 1
 151 29 l 1
 183 -25 220 -63 294 -63 c 0
 369 -63 411 -15 411 60 c 2
 411 68 l 2
 411 140 366 189 294 189 c 0
 239 189 209 163 187 138 c 1
 80 153 l 1
 107 536 l 1
 506 536 l 1
 506 431 l 1
 204 431 l 1
 187 199 l 1
 194 199 l 1
 221 253 258 292 334 292 c 0
 453 292 545 212 545 74 c 0
 545 -65 453 -166 292 -166 c 0
EndSplineSet
Validated: 1
Substitution2: "'lnum' Lining Figures lookup 14 subtable" five
EndChar

StartChar: six.tosf
Encoding: 65550 -1 76
Width: 600
GlyphClass: 1
Flags: MW
HStem: -12 103<265.5 340.5 265.5 380> 342 103<307.5 340.5> 678 20G<299 466 466 466>
VStem: 50 134<178.5 209 209 224 171 361> 422 134<209 224 224 262>
LayerCount: 2
Fore
SplineSet
303 -12 m 0
 143 -12 50 95 50 262 c 0
 50 460 182 621 299 698 c 1
 466 698 l 1
 305 580 215 486 185 344 c 1
 192 342 l 1
 219 396 263 445 352 445 c 0
 469 445 556 361 556 229 c 0
 556 87 457 -12 303 -12 c 0
303 91 m 0
 378 91 422 133 422 209 c 2
 422 224 l 2
 422 300 378 342 303 342 c 0
 228 342 184 300 184 224 c 2
 184 209 l 2
 184 133 228 91 303 91 c 0
EndSplineSet
Validated: 1
Substitution2: "'lnum' Lining Figures lookup 14 subtable" six
EndChar

StartChar: seven.tosf
Encoding: 65551 -1 77
Width: 600
GlyphClass: 1
Flags: MW
HStem: -154 21G<168 305 168 168> 433 103<176 408 176 176>
VStem: 64 112<307 433 307 536 307 536>
LayerCount: 2
Fore
SplineSet
305 -154 m 1
 168 -154 l 1
 408 433 l 1
 176 433 l 1
 176 307 l 1
 64 307 l 1
 64 536 l 1
 538 536 l 1
 538 434 l 1
 305 -154 l 1
EndSplineSet
Validated: 1
Substitution2: "'lnum' Lining Figures lookup 14 subtable" seven
EndChar

StartChar: eight.tosf
Encoding: 65552 -1 78
Width: 600
GlyphClass: 1
Flags: MW
HStem: -12 100<262 338 262 381> 312 94<265 335 265 338> 610 100<265 335>
VStem: 48 133<159 190 190 210 159 236.5> 69 121<485.5 500 500 516 471.5 580.5> 410 121<500 516 516 544.5> 419 133<190 210 210 236.5 133.5 241>
LayerCount: 2
Fore
SplineSet
300 -12 m 0xea
 138 -12 48 76 48 191 c 0xf2
 48 282 105 339 189 361 c 1
 189 369 l 1
 119 392 69 444 69 527 c 0
 69 634 151 710 300 710 c 0
 449 710 531 634 531 527 c 0xec
 531 444 481 392 411 369 c 1
 411 361 l 1
 495 339 552 282 552 191 c 0
 552 76 462 -12 300 -12 c 0xea
300 88 m 0
 376 88 419 128 419 190 c 2
 419 210 l 2
 419 272 376 312 300 312 c 0
 224 312 181 272 181 210 c 2
 181 190 l 2
 181 128 224 88 300 88 c 0
300 406 m 0
 370 406 410 443 410 500 c 2
 410 516 l 2
 410 573 370 610 300 610 c 0
 230 610 190 573 190 516 c 2
 190 500 l 2xec
 190 443 230 406 300 406 c 0
EndSplineSet
Validated: 1
Substitution2: "'lnum' Lining Figures lookup 14 subtable" eight
EndChar

StartChar: nine.tosf
Encoding: 65553 -1 79
Width: 600
GlyphClass: 1
Flags: MW
HStem: -154 21G<144 311 144 144> 91 103<259.5 292.5> 445 103<259.5 334.5>
VStem: 44 134<274 312 312 327 274 378> 416 134<312 327 327 357.5 177 365>
LayerCount: 2
Fore
SplineSet
297 548 m 0
 457 548 550 441 550 274 c 0
 550 80 421 -80 311 -154 c 1
 144 -154 l 1
 300 -40 386 53 415 192 c 1
 408 194 l 1
 381 140 337 91 248 91 c 0
 131 91 44 175 44 307 c 0
 44 449 143 548 297 548 c 0
297 194 m 0
 372 194 416 236 416 312 c 2
 416 327 l 2
 416 403 372 445 297 445 c 0
 222 445 178 403 178 327 c 2
 178 312 l 2
 178 236 222 194 297 194 c 0
EndSplineSet
Validated: 1
Substitution2: "'lnum' Lining Figures lookup 14 subtable" nine
EndChar

StartChar: ampersand
Encoding: 38 38 80
Width: 600
GlyphClass: 1
Flags: MW
HStem: -12 101<210.5 252> 0 21G<452 591 452 452> 299 97<503 574 503 503> 612 98<242 286.5>
VStem: 17 121<159 192 192 197 159 227> 74 114<512.5 532 532 538 512.5 586.5>
LayerCount: 2
Fore
SplineSet
210 -12 m 0xb8
 86 -12 17 79 17 187 c 0xb8
 17 267 54 335 139 382 c 1
 97 437 74 482 74 536 c 0
 74 637 156 710 265 710 c 0
 361 710 427 652 448 591 c 1
 357 543 l 1
 342 585 308 612 265 612 c 0
 219 612 188 581 188 538 c 2
 188 532 l 2
 188 493 208 466 268 391 c 2
 334 307 l 1
 390 229 l 1
 396 229 l 1
 404 276 407 346 407 396 c 1
 574 396 l 1
 574 299 l 1
 503 299 l 1
 495 250 485 206 463 154 c 1
 591 0 l 1
 452 0 l 1x74
 370 99 l 1
 363 99 l 1
 351 31 294 -12 210 -12 c 0xb8
242 89 m 0
 280 89 314 103 334 137 c 1
 192 315 l 1
 150 280 138 241 138 197 c 2
 138 192 l 2
 138 126 179 89 242 89 c 0
EndSplineSet
Validated: 1
EndChar

StartChar: at
Encoding: 64 64 81
Width: 600
GlyphClass: 1
Flags: MW
HStem: -112 86<230 449 338 449> 80 77<364 371> 431 77<364 371 307 405> 624 86<254 351>
VStem: 45 101<163.5 229 229 358> 219 101<222.5 262 262 326 222.5 368> 449 96<91 151 151 151 222 366 366 386.5 437 463 91 519.5>
LayerCount: 2
Fore
SplineSet
449 -26 m 1
 449 -112 l 1
 338 -112 l 2
 122 -112 45 24 45 303 c 0
 45 609 136 710 301 710 c 0
 470 710 545 603 545 463 c 2
 545 91 l 1
 449 91 l 1
 449 151 l 1
 442 151 l 1
 428 106 396 80 346 80 c 0
 268 80 219 146 219 294 c 0
 219 442 268 508 346 508 c 0
 396 508 428 481 442 437 c 1
 449 437 l 1
 449 463 l 2
 449 576 396 624 306 624 c 0
 202 624 146 559 146 358 c 2
 146 229 l 2
 146 74 194 -26 338 -26 c 2
 449 -26 l 1
385 157 m 0
 425 157 449 181 449 222 c 2
 449 366 l 2
 449 407 425 431 385 431 c 0
 343 431 320 405 320 326 c 2
 320 262 l 2
 320 183 343 157 385 157 c 0
EndSplineSet
Validated: 1
EndChar

StartChar: hyphen
Encoding: 45 45 82
Width: 600
GlyphClass: 1
Flags: MW
HStem: 242 125<145 455 145 455>
VStem: 145 310<242 367 242 367>
LayerCount: 2
Fore
SplineSet
455 242 m 1
 145 242 l 1
 145 367 l 1
 455 367 l 1
 455 242 l 1
EndSplineSet
Validated: 1
EndChar

StartChar: uni2010
Encoding: 8208 8208 83
Width: 600
GlyphClass: 1
Flags: MW
HStem: 242 125<145 455 145 455>
VStem: 145 310<242 367 242 367>
LayerCount: 2
Fore
SplineSet
455 242 m 1
 145 242 l 1
 145 367 l 1
 455 367 l 1
 455 242 l 1
EndSplineSet
Validated: 1
EndChar

StartChar: uni2011
Encoding: 8209 8209 84
Width: 600
GlyphClass: 1
Flags: MW
HStem: 242 125<145 455 145 455>
VStem: 145 310<242 367 242 367>
LayerCount: 2
Fore
SplineSet
455 242 m 1
 145 242 l 1
 145 367 l 1
 455 367 l 1
 455 242 l 1
EndSplineSet
Validated: 1
EndChar

StartChar: uni2012
Encoding: 8210 8210 85
Width: 600
GlyphClass: 1
Flags: MW
HStem: 251 107<60 540 60 540>
VStem: 60 480<251 358 251 358>
LayerCount: 2
Fore
SplineSet
540 251 m 1
 60 251 l 1
 60 358 l 1
 540 358 l 1
 540 251 l 1
EndSplineSet
Validated: 1
EndChar

StartChar: endash
Encoding: 8211 8211 86
Width: 600
GlyphClass: 1
Flags: MW
HStem: 251 107<60 540 60 540>
VStem: 60 480<251 358 251 358>
LayerCount: 2
Fore
SplineSet
540 251 m 1
 60 251 l 1
 60 358 l 1
 540 358 l 1
 540 251 l 1
EndSplineSet
Validated: 1
EndChar

StartChar: emdash
Encoding: 8212 8212 87
Width: 600
GlyphClass: 1
Flags: MW
HStem: 251 107<0 600 0 600>
VStem: 0 600<251 358 251 358>
LayerCount: 2
Fore
SplineSet
600 251 m 1
 0 251 l 1
 0 358 l 1
 600 358 l 1
 600 251 l 1
EndSplineSet
Validated: 1
EndChar

StartChar: uni2015
Encoding: 8213 8213 88
Width: 600
GlyphClass: 1
Flags: MW
HStem: 251 107<0 600 0 600>
VStem: 0 600<251 358 251 358>
LayerCount: 2
Fore
SplineSet
600 251 m 1
 0 251 l 1
 0 358 l 1
 600 358 l 1
 600 251 l 1
EndSplineSet
Validated: 1
EndChar

StartChar: underscore
Encoding: 95 95 89
Width: 600
GlyphClass: 1
Flags: MW
HStem: -185 107<60 540 60 540>
VStem: 60 480<-185 -78 -185 -78>
LayerCount: 2
Fore
SplineSet
540 -185 m 1
 60 -185 l 1
 60 -78 l 1
 540 -78 l 1
 540 -185 l 1
EndSplineSet
Validated: 1
EndChar

StartChar: period
Encoding: 46 46 90
Width: 600
GlyphClass: 1
Flags: MW
HStem: -11 182<265.5 334.5>
VStem: 204 192<65 95 44 116>
LayerCount: 2
Fore
SplineSet
300 -11 m 0
 231 -11 204 23 204 65 c 2
 204 95 l 2
 204 137 231 171 300 171 c 0
 369 171 396 137 396 95 c 2
 396 65 l 2
 396 23 369 -11 300 -11 c 0
EndSplineSet
Validated: 1
EndChar

StartChar: ellipsis
Encoding: 8230 8230 91
Width: 600
GlyphClass: 1
Flags: MW
HStem: -6 147<79.5 127.5 276 324 472.5 520>
VStem: 34 139<47 88 32.5 102.5> 230 140<47 88 32.5 102.5> 427 139<47 88 32.5 102.5>
CounterMasks: 1 70
LayerCount: 2
Fore
SplineSet
104 -6 m 0
 55 -6 34 18 34 47 c 2
 34 88 l 2
 34 117 55 141 104 141 c 0
 151 141 173 117 173 88 c 2
 173 47 l 2
 173 18 151 -6 104 -6 c 0
300 -6 m 0
 252 -6 230 18 230 47 c 2
 230 88 l 2
 230 117 252 141 300 141 c 0
 348 141 370 117 370 88 c 2
 370 47 l 2
 370 18 348 -6 300 -6 c 0
496 -6 m 0
 449 -6 427 18 427 47 c 2
 427 88 l 2
 427 117 449 141 496 141 c 0
 544 141 566 117 566 88 c 2
 566 47 l 2
 566 18 544 -6 496 -6 c 0
EndSplineSet
Validated: 1
EndChar

StartChar: colon
Encoding: 58 58 92
Width: 600
GlyphClass: 1
Flags: MW
HStem: -11 182<265.5 334.5> 344 182<265.5 334.5>
VStem: 204 192<65 95 44 116 420 450>
LayerCount: 2
Fore
SplineSet
300 -11 m 0
 231 -11 204 23 204 65 c 2
 204 95 l 2
 204 137 231 171 300 171 c 0
 369 171 396 137 396 95 c 2
 396 65 l 2
 396 23 369 -11 300 -11 c 0
300 344 m 0x60
 231 344 204 378 204 420 c 2
 204 450 l 2
 204 492 231 526 300 526 c 0
 369 526 396 492 396 450 c 2
 396 420 l 2
 396 378 369 344 300 344 c 0x60
EndSplineSet
Validated: 1
EndChar

StartChar: comma
Encoding: 44 44 93
Width: 600
GlyphClass: 1
Flags: MW
HStem: -148 311<180 408 236 277>
VStem: 180 228
LayerCount: 2
Fore
SplineSet
180 -148 m 1
 236 163 l 1
 408 163 l 1
 277 -148 l 1
 180 -148 l 1
EndSplineSet
Validated: 1
EndChar

StartChar: semicolon
Encoding: 59 59 94
Width: 600
GlyphClass: 1
Flags: MW
HStem: -148 311<180 408 236 277> 344 182<265.5 334.5>
VStem: 180 228 204 192<420 450 399 471>
LayerCount: 2
Fore
SplineSet
180 -148 m 1xa0
 236 163 l 1
 408 163 l 1
 277 -148 l 1
 180 -148 l 1xa0
300 344 m 0x50
 231 344 204 378 204 420 c 2
 204 450 l 2
 204 492 231 526 300 526 c 0
 369 526 396 492 396 450 c 2
 396 420 l 2
 396 378 369 344 300 344 c 0x50
EndSplineSet
Validated: 1
EndChar

StartChar: quotesingle
Encoding: 39 39 95
Width: 600
GlyphClass: 1
Flags: MW
HStem: 720 20G<242 358 358 358>
VStem: 242 116<428 740>
LayerCount: 2
Fore
SplineSet
358 428 m 1
 242 428 l 1
 242 740 l 1
 358 740 l 1
 358 428 l 1
EndSplineSet
Validated: 1
EndChar

StartChar: quotedbl
Encoding: 34 34 96
Width: 600
GlyphClass: 1
Flags: MW
HStem: 720 20G<137 253 253 253 347 463 463 463>
VStem: 137 116<428 740> 347 116<428 740>
LayerCount: 2
Fore
SplineSet
253 428 m 1
 137 428 l 1
 137 740 l 1
 253 740 l 1
 253 428 l 1
463 428 m 1xa0
 347 428 l 1
 347 740 l 1
 463 740 l 1
 463 428 l 1xa0
EndSplineSet
Validated: 1
EndChar

StartChar: quoteleft
Encoding: 8216 8216 97
Width: 600
GlyphClass: 1
Flags: MW
HStem: 720 20G<303 399 399 399>
VStem: 172 227
LayerCount: 2
Fore
SplineSet
172 428 m 1
 303 740 l 1
 399 740 l 1
 344 428 l 1
 172 428 l 1
EndSplineSet
Validated: 1
EndChar

StartChar: quoteright
Encoding: 8217 8217 98
Width: 600
GlyphClass: 1
Flags: MW
HStem: 720 20G<256 428 428 428>
VStem: 201 227
LayerCount: 2
Fore
SplineSet
201 428 m 1
 256 740 l 1
 428 740 l 1
 297 428 l 1
 201 428 l 1
EndSplineSet
Validated: 1
EndChar

StartChar: quotedblleft
Encoding: 8220 8220 99
Width: 600
GlyphClass: 1
Flags: MW
HStem: 720 20G<179 275 275 275 431 527 527 527>
VStem: 48 227 300 227
LayerCount: 2
Fore
SplineSet
48 428 m 1
 179 740 l 1
 275 740 l 1
 220 428 l 1
 48 428 l 1
300 428 m 1xa0
 431 740 l 1
 527 740 l 1
 472 428 l 1
 300 428 l 1xa0
EndSplineSet
Validated: 1
EndChar

StartChar: quotedblright
Encoding: 8221 8221 100
Width: 600
GlyphClass: 1
Flags: MW
HStem: 720 20G<132 304 304 304 384 556 556 556>
VStem: 77 227 329 227
LayerCount: 2
Fore
SplineSet
77 428 m 1
 132 740 l 1
 304 740 l 1
 173 428 l 1
 77 428 l 1
329 428 m 1xa0
 384 740 l 1
 556 740 l 1
 425 428 l 1
 329 428 l 1xa0
EndSplineSet
Validated: 1
EndChar

StartChar: quotesinglbase
Encoding: 8218 8218 101
Width: 600
GlyphClass: 1
Flags: MW
HStem: -148 311<180 408 236 277>
VStem: 180 228
LayerCount: 2
Fore
SplineSet
180 -148 m 1
 236 163 l 1
 408 163 l 1
 277 -148 l 1
 180 -148 l 1
EndSplineSet
Validated: 1
EndChar

StartChar: quotedblbase
Encoding: 8222 8222 102
Width: 600
GlyphClass: 1
Flags: MW
HStem: -148 311<64 292 120 161 372 413 120 316>
VStem: 64 228 316 228
LayerCount: 2
Fore
SplineSet
64 -148 m 1
 120 163 l 1
 292 163 l 1
 161 -148 l 1
 64 -148 l 1
316 -148 m 1xa0
 372 163 l 1
 544 163 l 1
 413 -148 l 1
 316 -148 l 1xa0
EndSplineSet
Validated: 1
EndChar

StartChar: guilsinglleft
Encoding: 8249 8249 103
Width: 600
GlyphClass: 1
Flags: MW
HStem: 43 456<374 374>
VStem: 172 241<127 329 127 329>
LayerCount: 2
Fore
SplineSet
413 127 m 1
 374 43 l 1
 172 213 l 1
 172 329 l 1
 374 499 l 1
 413 415 l 1
 278 271 l 1
 413 127 l 1
EndSplineSet
Validated: 1
EndChar

StartChar: guilsinglright
Encoding: 8250 8250 104
Width: 600
GlyphClass: 1
Flags: MW
HStem: 43 456<226 226>
VStem: 187 241<127 329 213 415>
LayerCount: 2
Fore
SplineSet
226 43 m 1
 187 127 l 1
 322 271 l 1
 187 415 l 1
 226 499 l 1
 428 329 l 1
 428 213 l 1
 226 43 l 1
EndSplineSet
Validated: 1
EndChar

StartChar: guillemotleft
Encoding: 171 171 105
Width: 600
GlyphClass: 1
Flags: MW
HStem: 43 456<266 266 266 507>
VStem: 64 241<213 329 127 329> 305 241<127 127 127 329 127 329>
LayerCount: 2
Fore
SplineSet
305 127 m 1xc0
 266 43 l 1
 64 213 l 1
 64 329 l 1
 266 499 l 1
 305 415 l 1
 170 271 l 1
 305 127 l 1xc0
546 127 m 1xa0
 507 43 l 1
 305 213 l 1
 305 329 l 1
 507 499 l 1
 546 415 l 1
 411 271 l 1
 546 127 l 1xa0
EndSplineSet
Validated: 1
EndChar

StartChar: guillemotright
Encoding: 187 187 106
Width: 600
GlyphClass: 1
Flags: MW
HStem: 43 456<93 93 93 334>
VStem: 54 241<127 127> 295 241<127 329 213 329 213 329 213 415>
LayerCount: 2
Fore
SplineSet
93 43 m 1xc0
 54 127 l 1
 189 271 l 1
 54 415 l 1
 93 499 l 1
 295 329 l 1
 295 213 l 1
 93 43 l 1xc0
334 43 m 1xa0
 295 127 l 1
 430 271 l 1
 295 415 l 1
 334 499 l 1
 536 329 l 1
 536 213 l 1
 334 43 l 1xa0
EndSplineSet
Validated: 1
EndChar

StartChar: exclamdown
Encoding: 161 161 107
Width: 600
GlyphClass: 1
Flags: MW
HStem: 355 172<267 333>
VStem: 209 182<427 455 407 475> 230 140<-182 21>
LayerCount: 2
Fore
SplineSet
370 -182 m 1xa0
 230 -182 l 1
 230 21 l 1
 279 276 l 1
 321 276 l 1
 370 21 l 1
 370 -182 l 1xa0
300 355 m 0
 234 355 209 387 209 427 c 2
 209 455 l 2
 209 495 234 527 300 527 c 0
 366 527 391 495 391 455 c 2
 391 427 l 2xc0
 391 387 366 355 300 355 c 0
EndSplineSet
Validated: 1
EndChar

StartChar: exclam
Encoding: 33 33 108
Width: 600
GlyphClass: 1
Flags: MW
HStem: -11 172<267 333> 678 20G<230 370 370 370>
VStem: 209 182<61 89 41 109> 230 140<495 698 495 698>
LayerCount: 2
Fore
SplineSet
321 240 m 1xd0
 279 240 l 1
 230 495 l 1
 230 698 l 1
 370 698 l 1
 370 495 l 1
 321 240 l 1xd0
300 -11 m 0
 234 -11 209 21 209 61 c 2
 209 89 l 2
 209 129 234 161 300 161 c 0
 366 161 391 129 391 89 c 2
 391 61 l 2xe0
 391 21 366 -11 300 -11 c 0
EndSplineSet
Validated: 1
EndChar

StartChar: questiondown
Encoding: 191 191 109
Width: 600
GlyphClass: 1
Flags: MW
HStem: -194 110<282 341 282 373.5> 355 172<286 352>
VStem: 78 136<-26 4 4 18 -26 64.5> 228 182<427 455 407 475> 261 122<208 288 134 288>
LayerCount: 2
Fore
SplineSet
306 -194 m 0xe8
 169 -194 78 -113 78 6 c 0
 78 123 166 191 261 208 c 1
 261 288 l 1
 383 288 l 1
 383 134 l 1
 279 130 214 98 214 18 c 2
 214 4 l 2
 214 -56 254 -84 310 -84 c 0
 372 -84 412 -44 426 11 c 1
 534 -33 l 1
 510 -116 441 -194 306 -194 c 0xe8
319 355 m 0
 253 355 228 387 228 427 c 2
 228 455 l 2
 228 495 253 527 319 527 c 0
 385 527 410 495 410 455 c 2
 410 427 l 2xf0
 410 387 385 355 319 355 c 0
EndSplineSet
Validated: 1
EndChar

StartChar: question
Encoding: 63 63 110
Width: 600
GlyphClass: 1
Flags: MW
HStem: -11 172<248 314> 600 110<259 318>
VStem: 190 182<61 89 41 109> 217 122<228 308 228 382> 386 136<498 512 512 542>
LayerCount: 2
Fore
SplineSet
339 228 m 1xd8
 217 228 l 1
 217 382 l 1
 321 386 386 418 386 498 c 2
 386 512 l 2
 386 572 346 600 290 600 c 0
 228 600 188 560 174 505 c 1
 66 549 l 1
 90 632 159 710 294 710 c 0
 431 710 522 629 522 510 c 0
 522 393 434 325 339 308 c 1
 339 228 l 1xd8
281 -11 m 0
 215 -11 190 21 190 61 c 2
 190 89 l 2
 190 129 215 161 281 161 c 0
 347 161 372 129 372 89 c 2
 372 61 l 2xe8
 372 21 347 -11 281 -11 c 0
EndSplineSet
Validated: 1
EndChar

StartChar: parenleft
Encoding: 40 40 111
Width: 600
GlyphClass: 1
Flags: MW
HStem: -138 898<391 519 391 519>
VStem: 183 110<213.5 263 263 359 178.5 408.5>
LayerCount: 2
Fore
SplineSet
183 311 m 0
 183 506 278 676 391 760 c 1
 519 760 l 1
 398 674 293 528 293 359 c 2
 293 263 l 2
 293 94 398 -52 519 -138 c 1
 391 -138 l 1
 278 -54 183 116 183 311 c 0
EndSplineSet
Validated: 1
EndChar

StartChar: parenright
Encoding: 41 41 112
Width: 600
GlyphClass: 1
Flags: MW
HStem: -138 898<81 209 81 209>
VStem: 307 110<263 359 359 408.5 213.5 443.5>
LayerCount: 2
Fore
SplineSet
417 311 m 0
 417 116 322 -54 209 -138 c 1
 81 -138 l 1
 202 -52 307 94 307 263 c 2
 307 359 l 2
 307 528 202 674 81 760 c 1
 209 760 l 1
 322 676 417 506 417 311 c 0
EndSplineSet
Validated: 1
EndChar

StartChar: bracketleft
Encoding: 91 91 113
Width: 600
GlyphClass: 1
Flags: MW
HStem: -138 88<299 506 299 506> 672 88<299 506 299 299>
VStem: 195 104<-50 672 -50 760 -50 760>
LayerCount: 2
Fore
SplineSet
506 -138 m 1
 195 -138 l 1
 195 760 l 1
 506 760 l 1
 506 672 l 1
 299 672 l 1
 299 -50 l 1
 506 -50 l 1
 506 -138 l 1
EndSplineSet
Validated: 1
EndChar

StartChar: bracketright
Encoding: 93 93 114
Width: 600
GlyphClass: 1
Flags: MW
HStem: -138 88<94 301 94 405 94 301> 672 88<94 301 94 405>
VStem: 301 104<-50 672 672 672>
LayerCount: 2
Fore
SplineSet
94 760 m 1
 405 760 l 1
 405 -138 l 1
 94 -138 l 1
 94 -50 l 1
 301 -50 l 1
 301 672 l 1
 94 672 l 1
 94 760 l 1
EndSplineSet
Validated: 1
EndChar

StartChar: braceleft
Encoding: 123 123 115
Width: 600
GlyphClass: 1
Flags: MW
HStem: -138 88<317 327 327 504> 267 88<96 183 96 183> 672 88<327 504 327 504 317 504>
VStem: 213 104<-38 6 -50 12 -50 46.5 610 616 616 660 660 672> 299 105<196.5 226.5 395.5 425.5>
CounterMasks: 1 e0
LayerCount: 2
Fore
SplineSet
504 -138 m 1xf0
 327 -138 l 2
 247 -138 213 -96 213 -38 c 2
 213 12 l 2xf0
 213 81 245 113 269 142 c 0
 292 168 299 186 299 207 c 0
 299 246 259 267 183 267 c 2
 96 267 l 1
 96 355 l 1
 183 355 l 2
 259 355 299 376 299 415 c 0xe8
 299 436 292 454 269 480 c 0
 245 509 213 541 213 610 c 2
 213 660 l 2
 213 718 247 760 327 760 c 2
 504 760 l 1
 504 672 l 1
 317 672 l 1
 317 616 l 2xf0
 317 564 336 542 357 515 c 0
 380 487 404 456 404 414 c 0
 404 359 365 323 289 314 c 1
 289 308 l 1
 365 299 404 263 404 208 c 0xe8
 404 166 380 135 357 107 c 0
 336 80 317 58 317 6 c 2
 317 -50 l 1
 504 -50 l 1
 504 -138 l 1xf0
EndSplineSet
Validated: 1
EndChar

StartChar: braceright
Encoding: 125 125 116
Width: 600
GlyphClass: 1
Flags: MW
HStem: -138 88<96 273 96 283> 267 88<379 504 417 504> 672 88<96 273 273 283 96 273>
VStem: 196 105<196.5 226.5 196.5 235.5 395.5 425.5> 283 104<-50 -38 -38 6 6 12 -67 32 616 660>
CounterMasks: 1 e0
LayerCount: 2
Fore
SplineSet
96 760 m 1xe8
 273 760 l 2
 353 760 387 718 387 660 c 2
 387 610 l 2xe8
 387 541 355 509 331 480 c 0
 308 454 301 436 301 415 c 0
 301 376 341 355 417 355 c 2
 504 355 l 1
 504 267 l 1
 417 267 l 2
 341 267 301 246 301 207 c 0xf0
 301 186 308 168 331 142 c 0
 355 113 387 81 387 12 c 2
 387 -38 l 2
 387 -96 353 -138 273 -138 c 2
 96 -138 l 1
 96 -50 l 1
 283 -50 l 1
 283 6 l 2xe8
 283 58 264 80 243 107 c 0
 220 135 196 166 196 208 c 0
 196 263 235 299 311 308 c 1
 311 314 l 1
 235 323 196 359 196 414 c 0xf0
 196 456 220 487 243 515 c 0
 264 542 283 564 283 616 c 2
 283 672 l 1
 96 672 l 1
 96 760 l 1xe8
EndSplineSet
Validated: 1
EndChar

StartChar: slash
Encoding: 47 47 117
Width: 600
GlyphClass: 1
Flags: MW
HStem: -138 898<78 522 78 522>
VStem: 78 444
LayerCount: 2
Fore
SplineSet
193 -138 m 1
 78 -138 l 1
 407 760 l 1
 522 760 l 1
 193 -138 l 1
EndSplineSet
Validated: 1
EndChar

StartChar: backslash
Encoding: 92 92 118
Width: 600
GlyphClass: 1
Flags: MW
HStem: -138 898<78 522 78 407>
VStem: 78 444
LayerCount: 2
Fore
SplineSet
522 -138 m 1
 407 -138 l 1
 78 760 l 1
 193 760 l 1
 522 -138 l 1
EndSplineSet
Validated: 1
EndChar

StartChar: fraction
Encoding: 8260 8260 119
Width: 600
GlyphClass: 1
Flags: MW
HStem: 0 21G<6 6 6 100> 678 20G<500 594 594 594>
VStem: 6 588
LayerCount: 2
Fore
SplineSet
331 398 m 1
 500 698 l 1
 594 698 l 1
 425 398 l 1
 331 398 l 1
6 0 m 1
 175 300 l 1
 269 300 l 1
 100 0 l 1
 6 0 l 1
EndSplineSet
Validated: 1
EndChar

StartChar: uni2215
Encoding: 8725 8725 120
Width: 600
GlyphClass: 1
Flags: MW
HStem: 0 21G<6 6 6 100> 678 20G<500 594 594 594>
VStem: 6 588
LayerCount: 2
Fore
SplineSet
331 398 m 1
 500 698 l 1
 594 698 l 1
 425 398 l 1
 331 398 l 1
6 0 m 1
 175 300 l 1
 269 300 l 1
 100 0 l 1
 6 0 l 1
EndSplineSet
Validated: 1
EndChar

StartChar: percent
Encoding: 37 37 121
Width: 600
GlyphClass: 1
Flags: MW
HStem: -12 77<413 455 413 481.5> 0 21G<7 7 7 108> 277 77<413 455> 344 77<145 187 145 213.5> 633 77<145 187> 678 20G<492 593 593 593>
VStem: 12 93<478.5 504 504 550 478.5 584.5> 227 93<504 550 550 575.5> 280 93<122.5 148 148 194 122.5 228.5> 495 93<148 194 194 219.5>
LayerCount: 2
Fore
SplineSet
166 344 m 0x9b40
 71 344 12 412 12 527 c 0
 12 642 71 710 166 710 c 0
 261 710 320 642 320 527 c 0
 320 412 261 344 166 344 c 0x9b40
166 421 m 0
 208 421 227 453 227 504 c 2
 227 550 l 2
 227 601 208 633 166 633 c 0
 124 633 105 601 105 550 c 2
 105 504 l 2
 105 453 124 421 166 421 c 0
339 398 m 1
 492 698 l 1
 593 698 l 1x5740
 439 398 l 1
 339 398 l 1
7 0 m 1
 161 300 l 1
 261 300 l 1
 108 0 l 1
 7 0 l 1
434 -12 m 0xaac0
 339 -12 280 56 280 171 c 0
 280 286 339 354 434 354 c 0
 529 354 588 286 588 171 c 0
 588 56 529 -12 434 -12 c 0xaac0
434 65 m 0
 476 65 495 97 495 148 c 2
 495 194 l 2
 495 245 476 277 434 277 c 0
 392 277 373 245 373 194 c 2
 373 148 l 2
 373 97 392 65 434 65 c 0
EndSplineSet
Validated: 1
EndChar

StartChar: perthousand
Encoding: 8240 8240 122
Width: 600
GlyphClass: 1
Flags: MW
HStem: -12 70<235 271 235 272 437 473> 228 70<235 271 437 473> 400 70<127 163 127 191> 640 70<127 163>
VStem: 0 89<518 536 536 574 518 603.5> 108 89<106 124 124 162 106 191> 201 89<536 574 574 592> 309 90<124 162 106 180> 511 89<124 162 162 180>
LayerCount: 2
Fore
SplineSet
145 400 m 0
 53 400 0 459 0 555 c 0
 0 652 53 710 145 710 c 0
 237 710 290 652 290 555 c 0
 290 459 237 400 145 400 c 0
145 470 m 0
 181 470 201 500 201 536 c 2
 201 574 l 2
 201 610 181 640 145 640 c 0
 109 640 89 610 89 574 c 2
 89 536 l 2
 89 500 109 470 145 470 c 0
80 277 m 1
 60 339 l 1
 518 491 l 1
 538 429 l 1
 80 277 l 1
251 -12 m 0
 162 -12 108 47 108 143 c 0
 108 239 162 298 251 298 c 0
 293 298 329 280 350 251 c 1
 358 251 l 1
 379 280 415 298 457 298 c 0
 546 298 600 239 600 143 c 0
 600 47 546 -12 457 -12 c 0
 415 -12 379 6 358 35 c 1
 350 35 l 1
 329 6 293 -12 251 -12 c 0
253 58 m 0
 289 58 309 88 309 124 c 2
 309 162 l 2
 309 198 289 228 253 228 c 0
 217 228 197 198 197 162 c 2
 197 124 l 2
 197 88 217 58 253 58 c 0
455 58 m 0
 491 58 511 88 511 124 c 2
 511 162 l 2
 511 198 491 228 455 228 c 0
 419 228 399 198 399 162 c 2
 399 124 l 2
 399 88 419 58 455 58 c 0
EndSplineSet
Validated: 1
EndChar

StartChar: bar
Encoding: 124 124 123
Width: 600
GlyphClass: 1
Flags: MW
HStem: -138 898<245 355 245 355>
VStem: 245 110<-138 760>
LayerCount: 2
Fore
SplineSet
355 -138 m 1
 245 -138 l 1
 245 760 l 1
 355 760 l 1
 355 -138 l 1
EndSplineSet
Validated: 1
EndChar

StartChar: brokenbar
Encoding: 166 166 124
Width: 600
GlyphClass: 1
Flags: MW
HStem: -138 898<245 355 245 355>
VStem: 245 110<-138 221 401 760>
LayerCount: 2
Fore
SplineSet
355 401 m 1
 245 401 l 1
 245 760 l 1
 355 760 l 1
 355 401 l 1
355 -138 m 1
 245 -138 l 1
 245 221 l 1
 355 221 l 1
 355 -138 l 1
EndSplineSet
Validated: 1
EndChar

StartChar: section
Encoding: 167 167 125
Width: 600
GlyphClass: 1
Flags: MW
HStem: -170 94<263.5 320.5 263.5 352> 616 94<285.5 342.5>
VStem: 70 110<264.5 277.5> 102 112<522 564.5 522 590> 392 112<-24 19> 426 110<140 323 262.5 275.5>
LayerCount: 2
Fore
SplineSet
504 3 m 0xe8
 504 -102 416 -170 288 -170 c 0
 222 -170 151 -152 96 -102 c 1
 162 -24 l 1
 195 -57 238 -76 289 -76 c 0
 352 -76 392 -47 392 -1 c 0
 392 39 361 60 299 76 c 2
 225 97 l 2
 111 128 70 186 70 248 c 0
 70 307 107 357 180 387 c 1
 180 400 l 1xe8
 126 434 102 482 102 537 c 0
 102 643 190 710 318 710 c 0
 384 710 455 692 510 643 c 1
 444 564 l 1
 410 597 368 616 317 616 c 0
 254 616 214 587 214 542 c 0
 214 502 245 480 307 464 c 2
 381 443 l 2
 495 412 536 354 536 292 c 0
 536 233 500 183 426 153 c 1
 426 140 l 1xd4
 480 106 504 58 504 3 c 0xe8
426 255 m 0xe4
 426 296 403 327 332 346 c 2
 260 366 l 2
 248 369 237 373 227 377 c 1
 197 350 180 321 180 285 c 0
 180 244 203 213 274 194 c 2
 346 174 l 2
 358 171 369 167 379 163 c 1
 409 190 426 219 426 255 c 0xe4
EndSplineSet
Validated: 1
EndChar

StartChar: paragraph
Encoding: 182 182 126
Width: 600
GlyphClass: 1
Flags: MW
HStem: 597 101<359 432 359 359>
VStem: 253 106<-149 246 246 246 -149 698> 432 106<-149 597 597 597>
LayerCount: 2
Fore
SplineSet
253 -149 m 1
 253 246 l 1
 129 246 28 341 28 472 c 0
 28 603 129 698 253 698 c 2
 538 698 l 1
 538 -149 l 1
 432 -149 l 1
 432 597 l 1
 359 597 l 1
 359 -149 l 1
 253 -149 l 1
EndSplineSet
Validated: 1
EndChar

StartChar: copyright
Encoding: 169 169 127
Width: 600
GlyphClass: 1
Flags: MW
HStem: 18 55<231.5 368.5 231.5 383.5> 158 83<287.5 329 287.5 349> 457 83<287.5 326.5> 625 55<231.5 368.5>
VStem: 0 63<250.5 319 319 379 250.5 451> 133 107<293 315 315 383 293 407> 537 63<319 379 379 447.5>
LayerCount: 2
Fore
SplineSet
300 18 m 0
 133 18 0 145 0 349 c 0
 0 553 133 680 300 680 c 0
 467 680 600 553 600 349 c 0
 600 145 467 18 300 18 c 0
300 73 m 0
 437 73 537 182 537 319 c 2
 537 379 l 2
 537 516 437 625 300 625 c 0
 163 625 63 516 63 379 c 2
 63 319 l 2
 63 182 163 73 300 73 c 0
308 158 m 0
 201 158 133 234 133 349 c 0
 133 465 204 540 308 540 c 0
 384 540 430 500 453 444 c 1
 378 405 l 1
 364 437 344 457 309 457 c 0
 266 457 240 427 240 383 c 2
 240 315 l 2
 240 271 265 241 310 241 c 0
 348 241 369 263 385 293 c 1
 459 254 l 1
 436 202 390 158 308 158 c 0
EndSplineSet
Validated: 1
EndChar

StartChar: registered
Encoding: 174 174 128
Width: 600
GlyphClass: 1
Flags: MW
HStem: 346 41<261.5 338.5 261.5 351> 495 37<275 303 275 299> 582 39<275 303 275 275> 669 41<261.5 338.5>
VStem: 117 48<478.5 518 518 538 478.5 580> 225 50<436 495 532 582> 329 53<553 561 561 567.5> 435 48<518 538 538 577.5>
LayerCount: 2
Fore
SplineSet
300 346 m 0
 198 346 117 424 117 528 c 0
 117 632 198 710 300 710 c 0
 402 710 483 632 483 528 c 0
 483 424 402 346 300 346 c 0
300 387 m 0
 377 387 435 439 435 518 c 2
 435 538 l 2
 435 617 377 669 300 669 c 0
 223 669 165 617 165 538 c 2
 165 518 l 2
 165 439 223 387 300 387 c 0
275 495 m 1
 275 436 l 1
 225 436 l 1
 225 621 l 1
 315 621 l 2
 360 621 382 596 382 560 c 0
 382 533 369 514 347 504 c 1
 388 436 l 1
 333 436 l 1
 299 495 l 1
 275 495 l 1
275 532 m 1
 303 532 l 2
 319 532 329 540 329 553 c 2
 329 561 l 2
 329 574 319 582 303 582 c 2
 275 582 l 1
 275 532 l 1
EndSplineSet
Validated: 1
EndChar

StartChar: trademark
Encoding: 8482 8482 129
Width: 600
GlyphClass: 1
Flags: MW
HStem: 642 56<14 88 14 238 164 164 164 238>
VStem: 88 76<412 642> 265 65<412 518> 484 65<412 518 518 518>
LayerCount: 2
Fore
SplineSet
164 412 m 1
 88 412 l 1
 88 642 l 1
 14 642 l 1
 14 698 l 1
 238 698 l 1
 238 642 l 1
 164 642 l 1
 164 412 l 1
330 412 m 1
 265 412 l 1
 265 698 l 1
 348 698 l 1
 407 583 l 1
 412 583 l 1
 471 698 l 1
 549 698 l 1
 549 412 l 1
 484 412 l 1
 484 518 l 1
 490 608 l 1
 486 608 l 1
 407 459 l 1
 328 608 l 1
 324 608 l 1
 330 518 l 1
 330 412 l 1
EndSplineSet
Validated: 1
EndChar

StartChar: ordfeminine
Encoding: 170 170 130
Width: 600
GlyphClass: 1
Flags: MW
HStem: 337 63<257.5 272.5> 345 69<407.5 481 442 481 442 481> 498 54<288 289 289 350> 641 69<259.5 306>
VStem: 129 90<427.5 441 441 454 427.5 479.5> 350 92<456 498 498 498 552 572 572 576 414 595>
LayerCount: 2
Fore
SplineSet
481 345 m 1x7c
 429 345 l 2x7c
 386 345 362 367 358 406 c 1
 354 406 l 1
 341 364 301 337 244 337 c 0xbc
 173 337 129 377 129 443 c 0
 129 516 185 552 288 552 c 2
 350 552 l 1
 350 572 l 2
 350 618 330 641 282 641 c 0
 237 641 210 621 192 594 c 1
 140 640 l 1
 162 678 212 710 291 710 c 0
 385 710 442 664 442 576 c 2
 442 414 l 1
 481 414 l 1
 481 345 l 1x7c
350 498 m 1
 289 498 l 2
 244 498 219 483 219 454 c 2
 219 441 l 2
 219 414 240 400 275 400 c 0xbc
 316 400 350 420 350 456 c 2
 350 498 l 1
EndSplineSet
Validated: 1
EndChar

StartChar: ordmasculine
Encoding: 186 186 131
Width: 600
GlyphClass: 1
Flags: MW
HStem: 338 70<275 325 275 354.5> 640 70<275 325>
VStem: 125 96<468 495 495 553 468 581.5> 379 96<495 553 553 580>
LayerCount: 2
Fore
SplineSet
300 338 m 0
 191 338 125 409 125 524 c 0
 125 639 191 710 300 710 c 0
 409 710 475 639 475 524 c 0
 475 409 409 338 300 338 c 0
300 408 m 0
 350 408 379 441 379 495 c 2
 379 553 l 2
 379 607 350 640 300 640 c 0
 250 640 221 607 221 553 c 2
 221 495 l 2
 221 441 250 408 300 408 c 0
EndSplineSet
Validated: 1
EndChar

StartChar: degree
Encoding: 176 176 132
Width: 600
GlyphClass: 1
Flags: MW
HStem: 344 86<272.5 327.5 272.5 351.5> 624 86<272.5 327.5>
VStem: 117 92<499.5 554.5 499.5 579> 391 92<499.5 554.5>
LayerCount: 2
Fore
SplineSet
300 344 m 0
 197 344 117 423 117 527 c 0
 117 631 197 710 300 710 c 0
 403 710 483 631 483 527 c 0
 483 423 403 344 300 344 c 0
300 430 m 0
 355 430 391 472 391 527 c 0
 391 582 355 624 300 624 c 0
 245 624 209 582 209 527 c 0
 209 472 245 430 300 430 c 0
EndSplineSet
Validated: 1
EndChar

StartChar: uni2032
Encoding: 8242 8242 133
Width: 600
GlyphClass: 1
Flags: MW
HStem: 356 342<272 328 212 388>
VStem: 212 176
LayerCount: 2
Fore
SplineSet
328 356 m 1
 212 356 l 1
 272 698 l 1
 388 698 l 1
 328 356 l 1
EndSplineSet
Validated: 1
EndChar

StartChar: uni2033
Encoding: 8243 8243 134
Width: 600
GlyphClass: 1
Flags: MW
HStem: 356 342<166 222 106 282 166 317 377 433>
VStem: 106 176 317 176
LayerCount: 2
Fore
SplineSet
222 356 m 1
 106 356 l 1
 166 698 l 1
 282 698 l 1
 222 356 l 1
433 356 m 1xa0
 317 356 l 1
 377 698 l 1
 493 698 l 1
 433 356 l 1xa0
EndSplineSet
Validated: 1
EndChar

StartChar: asterisk
Encoding: 42 42 135
Width: 600
GlyphClass: 1
Flags: MW
HStem: 44 505<186 356 244 414>
VStem: 34 532<322 322>
LayerCount: 2
Fore
SplineSet
300 200 m 1
 186 44 l 1
 96 105 l 1
 213 261 l 1
 34 322 l 1
 67 422 l 1
 244 360 l 1
 244 549 l 1
 356 549 l 1
 356 360 l 1
 533 422 l 1
 566 322 l 1
 387 261 l 1
 504 105 l 1
 414 44 l 1
 300 200 l 1
EndSplineSet
Validated: 1
EndChar

StartChar: dagger
Encoding: 8224 8224 136
Width: 600
GlyphClass: 1
Flags: MW
HStem: -200 21G<245 355 245 245> 421 95<64 245 64 245 355 536> 720 20G<245 355 355 355>
VStem: 245 110<-200 421 516 740>
LayerCount: 2
Fore
SplineSet
355 -200 m 1
 245 -200 l 1
 245 421 l 1
 64 421 l 1
 64 516 l 1
 245 516 l 1
 245 740 l 1
 355 740 l 1
 355 516 l 1
 536 516 l 1
 536 421 l 1
 355 421 l 1
 355 -200 l 1
EndSplineSet
Validated: 1
EndChar

StartChar: daggerdbl
Encoding: 8225 8225 137
Width: 600
GlyphClass: 1
Flags: MW
HStem: -200 21G<245 355 245 245> 24 95<64 245 64 245 355 536> 421 95<64 245 64 245 355 536> 720 20G<245 355 355 355>
VStem: 245 110<-200 24 119 421 516 740>
LayerCount: 2
Fore
SplineSet
355 -200 m 1
 245 -200 l 1
 245 24 l 1
 64 24 l 1
 64 119 l 1
 245 119 l 1
 245 421 l 1
 64 421 l 1
 64 516 l 1
 245 516 l 1
 245 740 l 1
 355 740 l 1
 355 516 l 1
 536 516 l 1
 536 421 l 1
 355 421 l 1
 355 119 l 1
 536 119 l 1
 536 24 l 1
 355 24 l 1
 355 -200 l 1
EndSplineSet
Validated: 1
EndChar

StartChar: numbersign
Encoding: 35 35 138
Width: 600
GlyphClass: 1
Flags: MW
HStem: 0 21G<91 91 91 195 282 386 282 282> 201 96<11 126 11 144 439 551> 401 96<49 161 49 179 474 589> 678 20G<214 318 318 318 405 509 509 509>
VStem: 11 578<201 497 297 497>
LayerCount: 2
Fore
SplineSet
91 0 m 1
 126 201 l 1
 11 201 l 1
 11 297 l 1
 144 297 l 1
 161 401 l 1
 49 401 l 1
 49 497 l 1
 179 497 l 1
 214 698 l 1
 318 698 l 1
 195 0 l 1
 91 0 l 1
282 0 m 1
 405 698 l 1
 509 698 l 1
 474 497 l 1
 589 497 l 1
 589 401 l 1
 456 401 l 1
 439 297 l 1
 551 297 l 1
 551 201 l 1
 421 201 l 1
 386 0 l 1
 282 0 l 1
EndSplineSet
Validated: 1
Substitution2: "'salt' Stylistic Alternatives lookup 23 subtable" numbersign.alt01
Substitution2: "'ss06' Style Set 6 lookup 21 subtable" numbersign.alt01
Substitution2: "'aalt' Access All Alternates lookup 0 subtable" numbersign.alt01
EndChar

StartChar: numbersign.alt01
Encoding: 65554 -1 139
Width: 600
GlyphClass: 1
Flags: MW
HStem: 0 21G<91 91 91 188 289 289 289 386> 200 91<11 126 11 142 11 223 239 324 437 552> 407 91<48 163 48 179 48 260 276 361 474 589> 678 20G<214 311 311 311 412 509 509 509>
VStem: 11 578<200 498 291 498>
LayerCount: 2
Fore
SplineSet
91 0 m 1
 126 200 l 1
 11 200 l 1
 11 291 l 1
 142 291 l 1
 163 407 l 1
 48 407 l 1
 48 498 l 1
 179 498 l 1
 214 698 l 1
 311 698 l 1
 276 498 l 1
 377 498 l 1
 412 698 l 1
 509 698 l 1
 474 498 l 1
 589 498 l 1
 589 407 l 1
 458 407 l 1
 437 291 l 1
 552 291 l 1
 552 200 l 1
 421 200 l 1
 386 0 l 1
 289 0 l 1
 324 200 l 1
 223 200 l 1
 188 0 l 1
 91 0 l 1
239 291 m 1
 340 291 l 1
 361 407 l 1
 260 407 l 1
 239 291 l 1
EndSplineSet
Validated: 1
EndChar

StartChar: asciicircum
Encoding: 94 94 140
Width: 600
GlyphClass: 1
Flags: MW
HStem: 253 445<129 368 232 466>
VStem: 32 536<300 300>
LayerCount: 2
Fore
SplineSet
568 300 m 1
 466 253 l 1
 302 582 l 1
 293 582 l 1
 129 253 l 1
 32 300 l 1
 232 698 l 1
 368 698 l 1
 568 300 l 1
EndSplineSet
Validated: 1
EndChar

StartChar: asciitilde
Encoding: 126 126 141
Width: 600
GlyphClass: 1
Flags: MW
HStem: 180 107<386.5 419.5 386.5 447> 322 107<180.5 213.5>
VStem: 41 518<209 400>
LayerCount: 2
Fore
SplineSet
395 180 m 0
 342 180 305 208 271 254 c 0
 243 291 227 322 200 322 c 0
 161 322 146 266 133 191 c 1
 41 209 l 1
 59 335 101 429 205 429 c 0
 258 429 295 401 329 355 c 0
 357 318 373 287 400 287 c 0
 439 287 454 343 467 418 c 1
 559 400 l 1
 541 274 499 180 395 180 c 0
EndSplineSet
Validated: 1
EndChar

StartChar: plus
Encoding: 43 43 142
Width: 600
GlyphClass: 1
Flags: MW
HStem: 254 103<62 244 62 244 356 538>
VStem: 244 112<62 254 357 549>
LayerCount: 2
Fore
SplineSet
356 62 m 1
 244 62 l 1
 244 254 l 1
 62 254 l 1
 62 357 l 1
 244 357 l 1
 244 549 l 1
 356 549 l 1
 356 357 l 1
 538 357 l 1
 538 254 l 1
 356 254 l 1
 356 62 l 1
EndSplineSet
Validated: 1
EndChar

StartChar: minus
Encoding: 8722 8722 143
Width: 600
GlyphClass: 1
Flags: MW
HStem: 254 103<62 538 62 538>
VStem: 62 476<254 357 254 357>
LayerCount: 2
Fore
SplineSet
538 254 m 1
 62 254 l 1
 62 357 l 1
 538 357 l 1
 538 254 l 1
EndSplineSet
Validated: 1
EndChar

StartChar: plusminus
Encoding: 177 177 144
Width: 600
GlyphClass: 1
Flags: MW
HStem: 0 104<62 538 62 538> 350 103<62 244 62 244 356 538>
VStem: 244 112<174 350 453 629>
LayerCount: 2
Fore
SplineSet
356 174 m 1
 244 174 l 1
 244 350 l 1
 62 350 l 1
 62 453 l 1
 244 453 l 1
 244 629 l 1
 356 629 l 1
 356 453 l 1
 538 453 l 1
 538 350 l 1
 356 350 l 1
 356 174 l 1
538 0 m 1
 62 0 l 1
 62 104 l 1
 538 104 l 1
 538 0 l 1
EndSplineSet
Validated: 1
EndChar

StartChar: multiply
Encoding: 215 215 145
Width: 600
GlyphClass: 1
Flags: MW
HStem: 80 450<150 150 150 450>
VStem: 75 450<155 155 155 455>
LayerCount: 2
Fore
SplineSet
450 80 m 1
 300 231 l 1
 150 80 l 1
 75 155 l 1
 226 305 l 1
 75 455 l 1
 150 530 l 1
 300 379 l 1
 450 530 l 1
 525 455 l 1
 374 305 l 1
 525 155 l 1
 450 80 l 1
EndSplineSet
Validated: 1
EndChar

StartChar: divide
Encoding: 247 247 146
Width: 600
GlyphClass: 1
Flags: MW
HStem: 36 149<271 329> 254 103<62 538 62 538> 426 149<271 329>
VStem: 220 160<99 122 81 139.5 489 512>
CounterMasks: 1 e0
LayerCount: 2
Fore
SplineSet
538 254 m 1
 62 254 l 1
 62 357 l 1
 538 357 l 1
 538 254 l 1
300 36 m 0
 242 36 220 63 220 99 c 2
 220 122 l 2
 220 157 242 185 300 185 c 0
 358 185 380 157 380 122 c 2
 380 99 l 2
 380 63 358 36 300 36 c 0
300 426 m 0
 242 426 220 454 220 489 c 2
 220 512 l 2
 220 547 242 575 300 575 c 0
 358 575 380 547 380 512 c 2
 380 489 l 2
 380 454 358 426 300 426 c 0
EndSplineSet
Validated: 1
EndChar

StartChar: equal
Encoding: 61 61 147
Width: 600
GlyphClass: 1
Flags: MW
HStem: 143 103<62 538 62 538> 364 103<62 538 62 538>
VStem: 62 476<143 246 143 246 364 467 143 467>
LayerCount: 2
Fore
SplineSet
538 364 m 1
 62 364 l 1
 62 467 l 1
 538 467 l 1
 538 364 l 1
538 143 m 1
 62 143 l 1
 62 246 l 1
 538 246 l 1
 538 143 l 1
EndSplineSet
Validated: 1
EndChar

StartChar: approxequal
Encoding: 8776 8776 148
Width: 600
GlyphClass: 1
Flags: MW
HStem: 108 106<390 415 384 447.5> 176 106<185 210 152.5 216> 328 106<390 415 384 447.5> 396 106<185 210 152.5 216>
VStem: 41 518<142 248 248 362>
LayerCount: 2
Fore
SplineSet
409 328 m 0x68
 371 328 333 342 291 363 c 0
 257 380 230 396 202 396 c 0x58
 168 396 150 371 133 328 c 1x68
 41 362 l 1
 61 444 114 502 191 502 c 0x58
 229 502 267 488 309 467 c 0
 343 450 370 434 398 434 c 0x68
 432 434 450 459 467 502 c 1x58
 559 468 l 1
 539 386 486 328 409 328 c 0x68
409 108 m 0
 371 108 333 122 291 143 c 0
 257 160 230 176 202 176 c 0x68
 168 176 150 151 133 108 c 1xa8
 41 142 l 1
 61 224 114 282 191 282 c 0x68
 229 282 267 268 309 247 c 0
 343 230 370 214 398 214 c 0xa8
 432 214 450 239 467 282 c 1x68
 559 248 l 1
 539 166 486 108 409 108 c 0
EndSplineSet
Validated: 1
EndChar

StartChar: notequal
Encoding: 8800 8800 149
Width: 600
GlyphClass: 1
Flags: MW
HStem: 143 103<62 158 62 216 62 267 319 538> 364 103<62 281 62 333 62 384 442 538>
VStem: 62 476<143 246 143 246 364 467 143 467>
LayerCount: 2
Fore
SplineSet
214 46 m 1
 105 46 l 1
 158 143 l 1
 62 143 l 1
 62 246 l 1
 216 246 l 1
 281 364 l 1
 62 364 l 1
 62 467 l 1
 333 467 l 1
 386 564 l 1
 495 564 l 1
 442 467 l 1
 538 467 l 1
 538 364 l 1
 384 364 l 1
 319 246 l 1
 538 246 l 1
 538 143 l 1
 267 143 l 1
 214 46 l 1
EndSplineSet
Validated: 1
EndChar

StartChar: less
Encoding: 60 60 150
Width: 600
GlyphClass: 1
Flags: MW
HStem: 9 592<515 515>
VStem: 85 430<9 365 9 365>
LayerCount: 2
Fore
SplineSet
515 9 m 1
 85 245 l 1
 85 365 l 1
 515 601 l 1
 515 479 l 1
 201 309 l 1
 201 301 l 1
 515 131 l 1
 515 9 l 1
EndSplineSet
Validated: 1
EndChar

StartChar: greater
Encoding: 62 62 151
Width: 600
GlyphClass: 1
Flags: MW
HStem: 9 592<85 85>
VStem: 85 430<9 365 131 365 245 601 245 601>
LayerCount: 2
Fore
SplineSet
85 9 m 1
 85 131 l 1
 399 301 l 1
 399 309 l 1
 85 479 l 1
 85 601 l 1
 515 365 l 1
 515 245 l 1
 85 9 l 1
EndSplineSet
Validated: 1
EndChar

StartChar: lessequal
Encoding: 8804 8804 152
Width: 600
GlyphClass: 1
Flags: MW
HStem: 0 102<85 515 85 515>
VStem: 85 430<0 102 0 102 0 427 0 427>
LayerCount: 2
Fore
SplineSet
515 0 m 1
 85 0 l 1
 85 102 l 1
 515 102 l 1
 515 0 l 1
515 594 m 1
 515 481 l 1
 207 368 l 1
 207 361 l 1
 515 247 l 1
 515 137 l 1
 85 304 l 1
 85 427 l 1
 515 594 l 1
EndSplineSet
Validated: 1
EndChar

StartChar: greaterequal
Encoding: 8805 8805 153
Width: 600
GlyphClass: 1
Flags: MW
HStem: 0 102<85 515 85 515>
VStem: 85 430<0 102 0 102 0 250 0 250 0 594>
LayerCount: 2
Fore
SplineSet
85 137 m 1
 85 250 l 1
 393 363 l 1
 393 370 l 1
 85 484 l 1
 85 594 l 1
 515 427 l 1
 515 304 l 1
 85 137 l 1
85 0 m 1
 85 102 l 1
 515 102 l 1
 515 0 l 1
 85 0 l 1
EndSplineSet
Validated: 1
EndChar

StartChar: uni2219
Encoding: 8729 8729 154
Width: 600
GlyphClass: 1
Flags: MW
HStem: 213 182<265.5 334.5>
VStem: 204 192<289 319 268 340>
LayerCount: 2
Fore
SplineSet
300 213 m 0
 231 213 204 247 204 289 c 2
 204 319 l 2
 204 361 231 395 300 395 c 0
 369 395 396 361 396 319 c 2
 396 289 l 2
 396 247 369 213 300 213 c 0
EndSplineSet
Validated: 1
EndChar

StartChar: periodcentered
Encoding: 183 183 155
Width: 600
GlyphClass: 1
Flags: MW
HStem: 213 182<265.5 334.5>
VStem: 204 192<289 319 268 340>
LayerCount: 2
Fore
SplineSet
300 213 m 0
 231 213 204 247 204 289 c 2
 204 319 l 2
 204 361 231 395 300 395 c 0
 369 395 396 361 396 319 c 2
 396 289 l 2
 396 247 369 213 300 213 c 0
EndSplineSet
Validated: 1
EndChar

StartChar: bullet
Encoding: 8226 8226 156
Width: 600
GlyphClass: 1
Flags: MW
HStem: 165 278<247 353>
VStem: 156 288<288 320 253 355>
LayerCount: 2
Fore
SplineSet
300 165 m 0
 194 165 156 218 156 288 c 2
 156 320 l 2
 156 390 194 443 300 443 c 0
 406 443 444 390 444 320 c 2
 444 288 l 2
 444 218 406 165 300 165 c 0
EndSplineSet
Validated: 1
EndChar

StartChar: uni2236
Encoding: 8758 8758 157
Width: 600
GlyphClass: 1
Flags: MW
HStem: -11 182<265.5 334.5> 344 182<265.5 334.5>
VStem: 204 192<65 95 44 116 420 450>
LayerCount: 2
Fore
SplineSet
300 -11 m 0
 231 -11 204 23 204 65 c 2
 204 95 l 2
 204 137 231 171 300 171 c 0
 369 171 396 137 396 95 c 2
 396 65 l 2
 396 23 369 -11 300 -11 c 0
300 344 m 0x60
 231 344 204 378 204 420 c 2
 204 450 l 2
 204 492 231 526 300 526 c 0
 369 526 396 492 396 450 c 2
 396 420 l 2
 396 378 369 344 300 344 c 0x60
EndSplineSet
Validated: 1
EndChar

StartChar: lozenge
Encoding: 9674 9674 158
Width: 600
GlyphClass: 1
Flags: MW
HStem: 0 21G<250 350 250 250> 678 20G<250 350 350 350>
VStem: 32 536<349 349>
LayerCount: 2
Fore
SplineSet
350 0 m 1
 250 0 l 1
 32 349 l 1
 250 698 l 1
 350 698 l 1
 568 349 l 1
 350 0 l 1
297 109 m 1
 303 109 l 1
 451 349 l 1
 303 589 l 1
 297 589 l 1
 149 349 l 1
 297 109 l 1
EndSplineSet
Validated: 1
EndChar

StartChar: logicalnot
Encoding: 172 172 159
Width: 600
GlyphClass: 1
Flags: MW
HStem: 254 103<62 416 62 522>
VStem: 416 106<61 254 254 254>
LayerCount: 2
Fore
SplineSet
522 61 m 1
 416 61 l 1
 416 254 l 1
 62 254 l 1
 62 357 l 1
 522 357 l 1
 522 61 l 1
EndSplineSet
Validated: 1
EndChar

StartChar: radical
Encoding: 8730 8730 160
Width: 600
GlyphClass: 1
Flags: MW
HStem: 0 94<302 309 302 383 225 309> 410 106<18 104 18 189> 678 20G<479 589 589 589>
VStem: 18 571<410 698 516 698>
LayerCount: 2
Fore
SplineSet
383 0 m 1
 225 0 l 1
 104 410 l 1
 18 410 l 1
 18 516 l 1
 189 516 l 1
 242 329 l 1
 302 94 l 1
 309 94 l 1
 373 329 l 1
 479 698 l 1
 589 698 l 1
 383 0 l 1
EndSplineSet
Validated: 1
EndChar

StartChar: integral
Encoding: 8747 8747 161
Width: 600
GlyphClass: 1
Flags: MW
HStem: -200 101<30 223 30 206> 639 101<368 544 368 544 351 544>
VStem: 223 128<-99 -60 -60 600 600 639>
LayerCount: 2
Fore
SplineSet
30 -200 m 1
 30 -99 l 1
 223 -99 l 1
 223 600 l 2
 223 682 269 740 368 740 c 2
 544 740 l 1
 544 639 l 1
 351 639 l 1
 351 -60 l 2
 351 -142 304 -200 206 -200 c 2
 30 -200 l 1
EndSplineSet
Validated: 1
EndChar

StartChar: infinity
Encoding: 8734 8734 162
Width: 600
GlyphClass: 1
Flags: MW
HStem: 126 90<154.5 188 407 445.5> 394 90<154.5 193 412 445.5>
VStem: 11 104<267.5 292 292 318 267.5 361.5> 485 104<292 318 318 342.5>
LayerCount: 2
Fore
SplineSet
160 126 m 0
 65 126 11 192 11 305 c 0
 11 418 69 484 168 484 c 0
 236 484 287 446 316 354 c 1
 320 354 l 1
 333 443 384 484 440 484 c 0
 535 484 589 418 589 305 c 0
 589 192 531 126 432 126 c 0
 364 126 313 164 284 256 c 1
 280 256 l 1
 267 167 216 126 160 126 c 0
171 216 m 0
 215 216 245 251 260 297 c 1
 242 351 215 394 171 394 c 0
 138 394 115 367 115 318 c 2
 115 292 l 2
 115 243 138 216 171 216 c 0
429 216 m 0
 462 216 485 243 485 292 c 2
 485 318 l 2
 485 367 462 394 429 394 c 0
 385 394 355 359 340 313 c 1
 358 259 385 216 429 216 c 0
EndSplineSet
Validated: 1
EndChar

StartChar: uni212E
Encoding: 8494 8494 163
Width: 600
GlyphClass: 1
Flags: MW
HStem: -12 53<273.5 349.5 273.5 362.5> 349 48<173 427 173 427 173 574> 659 51<273.5 326.5>
VStem: 26 147<245.5 349 397 452.5> 427 147<397 452.5 349 611>
LayerCount: 2
Fore
SplineSet
173 349 m 1
 173 92 l 1
 199 64 247 41 300 41 c 0
 399 41 458 98 500 177 c 1
 548 150 l 1
 500 61 425 -12 300 -12 c 0
 134 -12 26 142 26 349 c 0
 26 556 134 710 300 710 c 0
 466 710 574 556 574 349 c 1
 173 349 l 1
173 397 m 1
 427 397 l 1
 427 611 l 1
 399 639 353 659 300 659 c 0
 247 659 201 639 173 611 c 1
 173 397 l 1
EndSplineSet
Validated: 1
EndChar

StartChar: uni2113
Encoding: 8467 8467 164
Width: 600
GlyphClass: 1
Flags: MW
HStem: -12 110<309 353 309 382> 640 112<301.5 330.5>
VStem: 140 122<160 165 165 165 357 549 549 554> 365 118<557 569 569 594.5>
LayerCount: 2
Fore
SplineSet
328 -12 m 0
 215 -12 140 54 140 160 c 2
 140 165 l 1
 129 157 110 145 98 138 c 1
 43 226 l 1
 78 246 116 272 140 289 c 1
 140 549 l 2
 140 696 214 752 313 752 c 0
 423 752 483 684 483 569 c 0
 483 441 409 344 262 226 c 1
 262 184 l 2
 262 123 288 98 330 98 c 0
 376 98 402 126 440 202 c 1
 542 149 l 1
 502 49 436 -12 328 -12 c 0
316 640 m 0
 287 640 262 618 262 554 c 2
 262 357 l 1
 325 416 365 480 365 557 c 2
 365 569 l 2
 365 620 345 640 316 640 c 0
EndSplineSet
Validated: 1
EndChar

StartChar: uni2116
Encoding: 8470 8470 165
Width: 600
GlyphClass: 1
Flags: MW
HStem: 0 97<174 252 242 252 242 334> 235 71<371 589 371 589> 332 69<463 497 463 523> 601 97<107 117 107 107> 637 69<463 497>
VStem: 25 82<0 601> 252 82<97 698 0 698> 365 76<456 474 474 564> 519 76<474 564 564 582 456 587>
LayerCount: 2
Fore
SplineSet
480 332 m 0xb280
 394 332 365 393 365 519 c 0
 365 645 394 706 480 706 c 0x0b
 566 706 595 645 595 519 c 0
 595 393 566 332 480 332 c 0xb280
107 0 m 1
 25 0 l 1
 25 698 l 1
 185 698 l 1
 219 359 l 1xb6
 242 97 l 1
 252 97 l 1
 252 698 l 1
 334 698 l 1
 334 0 l 1
 174 0 l 1x0e
 140 339 l 1
 117 601 l 1
 107 601 l 1
 107 0 l 1
480 401 m 0xb280
 514 401 519 428 519 474 c 2
 519 564 l 2
 519 610 514 637 480 637 c 0x0e
 446 637 441 610 441 564 c 2
 441 474 l 2xb3
 441 428 446 401 480 401 c 0xb280
589 235 m 1
 371 235 l 1
 371 306 l 1
 589 306 l 1
 589 235 l 1
EndSplineSet
Validated: 1
EndChar

StartChar: partialdiff
Encoding: 8706 8706 166
Width: 600
GlyphClass: 1
Flags: MW
HStem: -12 98<263.5 336.5 263.5 377.5> 405 99<263.5 290.5 191 336.5> 678 20G<108 300 300 300>
VStem: 49 132<173 215 215 276 173 328> 419 133<215 276 276 318 175.5 411>
LayerCount: 2
Fore
SplineSet
552 273 m 0
 552 78 452 -12 303 -12 c 0
 144 -12 49 89 49 252 c 0
 49 404 130 504 252 504 c 0
 329 504 379 465 411 408 c 1
 419 411 l 1
 379 524 266 615 108 698 c 1
 300 698 l 1
 418 627 552 501 552 273 c 0
300 86 m 0
 373 86 419 131 419 215 c 2
 419 276 l 2
 419 360 373 405 300 405 c 0
 227 405 181 360 181 276 c 2
 181 215 l 2
 181 131 227 86 300 86 c 0
EndSplineSet
Validated: 1
EndChar

StartChar: currency
Encoding: 164 164 167
Width: 600
GlyphClass: 1
Flags: MW
HStem: 111 95<283 317> 492 95<283 317 283 330.5>
VStem: 71 130<315.5 320 320 378 283 382.5> 399 130<320 378 378 382.5 315.5 415>
LayerCount: 2
Fore
SplineSet
300 111 m 0
 266 111 235 116 208 126 c 1
 144 17 l 1
 55 69 l 1
 123 186 l 1
 90 226 71 282 71 349 c 0
 71 416 90 472 123 512 c 1
 55 629 l 1
 144 681 l 1
 208 572 l 1
 235 582 266 587 300 587 c 0
 334 587 365 582 392 572 c 1
 456 681 l 1
 545 629 l 1
 477 512 l 1
 510 472 529 416 529 349 c 0
 529 282 510 226 477 186 c 1
 545 69 l 1
 456 17 l 1
 392 126 l 1
 365 116 334 111 300 111 c 0
300 206 m 0
 361 206 399 246 399 320 c 2
 399 378 l 2
 399 452 361 492 300 492 c 0
 239 492 201 452 201 378 c 2
 201 320 l 2
 201 246 239 206 300 206 c 0
EndSplineSet
Validated: 1
EndChar

StartChar: cent
Encoding: 162 162 168
Width: 600
GlyphClass: 1
Flags: MW
HStem: -9 99<356 363> 425 100<356 363>
VStem: 67 125<185.5 215 215 301 185.5 330.5> 264 99<-114 -9 525 630>
LayerCount: 2
Fore
SplineSet
363 -114 m 1
 264 -114 l 1
 264 -7 l 1
 140 14 67 113 67 258 c 0
 67 403 140 502 264 523 c 1
 264 630 l 1
 363 630 l 1
 363 525 l 1
 446 514 498 468 527 404 c 1
 433 353 l 1
 419 386 393 414 356 425 c 1
 356 90 l 1
 397 101 426 129 444 165 c 1
 535 112 l 1
 505 49 449 2 363 -9 c 1
 363 -114 l 1
192 215 m 2
 192 156 219 110 272 93 c 1
 272 423 l 1
 220 407 192 361 192 301 c 2
 192 215 l 2
EndSplineSet
Validated: 1
EndChar

StartChar: Euro
Encoding: 8364 8364 169
Width: 600
GlyphClass: 1
Flags: MW
HStem: -12 105<296 368.5 296 399> 226 84<193 417 193 193> 388 84<193 417 193 417 188 417> 605 105<296 368.5>
VStem: 53 135<310 388 310 463.5>
LayerCount: 2
Fore
SplineSet
332 -12 m 0
 153 -12 53 120 53 349 c 0
 53 578 153 710 332 710 c 0
 466 710 522 645 563 579 c 1
 465 517 l 1
 438 572 401 605 336 605 c 0
 256 605 209 555 193 472 c 1
 417 472 l 1
 417 388 l 1
 188 388 l 1
 188 310 l 1
 417 310 l 1
 417 226 l 1
 193 226 l 1
 209 143 256 93 336 93 c 0
 401 93 438 126 465 181 c 1
 563 119 l 1
 522 53 466 -12 332 -12 c 0
EndSplineSet
Validated: 1
EndChar

StartChar: florin
Encoding: 402 402 170
Width: 600
GlyphClass: 1
Flags: MW
HStem: -200 101<-48 161 -32 136> 337 101<81 234 64 251 379 538> 597 101<430 598 405 615>
VStem: -48 663
LayerCount: 2
Fore
SplineSet
-48 -200 m 1
 -32 -99 l 1
 161 -99 l 1
 234 337 l 1
 64 337 l 1
 81 438 l 1
 251 438 l 1
 272 567 l 2
 286 649 332 698 430 698 c 2
 615 698 l 1
 598 597 l 1
 405 597 l 1
 379 438 l 1
 554 438 l 1
 538 337 l 1
 361 337 l 1
 294 -69 l 2
 280 -151 234 -200 136 -200 c 2
 -48 -200 l 1
EndSplineSet
Validated: 1
EndChar

StartChar: sterling
Encoding: 163 163 171
Width: 600
GlyphClass: 1
Flags: MW
HStem: 0 114<203 548 203 548> 274 98<48 121 48 152 48 121 281 281 281 434> 597 113<301.5 367>
VStem: 90 133<477 521.5 463 564> 154 129<222 255>
LayerCount: 2
Fore
SplineSet
548 0 m 1xe8
 71 0 l 1
 71 127 l 1
 125 150 154 193 154 251 c 0xe8
 154 259 153 267 152 274 c 1
 48 274 l 1
 48 372 l 1
 121 372 l 1
 105 411 90 452 90 502 c 0
 90 626 187 710 334 710 c 0
 437 710 507 669 556 602 c 1
 468 524 l 1
 435 568 398 597 336 597 c 0
 267 597 223 559 223 484 c 0xf0
 223 442 237 407 251 372 c 1
 434 372 l 1
 434 274 l 1
 281 274 l 1
 282 270 283 262 283 257 c 0
 283 185 240 142 203 122 c 1
 203 114 l 1
 548 114 l 1
 548 0 l 1xe8
EndSplineSet
Validated: 1
EndChar

StartChar: dollar
Encoding: 36 36 172
Width: 600
GlyphClass: 1
Flags: MW
HStem: -7 106<352 359> 599 108<261 268>
VStem: 59 123<486.5 536 486.5 563> 261 98<-113 -11 -11 -11 708 811> 441 122<171 224.5>
LayerCount: 2
Fore
SplineSet
261 -113 m 1
 261 -11 l 1
 158 -3 84 39 37 101 c 1
 116 182 l 1
 160 133 210 105 268 98 c 1
 268 305 l 1
 245 309 l 2
 114 332 59 409 59 507 c 0
 59 619 133 692 261 707 c 1
 261 811 l 1
 359 811 l 1
 359 708 l 1
 445 698 506 663 549 610 c 1
 470 529 l 1
 440 565 401 588 352 596 c 1
 352 406 l 1
 377 402 l 2
 507 378 563 305 563 206 c 0
 563 94 490 13 359 -7 c 1
 359 -113 l 1
 261 -113 l 1
182 511 m 0
 182 462 207 437 268 423 c 1
 268 599 l 1
 210 591 182 561 182 511 c 0
441 198 m 0
 441 251 414 276 352 289 c 1
 352 99 l 1
 411 109 441 144 441 198 c 0
EndSplineSet
Validated: 1
EndChar

StartChar: yen
Encoding: 165 165 173
Width: 600
GlyphClass: 1
Flags: MW
HStem: 0 100<62 238 62 238 362 538> 231 100<62 176 62 238 62 176 424 538> 678 20G<7 144 144 144 460 593 593 593>
VStem: 238 124<100 231 100 231>
LayerCount: 2
Fore
SplineSet
62 0 m 1
 62 100 l 1
 238 100 l 1
 238 231 l 1
 62 231 l 1
 62 331 l 1
 176 331 l 1
 7 698 l 1
 144 698 l 1
 298 331 l 1
 306 331 l 1
 460 698 l 1
 593 698 l 1
 424 331 l 1
 538 331 l 1
 538 231 l 1
 362 231 l 1
 362 100 l 1
 538 100 l 1
 538 0 l 1
 62 0 l 1
EndSplineSet
Validated: 1
EndChar

StartChar: uni0E3F
Encoding: 3647 3647 174
Width: 600
GlyphClass: 1
Flags: MW
HStem: 0 95<71 341 341 356 341 348> 310 89<190 257 190 257> 604 94<190 250 71 257 190 190>
VStem: 71 119<94 94 94 310 399 604> 250 98<-113 0 -113 0 698 811> 415 126<484 519 519 544> 433 126<182 222 222 241.5 137 251>
LayerCount: 2
Fore
SplineSet
348 0 m 1xfa
 348 -113 l 1
 250 -113 l 1
 250 0 l 1
 71 0 l 1
 71 698 l 1
 250 698 l 1
 250 811 l 1
 348 811 l 1
 348 698 l 1
 349 698 l 2
 469 695 541 621 541 514 c 0xfc
 541 432 499 385 427 364 c 1
 427 360 l 1
 508 339 559 288 559 195 c 0
 559 79 480 0 356 0 c 2
 348 0 l 1xfa
190 399 m 1
 257 399 l 1
 257 604 l 1
 190 604 l 1
 190 399 l 1
341 601 m 1
 341 402 l 1
 390 408 415 434 415 484 c 2
 415 519 l 2
 415 569 390 595 341 601 c 1
190 94 m 1
 257 94 l 1
 257 310 l 1
 190 310 l 1
 190 94 l 1
341 309 m 1
 341 95 l 1
 401 98 433 124 433 182 c 2
 433 222 l 2xfa
 433 280 401 306 341 309 c 1
EndSplineSet
Validated: 1
EndChar

StartChar: uni20A1
Encoding: 8353 8353 175
Width: 600
GlyphClass: 1
Flags: MW
HStem: -11 99<300 320 310 312> 611 99<316 325>
VStem: 50 124<265 289 289 409 260 448>
LayerCount: 2
Fore
SplineSet
304 -113 m 1
 312 -11 l 1
 311 -11 310 -11 309 -11 c 0
 291 -11 274 -9 259 -6 c 1
 251 -113 l 1
 183 -113 l 1
 193 17 l 1
 96 66 50 181 50 349 c 0
 50 547 114 671 248 702 c 1
 257 811 l 1
 324 811 l 1
 316 710 l 1
 337 710 354 709 370 706 c 1
 378 811 l 1
 445 811 l 1
 435 687 l 1
 492 661 533 614 560 549 c 1
 460 502 l 1
 451 527 440 549 425 565 c 1
 387 105 l 1
 422 121 444 153 460 196 c 1
 560 149 l 1
 525 65 468 10 380 -7 c 1
 372 -113 l 1
 304 -113 l 1
317 611 m 0
 314 611 311 611 307 610 c 2
 266 96 l 1
 279 91 294 88 310 88 c 0
 311 88 319 88 320 88 c 2
 363 605 l 1
 348 609 333 611 317 611 c 0
174 289 m 2
 174 231 183 181 205 146 c 1
 241 590 l 1
 193 558 174 494 174 409 c 2
 174 289 l 2
EndSplineSet
Validated: 1
EndChar

StartChar: uni20A4
Encoding: 8356 8356 176
Width: 600
GlyphClass: 1
Flags: MW
HStem: 0 114<203 548 203 548> 203 82<50 144 50 151 281 421> 357 82<50 98 50 128 50 98 259 259 259 421> 597 113<301.5 367>
VStem: 90 133<490.5 521.5 475.5 564> 151 130<285 285>
LayerCount: 2
Fore
SplineSet
548 114 m 1xf4
 548 0 l 1
 71 0 l 1
 71 127 l 1
 108 142 133 169 144 203 c 1
 50 203 l 1
 50 285 l 1
 151 285 l 1xf4
 147 310 138 334 128 357 c 1
 50 357 l 1
 50 439 l 1
 98 439 l 1
 93 458 90 479 90 502 c 0
 90 626 187 710 334 710 c 0
 437 710 507 669 556 602 c 1
 468 524 l 1
 435 568 398 597 336 597 c 0
 267 597 223 559 223 484 c 0xf8
 223 467 225 453 228 439 c 1
 421 439 l 1
 421 357 l 1
 259 357 l 1
 268 335 277 311 281 285 c 1
 421 285 l 1
 421 203 l 1
 272 203 l 1
 258 163 229 136 203 122 c 1
 203 114 l 1
 548 114 l 1xf4
EndSplineSet
Validated: 1
EndChar

StartChar: uni20A6
Encoding: 8358 8358 177
Width: 600
GlyphClass: 1
Flags: MW
HStem: 0 117<418 427 418 525 356 427> 235 85<24 75 24 75 525 576> 378 85<24 75 24 75 525 576> 581 117<173 182 173 173>
VStem: 75 98<0 235 235 235 320 378 378 378 463 581> 427 98<117 235 320 378 463 698>
LayerCount: 2
Fore
SplineSet
525 378 m 1
 525 320 l 1
 576 320 l 1
 576 235 l 1
 525 235 l 1
 525 0 l 1
 356 0 l 1
 284 241 l 1
 173 241 l 1
 173 0 l 1
 75 0 l 1
 75 235 l 1
 24 235 l 1
 24 320 l 1
 75 320 l 1
 75 378 l 1
 24 378 l 1
 24 463 l 1
 75 463 l 1
 75 698 l 1
 244 698 l 1
 316 457 l 1
 427 457 l 1
 427 698 l 1
 525 698 l 1
 525 463 l 1
 576 463 l 1
 576 378 l 1
 525 378 l 1
173 314 m 1
 263 314 l 1
 182 581 l 1
 173 581 l 1
 173 314 l 1
337 384 m 1
 418 117 l 1
 427 117 l 1
 427 384 l 1
 337 384 l 1
EndSplineSet
Validated: 1
EndChar

StartChar: uni20A8
Encoding: 8360 8360 178
Width: 600
GlyphClass: 1
Flags: MW
HStem: -12 89<406.5 448 406.5 479.5> 0 21G<41 148 41 41> 322 89<148 170 148 184> 389 87<493.5 513.5 455.5 516.5> 606 92<148 184 148 148>
VStem: 41 107<0 322 411 606> 254 109<486 531 531 557> 360 105<334 361.5 334 384.5> 484 105<108 137.5>
LayerCount: 2
Fore
SplineSet
148 0 m 1x6e80
 41 0 l 1
 41 698 l 1
 184 698 l 2
 302 698 363 630 363 514 c 0x6e80
 363 439 335 374 274 344 c 1
 341 155 l 2
 359 105 383 77 430 77 c 0
 466 77 484 92 484 124 c 0
 484 151 472 167 445 194 c 2
 428 210 l 2
 386 253 360 290 360 344 c 0
 360 425 414 476 497 476 c 0
 530 476 566 467 595 447 c 1
 559 370 l 1
 543 382 526 389 507 389 c 0
 480 389 465 376 465 347 c 0
 465 321 477 306 505 277 c 2
 520 262 l 2
 563 219 589 184 589 126 c 0
 589 44 538 -12 421 -12 c 0x9d80
 331 -12 270 22 239 118 c 2
 170 322 l 1
 148 322 l 1
 148 0 l 1x6e80
148 411 m 1
 184 411 l 2
 233 411 254 434 254 486 c 2
 254 531 l 2
 254 583 233 606 184 606 c 2
 148 606 l 1
 148 411 l 1
EndSplineSet
Validated: 1
EndChar

StartChar: uni20A9
Encoding: 8361 8361 179
Width: 600
GlyphClass: 1
Flags: MW
HStem: 0 87<168 191 168 248 83 191 412 434> 263 84<13 72 13 74 13 72 528 587> 426 84<13 67 13 69 13 67 533 587> 678 20G<60 171 171 171 432 540 540 540>
VStem: 13 574<263 347 263 347 426 510 263 510>
LayerCount: 2
Fore
SplineSet
531 426 m 1
 528 347 l 1
 587 347 l 1
 587 263 l 1
 526 263 l 1
 517 0 l 1
 352 0 l 1
 311 432 l 1
 289 432 l 1
 248 0 l 1
 83 0 l 1
 74 263 l 1
 13 263 l 1
 13 347 l 1
 72 347 l 1
 69 426 l 1
 13 426 l 1
 13 510 l 1
 67 510 l 1
 60 698 l 1
 171 698 l 1
 172 503 l 1
 431 503 l 1
 432 698 l 1
 540 698 l 1
 533 510 l 1
 587 510 l 1
 587 426 l 1
 531 426 l 1
168 87 m 1
 191 87 l 1
 225 432 l 1
 167 432 l 1
 168 87 l 1
412 87 m 1
 434 87 l 1
 436 432 l 1
 378 432 l 1
 412 87 l 1
EndSplineSet
Validated: 1
EndChar

StartChar: uni20AA
Encoding: 8362 8362 180
Width: 600
GlyphClass: 1
Flags: MW
HStem: 0 82<277 361 361 374> 616 82<136 222 136 136>
VStem: 42 94<0 616> 188 89<82 537 82 537 82 537> 327 89<161 500 161 504 161 545> 468 94<194 198 198 698>
LayerCount: 2
Fore
SplineSet
188 0 m 1
 188 537 l 1
 277 537 l 1
 277 82 l 1
 361 82 l 2
 417 82 468 112 468 194 c 2
 468 698 l 1
 562 698 l 1
 562 198 l 2
 562 65 484 0 374 0 c 2
 188 0 l 1
136 0 m 1
 42 0 l 1
 42 698 l 1
 229 698 l 2
 339 698 416 633 416 500 c 2
 416 161 l 1
 327 161 l 1
 327 504 l 2
 327 586 278 616 222 616 c 2
 136 616 l 1
 136 0 l 1
EndSplineSet
Validated: 1
EndChar

StartChar: uni20AB
Encoding: 8363 8363 181
Width: 600
GlyphClass: 1
Flags: MW
HStem: 0 95<82 535 82 535> 148 93<263.5 281.5> 457 92<263.5 281.5 193.5 323.5> 594 92<255 389 255 389 509 565> 720 20G<389 509 509 509>
VStem: 74 125<305.5 332 332 365 305.5 416> 389 120<158 240 240 240 313 385 385 404 458 594 158 594 686 740>
LayerCount: 2
Fore
SplineSet
389 158 m 1
 389 240 l 1
 383 240 l 1
 359 188 319 148 244 148 c 0
 143 148 74 213 74 348 c 0
 74 484 143 549 244 549 c 0
 319 549 359 509 383 458 c 1
 389 458 l 1
 389 594 l 1
 255 594 l 1
 255 686 l 1
 389 686 l 1
 389 740 l 1
 509 740 l 1
 509 686 l 1
 565 686 l 1
 565 594 l 1
 509 594 l 1
 509 158 l 1
 389 158 l 1
295 241 m 0
 352 241 389 274 389 313 c 2
 389 385 l 2
 389 423 352 457 295 457 c 0
 232 457 199 419 199 365 c 2
 199 332 l 2
 199 279 232 241 295 241 c 0
535 0 m 1
 82 0 l 1
 82 95 l 1
 535 95 l 1
 535 0 l 1
EndSplineSet
Validated: 1
EndChar

StartChar: uni20AD
Encoding: 8365 8365 182
Width: 600
GlyphClass: 1
Flags: MW
HStem: 0 21G<78 209 78 78 441 441 441 589> 305 105<22 78 22 78 209 253 395 395 395 552> 678 20G<78 209 209 209 432 573 573 573>
VStem: 78 131<0 305 0 305 410 698>
LayerCount: 2
Fore
SplineSet
209 305 m 1
 209 0 l 1
 78 0 l 1
 78 305 l 1
 22 305 l 1
 22 410 l 1
 78 410 l 1
 78 698 l 1
 209 698 l 1
 209 410 l 1
 253 410 l 1
 432 698 l 1
 573 698 l 1
 386 410 l 1
 552 410 l 1
 552 305 l 1
 395 305 l 1
 589 0 l 1
 441 0 l 1
 253 305 l 1
 209 305 l 1
EndSplineSet
Validated: 1
EndChar

StartChar: uni20AE
Encoding: 8366 8366 183
Width: 600
GlyphClass: 1
Flags: MW
HStem: 0 21G<237 363 237 237> 594 104<25 237 25 575 363 363 363 575>
VStem: 237 126<0 134 134 134 0 281 281 311 311 311 457 594>
LayerCount: 2
Fore
SplineSet
495 248 m 1
 363 190 l 1
 363 0 l 1
 237 0 l 1
 237 134 l 1
 105 75 l 1
 105 166 l 1
 237 225 l 1
 237 311 l 1
 105 252 l 1
 105 343 l 1
 237 402 l 1
 237 594 l 1
 25 594 l 1
 25 698 l 1
 575 698 l 1
 575 594 l 1
 363 594 l 1
 363 457 l 1
 495 516 l 1
 495 425 l 1
 363 367 l 1
 363 281 l 1
 495 339 l 1
 495 248 l 1
EndSplineSet
Validated: 1
EndChar

StartChar: uni20B1
Encoding: 8369 8369 184
Width: 600
GlyphClass: 1
Flags: MW
HStem: 0 21G<78 202 78 78> 178 87<202 302 202 302 302 320> 324 85<26 78 26 78 527 577> 468 85<26 78 26 78 527 527 527 577> 612 86<202 202 202 302>
VStem: 78 124<0 178 265 324 324 324 409 468 468 468 553 612> 401 126<409 468 409 472 409 472>
LayerCount: 2
Fore
SplineSet
202 178 m 1
 202 0 l 1
 78 0 l 1
 78 324 l 1
 26 324 l 1
 26 409 l 1
 78 409 l 1
 78 468 l 1
 26 468 l 1
 26 553 l 1
 78 553 l 1
 78 698 l 1
 320 698 l 2
 425 698 489 652 515 553 c 1
 577 553 l 1
 577 468 l 1
 527 468 l 1
 527 457 527 421 527 409 c 1
 577 409 l 1
 577 324 l 1
 515 324 l 1
 490 224 425 178 320 178 c 2
 202 178 l 1
202 612 m 1
 202 550 l 1
 397 550 l 1
 386 592 359 612 302 612 c 2
 202 612 l 1
202 406 m 1
 401 406 l 1
 401 472 l 1
 202 472 l 1
 202 406 l 1
202 265 m 1
 302 265 l 2
 360 265 387 286 397 328 c 1
 202 328 l 1
 202 265 l 1
EndSplineSet
Validated: 1
EndChar

StartChar: uni20B2
Encoding: 8370 8370 185
Width: 600
GlyphClass: 1
Flags: MW
HStem: -12 101<298 311 298 311> 271 94<347 425 333 538> 608 101<254.5 307 298 307>
VStem: 41 130<258.5 289 289 409 247 463.5> 425 113<221 237 237 271 271 271>
LayerCount: 2
Fore
SplineSet
183 -113 m 1
 201 5 l 1
 93 48 41 168 41 349 c 0
 41 578 124 709 300 709 c 0
 302 709 304 709 307 709 c 2
 322 811 l 1
 423 811 l 1
 405 693 l 1
 470 667 510 613 534 540 c 1
 435 502 l 1
 424 536 409 565 381 585 c 1
 347 365 l 1
 538 365 l 1
 538 237 l 2
 538 90 455 -12 306 -12 c 0
 303 -12 301 -12 298 -12 c 2
 283 -113 l 1
 183 -113 l 1
223 116 m 1
 300 608 l 1
 299 608 299 608 298 608 c 0
 211 608 171 534 171 409 c 2
 171 289 l 2
 171 205 188 147 223 116 c 1
311 89 m 0
 388 89 425 146 425 221 c 2
 425 271 l 1
 333 271 l 1
 306 89 l 1
 308 89 308 89 311 89 c 0
EndSplineSet
Validated: 1
EndChar

StartChar: uni20B4
Encoding: 8372 8372 186
Width: 600
GlyphClass: 1
Flags: MW
HStem: -12 101<281.5 338 281.5 353.5> 237 77<27 103 27 152 27 224 302 573> 404 77<27 300 27 373 491 573> 607 103<265.5 319>
VStem: 92 119<155 189.5> 382 118<528 549.5>
LayerCount: 2
Fore
SplineSet
307 -12 m 0
 168 -12 92 72 92 178 c 0
 92 201 96 221 103 237 c 1
 27 237 l 1
 27 314 l 1
 152 314 l 1
 300 399 l 1
 300 404 l 1
 27 404 l 1
 27 481 l 1
 373 481 l 1
 379 492 382 504 382 521 c 0
 382 578 348 607 290 607 c 0
 241 607 201 587 166 549 c 1
 98 626 l 1
 146 680 216 710 296 710 c 0
 424 710 500 634 500 539 c 0
 500 517 497 496 491 481 c 1
 573 481 l 1
 573 404 l 1
 450 404 l 1
 302 319 l 1
 302 314 l 1
 573 314 l 1
 573 237 l 1
 224 237 l 1
 215 222 211 205 211 185 c 0
 211 125 249 89 314 89 c 0
 362 89 408 109 459 162 c 1
 527 85 l 1
 478 25 400 -12 307 -12 c 0
EndSplineSet
Validated: 1
EndChar

StartChar: uni20B5
Encoding: 8373 8373 187
Width: 600
GlyphClass: 1
Flags: MW
HStem: -12 100<318.5 320 318.5 387.5> 610 100<305 313>
VStem: 50 130<260.5 289 289 409 250.5 463>
LayerCount: 2
Fore
SplineSet
189 -113 m 1
 207 9 l 1
 101 54 50 172 50 349 c 0
 50 577 135 706 311 710 c 1
 313 710 l 1
 328 811 l 1
 428 811 l 1
 410 696 l 1
 487 670 528 609 551 541 c 1
 448 505 l 1
 435 541 419 573 387 592 c 1
 310 89 l 1
 314 88 317 88 320 88 c 0
 395 89 425 143 443 207 c 1
 556 175 l 1
 526 66 457 -12 318 -12 c 0
 313 -12 308 -11 303 -11 c 1
 288 -113 l 1
 189 -113 l 1
230 121 m 1
 305 610 l 1
 223 602 180 539 180 409 c 2
 180 289 l 2
 180 212 196 154 230 121 c 1
EndSplineSet
Validated: 1
EndChar

StartChar: uni20B8
Encoding: 8376 8376 188
Width: 600
GlyphClass: 1
Flags: MW
HStem: 0 21G<235 365 235 235> 432 94<45 235 45 555 365 555 365 365> 604 94<45 555 45 555>
VStem: 235 130<0 432 0 432>
LayerCount: 2
Fore
SplineSet
555 604 m 1
 45 604 l 1
 45 698 l 1
 555 698 l 1
 555 604 l 1
555 432 m 1
 365 432 l 1
 365 0 l 1
 235 0 l 1
 235 432 l 1
 45 432 l 1
 45 526 l 1
 555 526 l 1
 555 432 l 1
EndSplineSet
Validated: 1
EndChar

StartChar: uni20B9
Encoding: 8377 8377 189
Width: 600
GlyphClass: 1
Flags: MW
HStem: 0 21G<367 522 367 367> 259 98<49 172 49 185> 440 85<49 306 49 307 49 306 434 434 434 561> 601 97<49 185 49 561 357 357 357 561>
VStem: 307 127<440 440>
LayerCount: 2
Fore
SplineSet
522 0 m 1
 367 0 l 1
 172 259 l 1
 49 259 l 1
 49 357 l 1
 185 357 l 2
 253 357 304 380 307 440 c 1
 49 440 l 1
 49 525 l 1
 306 525 l 1
 300 578 250 601 185 601 c 2
 49 601 l 1
 49 698 l 1
 561 698 l 1
 561 601 l 1
 357 601 l 1
 357 596 l 1
 384 589 412 567 425 525 c 1
 561 525 l 1
 561 440 l 1
 434 440 l 1
 427 361 382 306 307 280 c 1
 522 0 l 1
EndSplineSet
Validated: 1
EndChar

StartChar: uni20BA
Encoding: 8378 8378 190
Width: 600
GlyphClass: 1
Flags: MW
HStem: 0 108<245 293 293 308> 678 20G<123 245 245 245>
VStem: 123 122<108 213 213 213 364 380 380 380 531 698> 447 124<235 305>
LayerCount: 2
Fore
SplineSet
123 0 m 1
 123 213 l 1
 44 177 l 1
 44 271 l 1
 123 307 l 1
 123 380 l 1
 44 344 l 1
 44 438 l 1
 123 474 l 1
 123 698 l 1
 245 698 l 1
 245 531 l 1
 413 608 l 1
 413 515 l 1
 245 438 l 1
 245 364 l 1
 413 441 l 1
 413 348 l 1
 245 271 l 1
 245 108 l 1
 293 108 l 2
 394 108 447 165 447 305 c 1
 571 305 l 1
 571 135 489 0 308 0 c 2
 123 0 l 1
EndSplineSet
Validated: 1
EndChar

StartChar: uni20BD
Encoding: 8381 8381 191
Width: 600
GlyphClass: 1
Flags: MW
HStem: 0 21G<103 234 103 103> 120 97<36 103 36 103 234 446> 281 97<36 103 36 103 234 326 326 353> 598 100<234 234 234 326>
VStem: 103 131<0 120 0 120 217 281 378 598> 426 136<468 508 508 539>
LayerCount: 2
Fore
SplineSet
446 120 m 1
 234 120 l 1
 234 0 l 1
 103 0 l 1
 103 120 l 1
 36 120 l 1
 36 217 l 1
 103 217 l 1
 103 281 l 1
 36 281 l 1
 36 378 l 1
 103 378 l 1
 103 698 l 1
 353 698 l 2
 488 698 562 617 562 489 c 0
 562 360 487 281 353 281 c 2
 234 281 l 1
 234 217 l 1
 446 217 l 1
 446 120 l 1
234 598 m 1
 234 378 l 1
 326 378 l 2
 396 378 426 406 426 468 c 2
 426 508 l 2
 426 570 396 598 326 598 c 2
 234 598 l 1
EndSplineSet
Validated: 1
EndChar

StartChar: uni20BF
Encoding: 8383 8383 192
Width: 600
GlyphClass: 1
Flags: MW
HStem: 0 92<80 309 251 309 309 315 251 251> 310 89<208 291 208 291 291 309> 606 92<80 208 251 291>
VStem: 80 128<92 310 399 606> 174 77<-113 0 -113 0 698 811> 315 77<-113 0 0 0 698 811> 395 134<487 519 519 550> 418 134<184 218 218 242 144 250.5>
LayerCount: 2
Fore
SplineSet
315 -113 m 1xf5
 315 0 l 1
 251 0 l 1
 251 -113 l 1
 174 -113 l 1
 174 0 l 1xed
 80 0 l 1
 80 698 l 1xf5
 174 698 l 1
 174 811 l 1
 251 811 l 1
 251 698 l 1
 315 698 l 1
 315 811 l 1
 392 811 l 1
 392 690 l 1
 480 669 529 605 529 514 c 0xee
 529 435 489 388 416 366 c 1
 416 361 l 1
 502 340 552 289 552 195 c 0
 552 93 491 20 392 3 c 1
 392 -113 l 1
 315 -113 l 1xf5
208 606 m 1xf6
 208 399 l 1
 291 399 l 2
 361 399 395 425 395 487 c 2
 395 519 l 2
 395 581 361 606 291 606 c 2
 208 606 l 1xf6
208 310 m 1
 208 92 l 1
 309 92 l 2
 382 92 418 119 418 184 c 2
 418 218 l 2xf5
 418 283 382 310 309 310 c 2
 208 310 l 1
EndSplineSet
Validated: 1
EndChar

StartChar: fi
Encoding: 64257 64257 193
Width: 600
GlyphClass: 3
Flags: MW
HStem: 0 21G<85 85 85 213 397 397 397 525> 415 101<33 85 33 85 213 397> 596 154<431 491> 639 101<229 331 229 331 213 331>
VStem: 85 128<0 415 0 415 516 600 600 639> 379 164<661 685 643 703> 397 128<0 415 415 415>
LayerCount: 2
Fore
SplineSet
85 0 m 1xda
 85 415 l 1
 33 415 l 1
 33 516 l 1
 85 516 l 1
 85 600 l 2
 85 682 131 740 229 740 c 2
 331 740 l 1
 331 639 l 1
 213 639 l 1
 213 516 l 1
 525 516 l 1
 525 0 l 1
 397 0 l 1
 397 415 l 1
 213 415 l 1
 213 0 l 1
 85 0 l 1xda
461 596 m 0xec
 401 596 379 625 379 661 c 2
 379 685 l 2
 379 721 401 750 461 750 c 0
 521 750 543 721 543 685 c 2
 543 661 l 2
 543 625 521 596 461 596 c 0xec
EndSplineSet
Validated: 1
EndChar

StartChar: fl
Encoding: 64258 64258 194
Width: 600
GlyphClass: 3
Flags: MW
HStem: 0 21G<85 85 85 213 397 525 397 397> 415 101<33 85 33 85 213 335> 639 101<229 335 229 335 213 335>
VStem: 85 128<0 415 0 415 516 600 600 639> 397 128<0 740 0 740>
LayerCount: 2
Fore
SplineSet
85 0 m 1
 85 415 l 1
 33 415 l 1
 33 516 l 1
 85 516 l 1
 85 600 l 2
 85 682 131 740 229 740 c 2
 335 740 l 1
 335 639 l 1
 213 639 l 1
 213 516 l 1
 335 516 l 1
 335 415 l 1
 213 415 l 1
 213 0 l 1
 85 0 l 1
397 0 m 1
 397 740 l 1
 525 740 l 1
 525 0 l 1
 397 0 l 1
EndSplineSet
Validated: 1
EndChar

StartChar: aacute
Encoding: 225 225 195
Width: 600
GlyphClass: 2
Flags: MW
HStem: -12 88<242.5 266> 0 96<459 565 504 565 504 565> 225 74<285 288 288 376> 432 96<241.5 309.5> 575 224<303 321>
VStem: 56 127<118.5 139 139 159 118.5 195> 226 203<612 745> 376 128<156 225 225 225 299 333 333 339 96 365.5>
AnchorPoint: "Anchor-1" 566 0 basechar 0
AnchorPoint: "Anchor-0" 289 0 basechar 0
LayerCount: 2
Fore
SplineSet
565 0 m 1x75
 490 0 l 2x75
 428 0 393 34 387 89 c 1
 382 89 l 1
 363 25 306 -12 226 -12 c 0xb5
 123 -12 56 46 56 143 c 0
 56 247 133 299 285 299 c 2
 376 299 l 1
 376 333 l 2
 376 398 345 432 274 432 c 0
 209 432 172 404 144 364 c 1
 71 426 l 1
 103 483 175 528 287 528 c 0
 422 528 504 463 504 339 c 2
 504 96 l 1
 565 96 l 1
 565 0 l 1x75
269 76 m 0xb5
 330 76 376 107 376 156 c 2
 376 225 l 1
 288 225 l 2
 218 225 183 202 183 159 c 2
 183 139 l 2
 183 98 216 76 269 76 c 0xb5
429 745 m 1x0a
 303 575 l 1
 226 612 l 1
 321 799 l 1
 429 745 l 1x0a
EndSplineSet
Validated: 1
Substitution2: "'salt' Stylistic Alternatives lookup 23 subtable" aacute.alt01
Substitution2: "'ss01' Style Set 1 lookup 16 subtable" aacute.alt01
Substitution2: "'aalt' Access All Alternates lookup 0 subtable" aacute.alt01
EndChar

StartChar: abreve
Encoding: 259 259 196
Width: 600
GlyphClass: 2
Flags: MW
HStem: -12 88<242.5 266> 0 96<459 565 504 565 504 565> 225 74<285 288 288 376> 432 96<241.5 309.5> 578 91<269.5 310.5 269.5 348>
VStem: 56 127<118.5 139 139 159 118.5 195> 106 368<742 742> 376 128<156 225 225 225 299 333 333 339 96 365.5>
AnchorPoint: "Anchor-1" 566 0 basechar 0
AnchorPoint: "Anchor-0" 289 0 basechar 0
LayerCount: 2
Fore
SplineSet
565 0 m 1x75
 490 0 l 2x75
 428 0 393 34 387 89 c 1
 382 89 l 1
 363 25 306 -12 226 -12 c 0xb5
 123 -12 56 46 56 143 c 0
 56 247 133 299 285 299 c 2
 376 299 l 1
 376 333 l 2
 376 398 345 432 274 432 c 0
 209 432 172 404 144 364 c 1
 71 426 l 1
 103 483 175 528 287 528 c 0
 422 528 504 463 504 339 c 2
 504 96 l 1
 565 96 l 1
 565 0 l 1x75
269 76 m 0xb5
 330 76 376 107 376 156 c 2
 376 225 l 1
 288 225 l 2
 218 225 183 202 183 159 c 2
 183 139 l 2
 183 98 216 76 269 76 c 0xb5
290 578 m 0x0a
 174 578 129 673 106 742 c 1
 180 778 l 1
 201 745 l 2
 232 697 249 669 290 669 c 0
 331 669 348 697 379 745 c 2
 400 778 l 1
 474 742 l 1
 451 673 406 578 290 578 c 0x0a
EndSplineSet
Validated: 1
Substitution2: "'salt' Stylistic Alternatives lookup 23 subtable" abreve.alt01
Substitution2: "'ss01' Style Set 1 lookup 16 subtable" abreve.alt01
Substitution2: "'aalt' Access All Alternates lookup 0 subtable" abreve.alt01
EndChar

StartChar: uni01CE
Encoding: 462 462 197
Width: 600
GlyphClass: 2
Flags: MW
HStem: -12 88<242.5 266> 0 96<459 565 504 565 504 565> 225 74<285 288 288 376> 432 96<241.5 309.5> 584 204<171 347 171 231>
VStem: 56 127<118.5 139 139 159 118.5 195> 105 368<739 739> 376 128<156 225 225 225 299 333 333 339 96 365.5>
AnchorPoint: "Anchor-1" 566 0 basechar 0
AnchorPoint: "Anchor-0" 289 0 basechar 0
LayerCount: 2
Fore
SplineSet
565 0 m 1x75
 490 0 l 2x75
 428 0 393 34 387 89 c 1
 382 89 l 1
 363 25 306 -12 226 -12 c 0xb5
 123 -12 56 46 56 143 c 0
 56 247 133 299 285 299 c 2
 376 299 l 1
 376 333 l 2
 376 398 345 432 274 432 c 0
 209 432 172 404 144 364 c 1
 71 426 l 1
 103 483 175 528 287 528 c 0
 422 528 504 463 504 339 c 2
 504 96 l 1
 565 96 l 1
 565 0 l 1x75
269 76 m 0xb5
 330 76 376 107 376 156 c 2
 376 225 l 1
 288 225 l 2
 218 225 183 202 183 159 c 2
 183 139 l 2
 183 98 216 76 269 76 c 0xb5
347 584 m 1x0a
 231 584 l 1
 105 739 l 1
 171 788 l 1
 291 673 l 1
 411 788 l 1
 473 739 l 1
 347 584 l 1x0a
EndSplineSet
Validated: 1
Substitution2: "'aalt' Access All Alternates lookup 0 subtable" uni01CE.alt01
EndChar

StartChar: acircumflex
Encoding: 226 226 198
Width: 600
GlyphClass: 2
Flags: MW
HStem: -12 88<242.5 266> 0 96<459 565 504 565 504 565> 225 74<285 288 288 376> 432 96<241.5 309.5> 576 204<168 348 232 408>
VStem: 56 127<118.5 139 139 159 118.5 195> 106 368<625 625> 376 128<156 225 225 225 299 333 333 339 96 365.5>
AnchorPoint: "Anchor-1" 566 0 basechar 0
AnchorPoint: "Anchor-0" 289 0 basechar 0
LayerCount: 2
Fore
SplineSet
565 0 m 1x75
 490 0 l 2x75
 428 0 393 34 387 89 c 1
 382 89 l 1
 363 25 306 -12 226 -12 c 0xb5
 123 -12 56 46 56 143 c 0
 56 247 133 299 285 299 c 2
 376 299 l 1
 376 333 l 2
 376 398 345 432 274 432 c 0
 209 432 172 404 144 364 c 1
 71 426 l 1
 103 483 175 528 287 528 c 0
 422 528 504 463 504 339 c 2
 504 96 l 1
 565 96 l 1
 565 0 l 1x75
269 76 m 0xb5
 330 76 376 107 376 156 c 2
 376 225 l 1
 288 225 l 2
 218 225 183 202 183 159 c 2
 183 139 l 2
 183 98 216 76 269 76 c 0xb5
232 780 m 1x0a
 348 780 l 1
 474 625 l 1
 408 576 l 1
 288 691 l 1
 168 576 l 1
 106 625 l 1
 232 780 l 1x0a
EndSplineSet
Validated: 1
Substitution2: "'salt' Stylistic Alternatives lookup 23 subtable" acircumflex.alt01
Substitution2: "'ss01' Style Set 1 lookup 16 subtable" acircumflex.alt01
Substitution2: "'aalt' Access All Alternates lookup 0 subtable" acircumflex.alt01
EndChar

StartChar: adieresis
Encoding: 228 228 199
Width: 600
GlyphClass: 2
Flags: MW
HStem: -12 88<242.5 266> 0 96<459 565 504 565 504 565> 225 74<285 288 288 376> 432 96<241.5 309.5> 599 138<158 212 368 422>
VStem: 56 127<118.5 139 139 159 118.5 195> 112 146<657 679 641 695> 322 146<657 679 641 695> 376 128<156 225 225 225 299 333 333 339 96 365.5>
AnchorPoint: "Anchor-1" 566 0 basechar 0
AnchorPoint: "Anchor-0" 289 0 basechar 0
LayerCount: 2
Fore
SplineSet
565 0 m 1x7480
 490 0 l 2x7480
 428 0 393 34 387 89 c 1
 382 89 l 1
 363 25 306 -12 226 -12 c 0xb480
 123 -12 56 46 56 143 c 0
 56 247 133 299 285 299 c 2
 376 299 l 1
 376 333 l 2
 376 398 345 432 274 432 c 0
 209 432 172 404 144 364 c 1
 71 426 l 1
 103 483 175 528 287 528 c 0
 422 528 504 463 504 339 c 2
 504 96 l 1
 565 96 l 1
 565 0 l 1x7480
269 76 m 0xb480
 330 76 376 107 376 156 c 2
 376 225 l 1
 288 225 l 2
 218 225 183 202 183 159 c 2
 183 139 l 2
 183 98 216 76 269 76 c 0xb480
185 599 m 0x0b
 131 599 112 625 112 657 c 2
 112 679 l 2
 112 711 131 737 185 737 c 0
 239 737 258 711 258 679 c 2
 258 657 l 2
 258 625 239 599 185 599 c 0x0b
395 599 m 0
 341 599 322 625 322 657 c 2
 322 679 l 2
 322 711 341 737 395 737 c 0
 449 737 468 711 468 679 c 2
 468 657 l 2
 468 625 449 599 395 599 c 0
EndSplineSet
Validated: 1
Substitution2: "'salt' Stylistic Alternatives lookup 23 subtable" adieresis.alt01
Substitution2: "'ss01' Style Set 1 lookup 16 subtable" adieresis.alt01
Substitution2: "'aalt' Access All Alternates lookup 0 subtable" adieresis.alt01
EndChar

StartChar: uni1EA1
Encoding: 7841 7841 200
Width: 600
GlyphClass: 2
Flags: MW
HStem: -194 138<261 315> -12 88<242.5 266> 0 96<459 565 504 565 504 565> 225 74<285 288 288 376> 432 96<241.5 309.5>
VStem: 56 127<118.5 139 139 159 118.5 195> 214 148<-136 -114 -152.5 -97.5> 376 128<156 225 225 225 299 333 333 339 96 365.5>
AnchorPoint: "Anchor-2" 289 516 basechar 0
AnchorPoint: "Anchor-1" 566 0 basechar 0
LayerCount: 2
Fore
SplineSet
565 0 m 1x3d
 490 0 l 2x3d
 428 0 393 34 387 89 c 1
 382 89 l 1
 363 25 306 -12 226 -12 c 0x5d
 123 -12 56 46 56 143 c 0
 56 247 133 299 285 299 c 2
 376 299 l 1
 376 333 l 2
 376 398 345 432 274 432 c 0
 209 432 172 404 144 364 c 1
 71 426 l 1
 103 483 175 528 287 528 c 0
 422 528 504 463 504 339 c 2
 504 96 l 1
 565 96 l 1
 565 0 l 1x3d
269 76 m 0x5d
 330 76 376 107 376 156 c 2
 376 225 l 1
 288 225 l 2
 218 225 183 202 183 159 c 2
 183 139 l 2
 183 98 216 76 269 76 c 0x5d
288 -194 m 0x82
 234 -194 214 -169 214 -136 c 2
 214 -114 l 2
 214 -81 234 -56 288 -56 c 0
 342 -56 362 -81 362 -114 c 2
 362 -136 l 2
 362 -169 342 -194 288 -194 c 0x82
EndSplineSet
Validated: 1
Substitution2: "'salt' Stylistic Alternatives lookup 23 subtable" uni1EA1.alt01
Substitution2: "'ss01' Style Set 1 lookup 16 subtable" uni1EA1.alt01
Substitution2: "'aalt' Access All Alternates lookup 0 subtable" uni1EA1.alt01
EndChar

StartChar: agrave
Encoding: 224 224 201
Width: 600
GlyphClass: 2
Flags: MW
HStem: -12 88<242.5 266> 0 96<459 565 504 565 504 565> 225 74<285 288 288 376> 432 96<241.5 309.5> 575 224<259 277>
VStem: 56 127<118.5 139 139 159 118.5 195> 151 203<612 745> 376 128<156 225 225 225 299 333 333 339 96 365.5>
AnchorPoint: "Anchor-1" 566 0 basechar 0
AnchorPoint: "Anchor-0" 289 0 basechar 0
LayerCount: 2
Fore
SplineSet
565 0 m 1x75
 490 0 l 2x75
 428 0 393 34 387 89 c 1
 382 89 l 1
 363 25 306 -12 226 -12 c 0xb5
 123 -12 56 46 56 143 c 0
 56 247 133 299 285 299 c 2
 376 299 l 1
 376 333 l 2
 376 398 345 432 274 432 c 0
 209 432 172 404 144 364 c 1
 71 426 l 1
 103 483 175 528 287 528 c 0
 422 528 504 463 504 339 c 2
 504 96 l 1
 565 96 l 1
 565 0 l 1x75
269 76 m 0xb5
 330 76 376 107 376 156 c 2
 376 225 l 1
 288 225 l 2
 218 225 183 202 183 159 c 2
 183 139 l 2
 183 98 216 76 269 76 c 0xb5
277 575 m 1x0a
 151 745 l 1
 259 799 l 1
 354 612 l 1
 277 575 l 1x0a
EndSplineSet
Validated: 1
Substitution2: "'salt' Stylistic Alternatives lookup 23 subtable" agrave.alt01
Substitution2: "'ss01' Style Set 1 lookup 16 subtable" agrave.alt01
Substitution2: "'aalt' Access All Alternates lookup 0 subtable" agrave.alt01
EndChar

StartChar: uni1EA3
Encoding: 7843 7843 202
Width: 600
GlyphClass: 2
Flags: MW
HStem: -12 88<242.5 266> 0 96<459 565 504 565 504 565> 225 74<285 288 288 376> 432 96<241.5 309.5> 692 93<179 312 179 300>
VStem: 56 127<118.5 139 139 159 118.5 195> 300 101<692 735> 376 128<156 225 225 225 299 333 333 339 96 365.5>
AnchorPoint: "Anchor-1" 566 0 basechar 0
AnchorPoint: "Anchor-0" 289 0 basechar 0
LayerCount: 2
Fore
SplineSet
565 0 m 1x75
 490 0 l 2x75
 428 0 393 34 387 89 c 1
 382 89 l 1
 363 25 306 -12 226 -12 c 0xb5
 123 -12 56 46 56 143 c 0
 56 247 133 299 285 299 c 2
 376 299 l 1
 376 333 l 2
 376 398 345 432 274 432 c 0
 209 432 172 404 144 364 c 1
 71 426 l 1
 103 483 175 528 287 528 c 0
 422 528 504 463 504 339 c 2
 504 96 l 1
 565 96 l 1
 565 0 l 1x75
269 76 m 0xb5
 330 76 376 107 376 156 c 2
 376 225 l 1
 288 225 l 2
 218 225 183 202 183 159 c 2
 183 139 l 2
 183 98 216 76 269 76 c 0xb5
179 692 m 1x0a
 179 785 l 1
 312 785 l 2
 379 785 401 753 401 717 c 0
 401 681 379 638 347 598 c 2
 320 565 l 1
 254 597 l 1
 300 692 l 1
 179 692 l 1x0a
EndSplineSet
Validated: 1
Substitution2: "'salt' Stylistic Alternatives lookup 23 subtable" uni1EA3.alt01
Substitution2: "'ss01' Style Set 1 lookup 16 subtable" uni1EA3.alt01
Substitution2: "'aalt' Access All Alternates lookup 0 subtable" uni1EA3.alt01
EndChar

StartChar: amacron
Encoding: 257 257 203
Width: 600
GlyphClass: 2
Flags: MW
HStem: -12 88<242.5 266> 0 96<459 565 504 565 504 565> 225 74<285 288 288 376> 432 96<241.5 309.5> 622 92<141 439 141 439>
VStem: 56 127<118.5 139 139 159 118.5 195> 141 298<622 714 622 714> 376 128<156 225 225 225 299 333 333 339 96 365.5>
AnchorPoint: "Anchor-1" 566 0 basechar 0
AnchorPoint: "Anchor-0" 289 0 basechar 0
LayerCount: 2
Fore
SplineSet
565 0 m 1x75
 490 0 l 2x75
 428 0 393 34 387 89 c 1
 382 89 l 1
 363 25 306 -12 226 -12 c 0xb5
 123 -12 56 46 56 143 c 0
 56 247 133 299 285 299 c 2
 376 299 l 1
 376 333 l 2
 376 398 345 432 274 432 c 0
 209 432 172 404 144 364 c 1
 71 426 l 1
 103 483 175 528 287 528 c 0
 422 528 504 463 504 339 c 2
 504 96 l 1
 565 96 l 1
 565 0 l 1x75
269 76 m 0xb5
 330 76 376 107 376 156 c 2
 376 225 l 1
 288 225 l 2
 218 225 183 202 183 159 c 2
 183 139 l 2
 183 98 216 76 269 76 c 0xb5
141 622 m 1x0a
 141 714 l 1
 439 714 l 1
 439 622 l 1
 141 622 l 1x0a
EndSplineSet
Validated: 1
Substitution2: "'salt' Stylistic Alternatives lookup 23 subtable" amacron.alt01
Substitution2: "'ss01' Style Set 1 lookup 16 subtable" amacron.alt01
Substitution2: "'aalt' Access All Alternates lookup 0 subtable" amacron.alt01
EndChar

StartChar: aogonek
Encoding: 261 261 204
Width: 600
GlyphClass: 2
Flags: MW
HStem: -210 68<480.5 502.5 480.5 510> -12 88<242 266> 0 96<478 565 504 565> 225 74<285 288 288 376> 432 96<241.5 309.5>
VStem: 56 127<118.5 139 139 159 118.5 195> 361 91<-121 -100.5> 376 128<156 225 225 225 299 333 333 339 96 365.5>
AnchorPoint: "Anchor-2" 289 516 basechar 0
AnchorPoint: "Anchor-0" 289 0 basechar 0
LayerCount: 2
Fore
SplineSet
565 96 m 1xbd
 565 0 l 1
 466 -62 452 -85 452 -108 c 0
 452 -134 470 -142 491 -142 c 0
 514 -142 531 -131 545 -115 c 1
 594 -163 l 1
 578 -191 540 -210 480 -210 c 0
 416 -210 361 -188 361 -127 c 0
 361 -74 405 -39 479 -3 c 1
 478 0 l 1xbe
 424 4 392 37 387 89 c 1
 382 89 l 1
 363 25 306 -12 226 -12 c 0xde
 123 -12 56 46 56 143 c 0
 56 247 133 299 285 299 c 2
 376 299 l 1
 376 333 l 2
 376 398 345 432 274 432 c 0
 209 432 172 404 144 364 c 1
 71 426 l 1
 103 483 175 528 287 528 c 0
 422 528 504 463 504 339 c 2
 504 96 l 1
 565 96 l 1xbd
376 225 m 1xdd
 288 225 l 2
 218 225 183 202 183 159 c 2
 183 139 l 2
 183 98 216 76 268 76 c 0
 330 76 376 107 376 156 c 2
 376 225 l 1xdd
EndSplineSet
Validated: 1
Substitution2: "'salt' Stylistic Alternatives lookup 23 subtable" aogonek.alt01
Substitution2: "'ss01' Style Set 1 lookup 16 subtable" aogonek.alt01
Substitution2: "'aalt' Access All Alternates lookup 0 subtable" aogonek.alt01
EndChar

StartChar: aring
Encoding: 229 229 205
Width: 600
GlyphClass: 2
Flags: MW
HStem: -12 88<242.5 266> 0 96<459 565 504 565 504 565> 225 74<285 288 288 376> 432 96<241.5 309.5> 556 67<273 307 273 329> 759 67<273 307>
VStem: 56 127<118.5 139 139 159 118.5 195> 152 85<658.5 675 675 707 658.5 730> 343 85<675 707 707 723.5> 376 128<156 225 225 225 299 333 333 339 96 365.5>
AnchorPoint: "Anchor-1" 566 0 basechar 0
AnchorPoint: "Anchor-0" 289 0 basechar 0
LayerCount: 2
Fore
SplineSet
565 0 m 1x7240
 490 0 l 2x7240
 428 0 393 34 387 89 c 1
 382 89 l 1
 363 25 306 -12 226 -12 c 0xb240
 123 -12 56 46 56 143 c 0
 56 247 133 299 285 299 c 2
 376 299 l 1
 376 333 l 2
 376 398 345 432 274 432 c 0
 209 432 172 404 144 364 c 1
 71 426 l 1
 103 483 175 528 287 528 c 0
 422 528 504 463 504 339 c 2
 504 96 l 1
 565 96 l 1
 565 0 l 1x7240
269 76 m 0xb240
 330 76 376 107 376 156 c 2
 376 225 l 1
 288 225 l 2
 218 225 183 202 183 159 c 2
 183 139 l 2
 183 98 216 76 269 76 c 0xb240
290 556 m 0x0d80
 212 556 152 612 152 691 c 0
 152 769 212 826 290 826 c 0
 368 826 428 770 428 691 c 0
 428 613 368 556 290 556 c 0x0d80
290 623 m 0
 324 623 343 643 343 675 c 2
 343 707 l 2
 343 740 324 759 290 759 c 0
 256 759 237 739 237 707 c 2
 237 675 l 2
 237 642 256 623 290 623 c 0
EndSplineSet
Validated: 1
Substitution2: "'salt' Stylistic Alternatives lookup 23 subtable" aring.alt01
Substitution2: "'ss01' Style Set 1 lookup 16 subtable" aring.alt01
Substitution2: "'aalt' Access All Alternates lookup 0 subtable" aring.alt01
EndChar

StartChar: aringacute
Encoding: 507 507 206
Width: 600
GlyphClass: 2
Flags: MW
HStem: -12 88<242.5 266> 0 96<459 565 504 565 504 565> 225 74<285 288 288 376> 432 96<241.5 309.5> 558 64<272 308 272 329.5> 732 64<272 308>
VStem: 56 127<118.5 139 139 159 118.5 195> 149 85<653.5 670 670 684 653.5 713.5> 346 85<670 684 684 700.5> 376 128<156 225 225 225 299 333 333 339 96 365.5>
AnchorPoint: "Anchor-1" 566 0 basechar 0
AnchorPoint: "Anchor-0" 289 0 basechar 0
LayerCount: 2
Fore
SplineSet
565 0 m 1x7240
 490 0 l 2x7240
 428 0 393 34 387 89 c 1
 382 89 l 1
 363 25 306 -12 226 -12 c 0xb240
 123 -12 56 46 56 143 c 0
 56 247 133 299 285 299 c 2
 376 299 l 1
 376 333 l 2
 376 398 345 432 274 432 c 0
 209 432 172 404 144 364 c 1
 71 426 l 1
 103 483 175 528 287 528 c 0
 422 528 504 463 504 339 c 2
 504 96 l 1
 565 96 l 1
 565 0 l 1x7240
269 76 m 0xb240
 330 76 376 107 376 156 c 2
 376 225 l 1
 288 225 l 2
 218 225 183 202 183 159 c 2
 183 139 l 2
 183 98 216 76 269 76 c 0xb240
422 905 m 1x0d80
 288 809 l 1
 239 856 l 1
 352 973 l 1
 422 905 l 1x0d80
290 558 m 0
 211 558 149 604 149 677 c 0
 149 750 211 796 290 796 c 0
 369 796 431 750 431 677 c 0
 431 604 369 558 290 558 c 0
290 622 m 0
 326 622 346 637 346 670 c 2
 346 684 l 2
 346 717 326 732 290 732 c 0
 254 732 234 717 234 684 c 2
 234 670 l 2
 234 637 254 622 290 622 c 0
EndSplineSet
Validated: 1
Substitution2: "'salt' Stylistic Alternatives lookup 23 subtable" aringacute.alt01
Substitution2: "'ss01' Style Set 1 lookup 16 subtable" aringacute.alt01
Substitution2: "'aalt' Access All Alternates lookup 0 subtable" aringacute.alt01
EndChar

StartChar: atilde
Encoding: 227 227 207
Width: 600
GlyphClass: 2
Flags: MW
HStem: -12 88<242.5 266> 0 96<459 565 504 565 504 565> 225 74<285 288 288 376> 432 96<241.5 309.5> 598 95<356.5 379.5 356.5 390.5> 642 95<200.5 223.5>
VStem: 56 127<118.5 139 139 159 118.5 195> 107 366<659 676> 376 128<156 225 225 225 299 333 333 339 96 365.5>
AnchorPoint: "Anchor-1" 566 0 basechar 0
AnchorPoint: "Anchor-0" 289 0 basechar 0
LayerCount: 2
Fore
SplineSet
565 0 m 1x7280
 490 0 l 2x7280
 428 0 393 34 387 89 c 1
 382 89 l 1
 363 25 306 -12 226 -12 c 0xb280
 123 -12 56 46 56 143 c 0
 56 247 133 299 285 299 c 2
 376 299 l 1
 376 333 l 2
 376 398 345 432 274 432 c 0
 209 432 172 404 144 364 c 1
 71 426 l 1
 103 483 175 528 287 528 c 0
 422 528 504 463 504 339 c 2
 504 96 l 1
 565 96 l 1
 565 0 l 1x7280
269 76 m 0xb280
 330 76 376 107 376 156 c 2
 376 225 l 1
 288 225 l 2
 218 225 183 202 183 159 c 2
 183 139 l 2
 183 98 216 76 269 76 c 0xb280
365 598 m 0x09
 333 598 311 609 287 620 c 0
 258 633 235 642 212 642 c 0
 189 642 174 634 153 617 c 1
 107 676 l 1
 129 710 164 737 215 737 c 0x05
 247 737 269 726 293 715 c 0
 322 702 345 693 368 693 c 0
 391 693 406 701 427 718 c 1
 473 659 l 1
 451 625 416 598 365 598 c 0x09
EndSplineSet
Validated: 1
Substitution2: "'salt' Stylistic Alternatives lookup 23 subtable" atilde.alt01
Substitution2: "'ss01' Style Set 1 lookup 16 subtable" atilde.alt01
Substitution2: "'aalt' Access All Alternates lookup 0 subtable" atilde.alt01
EndChar

StartChar: uni1EAF
Encoding: 7855 7855 208
Width: 600
GlyphClass: 2
Flags: MW
HStem: -12 88<242.5 266> 0 96<459 565 504 565 504 565> 225 74<285 288 288 376> 432 96<241.5 309.5> 570 89<266.5 309.5 266.5 346>
VStem: 56 127<118.5 139 139 159 118.5 195> 97 382<716 716> 376 128<156 225 225 225 299 333 333 339 96 365.5>
AnchorPoint: "Anchor-1" 566 0 basechar 0
AnchorPoint: "Anchor-0" 289 0 basechar 0
LayerCount: 2
Fore
SplineSet
565 0 m 1x75
 490 0 l 2x75
 428 0 393 34 387 89 c 1
 382 89 l 1
 363 25 306 -12 226 -12 c 0xb5
 123 -12 56 46 56 143 c 0
 56 247 133 299 285 299 c 2
 376 299 l 1
 376 333 l 2
 376 398 345 432 274 432 c 0
 209 432 172 404 144 364 c 1
 71 426 l 1
 103 483 175 528 287 528 c 0
 422 528 504 463 504 339 c 2
 504 96 l 1
 565 96 l 1
 565 0 l 1x75
269 76 m 0xb5
 330 76 376 107 376 156 c 2
 376 225 l 1
 288 225 l 2
 218 225 183 202 183 159 c 2
 183 139 l 2
 183 98 216 76 269 76 c 0xb5
288 570 m 0x0a
 172 570 121 649 97 716 c 1
 164 755 l 1
 185 726 l 2
 222 675 245 659 288 659 c 0
 331 659 354 675 391 726 c 2
 412 755 l 1
 479 716 l 1
 455 649 404 570 288 570 c 0x0a
429 890 m 1
 303 719 l 1
 233 753 l 1
 328 941 l 1
 429 890 l 1
EndSplineSet
Validated: 1
Substitution2: "'salt' Stylistic Alternatives lookup 23 subtable" uni1EAF.alt01
Substitution2: "'ss01' Style Set 1 lookup 16 subtable" uni1EAF.alt01
Substitution2: "'aalt' Access All Alternates lookup 0 subtable" uni1EAF.alt01
EndChar

StartChar: uni1EB7
Encoding: 7863 7863 209
Width: 600
GlyphClass: 2
Flags: MW
HStem: -194 138<261 315> -12 88<242.5 266> 0 96<459 565 504 565 504 565> 225 74<285 288 288 376> 432 96<241.5 309.5> 578 91<269.5 310.5 269.5 348>
VStem: 56 127<118.5 139 139 159 118.5 195> 106 368<742 742> 214 148<-136 -114 -152.5 -97.5> 376 128<156 225 225 225 299 333 333 339 96 365.5>
AnchorPoint: "Anchor-1" 566 0 basechar 0
LayerCount: 2
Fore
SplineSet
565 0 m 1x3a40
 490 0 l 2x3a40
 428 0 393 34 387 89 c 1
 382 89 l 1
 363 25 306 -12 226 -12 c 0x5a40
 123 -12 56 46 56 143 c 0
 56 247 133 299 285 299 c 2
 376 299 l 1
 376 333 l 2
 376 398 345 432 274 432 c 0
 209 432 172 404 144 364 c 1
 71 426 l 1
 103 483 175 528 287 528 c 0
 422 528 504 463 504 339 c 2
 504 96 l 1
 565 96 l 1
 565 0 l 1x3a40
269 76 m 0x5a40
 330 76 376 107 376 156 c 2
 376 225 l 1
 288 225 l 2
 218 225 183 202 183 159 c 2
 183 139 l 2
 183 98 216 76 269 76 c 0x5a40
290 578 m 0x05
 174 578 129 673 106 742 c 1
 180 778 l 1
 201 745 l 2
 232 697 249 669 290 669 c 0
 331 669 348 697 379 745 c 2
 400 778 l 1
 474 742 l 1
 451 673 406 578 290 578 c 0x05
288 -194 m 0x8080
 234 -194 214 -169 214 -136 c 2
 214 -114 l 2
 214 -81 234 -56 288 -56 c 0
 342 -56 362 -81 362 -114 c 2
 362 -136 l 2
 362 -169 342 -194 288 -194 c 0x8080
EndSplineSet
Validated: 1
Substitution2: "'salt' Stylistic Alternatives lookup 23 subtable" uni1EB7.alt01
Substitution2: "'ss01' Style Set 1 lookup 16 subtable" uni1EB7.alt01
Substitution2: "'aalt' Access All Alternates lookup 0 subtable" uni1EB7.alt01
EndChar

StartChar: uni1EB1
Encoding: 7857 7857 210
Width: 600
GlyphClass: 2
Flags: MW
HStem: -12 88<242.5 266> 0 96<459 565 504 565 504 565> 225 74<285 288 288 376> 432 96<241.5 309.5> 570 89<266.5 309.5 266.5 346>
VStem: 56 127<118.5 139 139 159 118.5 195> 97 382<716 716> 376 128<156 225 225 225 299 333 333 339 96 365.5>
AnchorPoint: "Anchor-1" 566 0 basechar 0
AnchorPoint: "Anchor-0" 289 0 basechar 0
LayerCount: 2
Fore
SplineSet
565 0 m 1x75
 490 0 l 2x75
 428 0 393 34 387 89 c 1
 382 89 l 1
 363 25 306 -12 226 -12 c 0xb5
 123 -12 56 46 56 143 c 0
 56 247 133 299 285 299 c 2
 376 299 l 1
 376 333 l 2
 376 398 345 432 274 432 c 0
 209 432 172 404 144 364 c 1
 71 426 l 1
 103 483 175 528 287 528 c 0
 422 528 504 463 504 339 c 2
 504 96 l 1
 565 96 l 1
 565 0 l 1x75
269 76 m 0xb5
 330 76 376 107 376 156 c 2
 376 225 l 1
 288 225 l 2
 218 225 183 202 183 159 c 2
 183 139 l 2
 183 98 216 76 269 76 c 0xb5
288 570 m 0x0a
 172 570 121 649 97 716 c 1
 164 755 l 1
 185 726 l 2
 222 675 245 659 288 659 c 0
 331 659 354 675 391 726 c 2
 412 755 l 1
 479 716 l 1
 455 649 404 570 288 570 c 0x0a
273 719 m 1
 147 890 l 1
 248 941 l 1
 343 753 l 1
 273 719 l 1
EndSplineSet
Validated: 1
Substitution2: "'salt' Stylistic Alternatives lookup 23 subtable" uni1EB1.alt01
Substitution2: "'ss01' Style Set 1 lookup 16 subtable" uni1EB1.alt01
Substitution2: "'aalt' Access All Alternates lookup 0 subtable" uni1EB1.alt01
EndChar

StartChar: uni1EB3
Encoding: 7859 7859 211
Width: 600
GlyphClass: 2
Flags: MW
HStem: -12 88<242.5 266> 0 96<459 565 504 565 504 565> 225 74<285 288 288 376> 432 96<241.5 309.5> 570 89<266.5 309.5 266.5 346> 838 89<171 295 171 288>
VStem: 56 127<118.5 139 139 159 118.5 195> 288 97<838 878> 376 128<156 225 225 225 299 333 333 339 96 365.5>
AnchorPoint: "Anchor-1" 566 0 basechar 0
AnchorPoint: "Anchor-0" 289 0 basechar 0
LayerCount: 2
Fore
SplineSet
565 0 m 1x7280
 490 0 l 2x7280
 428 0 393 34 387 89 c 1
 382 89 l 1
 363 25 306 -12 226 -12 c 0xb280
 123 -12 56 46 56 143 c 0
 56 247 133 299 285 299 c 2
 376 299 l 1
 376 333 l 2
 376 398 345 432 274 432 c 0
 209 432 172 404 144 364 c 1
 71 426 l 1
 103 483 175 528 287 528 c 0
 422 528 504 463 504 339 c 2
 504 96 l 1
 565 96 l 1
 565 0 l 1x7280
269 76 m 0xb280
 330 76 376 107 376 156 c 2
 376 225 l 1
 288 225 l 2
 218 225 183 202 183 159 c 2
 183 139 l 2
 183 98 216 76 269 76 c 0xb280
288 570 m 0x0d
 172 570 121 649 97 716 c 1
 164 755 l 1
 185 726 l 2
 222 675 245 659 288 659 c 0
 331 659 354 675 391 726 c 2
 412 755 l 1
 479 716 l 1
 455 649 404 570 288 570 c 0x0d
171 838 m 1
 171 927 l 1
 295 927 l 2
 363 927 385 896 385 860 c 0
 385 824 359 781 326 740 c 2
 300 708 l 1
 240 738 l 1
 288 838 l 1
 171 838 l 1
EndSplineSet
Validated: 1
Substitution2: "'salt' Stylistic Alternatives lookup 23 subtable" uni1EB3.alt01
Substitution2: "'ss01' Style Set 1 lookup 16 subtable" uni1EB3.alt01
Substitution2: "'aalt' Access All Alternates lookup 0 subtable" uni1EB3.alt01
EndChar

StartChar: uni1EB5
Encoding: 7861 7861 212
Width: 600
GlyphClass: 2
Flags: MW
HStem: -12 88<242.5 266> 0 96<459 565 504 565 504 565> 225 74<285 288 288 376> 432 96<241.5 309.5> 570 89<266.5 309.5 266.5 346> 775 91<355.5 378.5 355.5 387.5> 820 91<197.5 220.5>
VStem: 56 127<118.5 139 139 159 118.5 195> 97 382<716 716> 376 128<156 225 225 225 299 333 333 339 96 365.5>
AnchorPoint: "Anchor-1" 566 0 basechar 0
AnchorPoint: "Anchor-0" 289 0 basechar 0
LayerCount: 2
Fore
SplineSet
565 0 m 1x7140
 490 0 l 2x7140
 428 0 393 34 387 89 c 1
 382 89 l 1
 363 25 306 -12 226 -12 c 0xb140
 123 -12 56 46 56 143 c 0
 56 247 133 299 285 299 c 2
 376 299 l 1
 376 333 l 2
 376 398 345 432 274 432 c 0
 209 432 172 404 144 364 c 1
 71 426 l 1
 103 483 175 528 287 528 c 0
 422 528 504 463 504 339 c 2
 504 96 l 1
 565 96 l 1
 565 0 l 1x7140
269 76 m 0xb140
 330 76 376 107 376 156 c 2
 376 225 l 1
 288 225 l 2
 218 225 183 202 183 159 c 2
 183 139 l 2
 183 98 216 76 269 76 c 0xb140
288 570 m 0x0c80
 172 570 121 649 97 716 c 1
 164 755 l 1
 185 726 l 2
 222 675 245 659 288 659 c 0
 331 659 354 675 391 726 c 2
 412 755 l 1
 479 716 l 1
 455 649 404 570 288 570 c 0x0c80
362 775 m 0
 330 775 308 786 284 797 c 0
 254 811 232 820 209 820 c 0
 186 820 171 811 150 794 c 1
 106 850 l 1
 128 883 163 911 214 911 c 0x0a80
 246 911 268 900 292 889 c 0
 322 875 344 866 367 866 c 0
 390 866 405 875 426 892 c 1
 470 836 l 1
 448 803 413 775 362 775 c 0
EndSplineSet
Validated: 1
Substitution2: "'salt' Stylistic Alternatives lookup 23 subtable" uni1EB5.alt01
Substitution2: "'ss01' Style Set 1 lookup 16 subtable" uni1EB5.alt01
Substitution2: "'aalt' Access All Alternates lookup 0 subtable" uni1EB5.alt01
EndChar

StartChar: uni1EA5
Encoding: 7845 7845 213
Width: 600
GlyphClass: 2
Flags: MW
HStem: -12 88<242.5 266> 0 96<459 565 504 565 504 565> 225 74<285 288 288 376> 432 96<241.5 309.5> 567 375<165 480 408 480>
VStem: 56 127<118.5 139 139 159 118.5 195> 106 475<621 891> 376 128<156 225 225 225 299 333 333 339 96 365.5>
AnchorPoint: "Anchor-1" 566 0 basechar 0
AnchorPoint: "Anchor-0" 289 0 basechar 0
LayerCount: 2
Fore
SplineSet
565 0 m 1x75
 490 0 l 2x75
 428 0 393 34 387 89 c 1
 382 89 l 1
 363 25 306 -12 226 -12 c 0xb5
 123 -12 56 46 56 143 c 0
 56 247 133 299 285 299 c 2
 376 299 l 1
 376 333 l 2
 376 398 345 432 274 432 c 0
 209 432 172 404 144 364 c 1
 71 426 l 1
 103 483 175 528 287 528 c 0
 422 528 504 463 504 339 c 2
 504 96 l 1
 565 96 l 1
 565 0 l 1x75
269 76 m 0xb5
 330 76 376 107 376 156 c 2
 376 225 l 1
 288 225 l 2
 218 225 183 202 183 159 c 2
 183 139 l 2
 183 98 216 76 269 76 c 0xb5
581 891 m 1x0a
 455 720 l 1
 385 755 l 1
 480 942 l 1
 581 891 l 1x0a
240 767 m 1
 336 767 l 1
 470 621 l 1
 408 567 l 1
 287 675 l 1
 165 567 l 1
 106 621 l 1
 240 767 l 1
EndSplineSet
Validated: 1
Substitution2: "'salt' Stylistic Alternatives lookup 23 subtable" uni1EA5.alt01
Substitution2: "'ss01' Style Set 1 lookup 16 subtable" uni1EA5.alt01
Substitution2: "'aalt' Access All Alternates lookup 0 subtable" uni1EA5.alt01
EndChar

StartChar: uni1EAD
Encoding: 7853 7853 214
Width: 600
GlyphClass: 2
Flags: MW
HStem: -194 138<261 315> -12 88<242.5 266> 0 96<459 565 504 565 504 565> 225 74<285 288 288 376> 432 96<241.5 309.5> 576 204<168 348 232 408>
VStem: 56 127<118.5 139 139 159 118.5 195> 106 368<625 625> 214 148<-136 -114 -152.5 -97.5> 376 128<156 225 225 225 299 333 333 339 96 365.5>
AnchorPoint: "Anchor-1" 566 0 basechar 0
LayerCount: 2
Fore
SplineSet
565 0 m 1x3a40
 490 0 l 2x3a40
 428 0 393 34 387 89 c 1
 382 89 l 1
 363 25 306 -12 226 -12 c 0x5a40
 123 -12 56 46 56 143 c 0
 56 247 133 299 285 299 c 2
 376 299 l 1
 376 333 l 2
 376 398 345 432 274 432 c 0
 209 432 172 404 144 364 c 1
 71 426 l 1
 103 483 175 528 287 528 c 0
 422 528 504 463 504 339 c 2
 504 96 l 1
 565 96 l 1
 565 0 l 1x3a40
269 76 m 0x5a40
 330 76 376 107 376 156 c 2
 376 225 l 1
 288 225 l 2
 218 225 183 202 183 159 c 2
 183 139 l 2
 183 98 216 76 269 76 c 0x5a40
232 780 m 1x05
 348 780 l 1
 474 625 l 1
 408 576 l 1
 288 691 l 1
 168 576 l 1
 106 625 l 1
 232 780 l 1x05
288 -194 m 0x8080
 234 -194 214 -169 214 -136 c 2
 214 -114 l 2
 214 -81 234 -56 288 -56 c 0
 342 -56 362 -81 362 -114 c 2
 362 -136 l 2
 362 -169 342 -194 288 -194 c 0x8080
EndSplineSet
Validated: 1
Substitution2: "'salt' Stylistic Alternatives lookup 23 subtable" uni1EAD.alt01
Substitution2: "'ss01' Style Set 1 lookup 16 subtable" uni1EAD.alt01
Substitution2: "'aalt' Access All Alternates lookup 0 subtable" uni1EAD.alt01
EndChar

StartChar: uni1EA7
Encoding: 7847 7847 215
Width: 600
GlyphClass: 2
Flags: MW
HStem: -12 88<242.5 266> 0 96<459 565 504 565 504 565> 225 74<285 288 288 376> 432 96<241.5 309.5> 567 375<96 165 96 408>
VStem: -5 475<621 891> 56 127<118.5 139 139 159 118.5 195> 376 128<156 225 225 225 299 333 333 339 96 365.5>
AnchorPoint: "Anchor-1" 566 0 basechar 0
AnchorPoint: "Anchor-0" 289 0 basechar 0
LayerCount: 2
Fore
SplineSet
565 0 m 1x73
 490 0 l 2x73
 428 0 393 34 387 89 c 1
 382 89 l 1
 363 25 306 -12 226 -12 c 0xb3
 123 -12 56 46 56 143 c 0
 56 247 133 299 285 299 c 2
 376 299 l 1
 376 333 l 2
 376 398 345 432 274 432 c 0
 209 432 172 404 144 364 c 1
 71 426 l 1
 103 483 175 528 287 528 c 0
 422 528 504 463 504 339 c 2
 504 96 l 1
 565 96 l 1
 565 0 l 1x73
269 76 m 0xb3
 330 76 376 107 376 156 c 2
 376 225 l 1
 288 225 l 2
 218 225 183 202 183 159 c 2
 183 139 l 2
 183 98 216 76 269 76 c 0xb3
121 720 m 1x0c
 -5 891 l 1
 96 942 l 1
 191 755 l 1
 121 720 l 1x0c
240 767 m 1
 336 767 l 1
 470 621 l 1
 408 567 l 1
 287 675 l 1
 165 567 l 1
 106 621 l 1
 240 767 l 1
EndSplineSet
Validated: 1
Substitution2: "'salt' Stylistic Alternatives lookup 23 subtable" uni1EA7.alt01
Substitution2: "'ss01' Style Set 1 lookup 16 subtable" uni1EA7.alt01
Substitution2: "'aalt' Access All Alternates lookup 0 subtable" uni1EA7.alt01
EndChar

StartChar: uni1EA9
Encoding: 7849 7849 216
Width: 600
GlyphClass: 2
Flags: MW
HStem: -12 88<242.5 266> 0 96<459 565 504 565 504 565> 225 74<285 288 288 376> 432 96<241.5 309.5> 839 90<331 457 331 449>
VStem: 56 127<118.5 139 139 159 118.5 195> 376 128<156 225 225 225 299 333 333 339 96 365.5> 449 98<839 879>
AnchorPoint: "Anchor-1" 566 0 basechar 0
AnchorPoint: "Anchor-0" 289 0 basechar 0
LayerCount: 2
Fore
SplineSet
565 0 m 1x76
 490 0 l 2x76
 428 0 393 34 387 89 c 1
 382 89 l 1
 363 25 306 -12 226 -12 c 0xb6
 123 -12 56 46 56 143 c 0
 56 247 133 299 285 299 c 2
 376 299 l 1
 376 333 l 2
 376 398 345 432 274 432 c 0
 209 432 172 404 144 364 c 1
 71 426 l 1
 103 483 175 528 287 528 c 0
 422 528 504 463 504 339 c 2
 504 96 l 1
 565 96 l 1
 565 0 l 1x76
269 76 m 0xb6
 330 76 376 107 376 156 c 2
 376 225 l 1
 288 225 l 2
 218 225 183 202 183 159 c 2
 183 139 l 2
 183 98 216 76 269 76 c 0xb6
331 839 m 1x09
 331 929 l 1
 457 929 l 2
 524 929 547 897 547 861 c 0
 547 825 520 781 488 741 c 2
 462 709 l 1
 401 740 l 1
 449 839 l 1
 331 839 l 1x09
240 767 m 1
 336 767 l 1
 470 621 l 1
 408 567 l 1
 287 675 l 1
 165 567 l 1
 106 621 l 1
 240 767 l 1
EndSplineSet
Validated: 1
Substitution2: "'salt' Stylistic Alternatives lookup 23 subtable" uni1EA9.alt01
Substitution2: "'ss01' Style Set 1 lookup 16 subtable" uni1EA9.alt01
Substitution2: "'aalt' Access All Alternates lookup 0 subtable" uni1EA9.alt01
EndChar

StartChar: uni1EAB
Encoding: 7851 7851 217
Width: 600
GlyphClass: 2
Flags: MW
HStem: -12 88<242.5 266> 0 96<459 565 504 565 504 565> 225 74<285 288 288 376> 432 96<241.5 309.5> 785 91<355.5 378.5 355.5 387.5> 830 91<197.5 220.5>
VStem: 56 127<118.5 139 139 159 118.5 195> 107 362<621 621> 376 128<156 225 225 225 299 333 333 339 96 365.5>
AnchorPoint: "Anchor-1" 566 0 basechar 0
AnchorPoint: "Anchor-0" 289 0 basechar 0
LayerCount: 2
Fore
SplineSet
565 0 m 1x7280
 490 0 l 2x7280
 428 0 393 34 387 89 c 1
 382 89 l 1
 363 25 306 -12 226 -12 c 0xb280
 123 -12 56 46 56 143 c 0
 56 247 133 299 285 299 c 2
 376 299 l 1
 376 333 l 2
 376 398 345 432 274 432 c 0
 209 432 172 404 144 364 c 1
 71 426 l 1
 103 483 175 528 287 528 c 0
 422 528 504 463 504 339 c 2
 504 96 l 1
 565 96 l 1
 565 0 l 1x7280
269 76 m 0xb280
 330 76 376 107 376 156 c 2
 376 225 l 1
 288 225 l 2
 218 225 183 202 183 159 c 2
 183 139 l 2
 183 98 216 76 269 76 c 0xb280
214 921 m 0x05
 246 921 268 910 292 899 c 0
 322 885 344 876 367 876 c 0
 390 876 405 885 426 902 c 1
 470 846 l 1
 448 813 413 785 362 785 c 0x09
 330 785 308 796 284 807 c 0
 254 821 232 830 209 830 c 0
 186 830 171 821 150 804 c 1
 106 860 l 1
 128 893 163 921 214 921 c 0x05
239 755 m 1
 337 755 l 1
 469 621 l 1
 409 567 l 1
 287 667 l 1
 165 567 l 1
 107 621 l 1
 239 755 l 1
EndSplineSet
Validated: 1
Substitution2: "'salt' Stylistic Alternatives lookup 23 subtable" uni1EAB.alt01
Substitution2: "'ss01' Style Set 1 lookup 16 subtable" uni1EAB.alt01
Substitution2: "'aalt' Access All Alternates lookup 0 subtable" uni1EAB.alt01
EndChar

StartChar: aacute.alt01
Encoding: 65555 -1 218
Width: 600
GlyphClass: 2
Flags: MW
HStem: -12 102<259 281.5> 0 21G<403 403 403 531> 426 102<259 281.5 183 325> 496 20G<403 531 531 531> 575 224<303 321>
VStem: 45 134<178 217 217 299 178 349> 226 203<612 745> 403 128<0 91 91 91 177 339 339 368.5 425 516 0 516>
AnchorPoint: "Anchor-1" 530 0 basechar 0
AnchorPoint: "Anchor-0" 290 0 basechar 0
LayerCount: 2
Fore
SplineSet
403 0 m 1x55
 403 91 l 1
 396 91 l 1
 368 29 321 -12 242 -12 c 0
 124 -12 45 76 45 258 c 0
 45 440 124 528 242 528 c 0xa5
 321 528 368 487 396 425 c 1
 403 425 l 1
 403 516 l 1
 531 516 l 1
 531 0 l 1
 403 0 l 1x55
296 90 m 0xa5
 354 90 403 118 403 177 c 2
 403 339 l 2
 403 398 354 426 296 426 c 0
 222 426 179 377 179 299 c 2
 179 217 l 2
 179 139 222 90 296 90 c 0xa5
429 745 m 1x0a
 303 575 l 1
 226 612 l 1
 321 799 l 1
 429 745 l 1x0a
EndSplineSet
Validated: 1
EndChar

StartChar: abreve.alt01
Encoding: 65556 -1 219
Width: 600
GlyphClass: 2
Flags: MW
HStem: -12 102<259 281.5> 0 21G<403 403 403 531> 426 102<259 281.5 183 325> 496 20G<403 531 531 531> 578 91<269.5 310.5 269.5 348>
VStem: 45 134<178 217 217 299 178 349> 106 368<742 742> 403 128<0 91 91 91 177 339 339 368.5 425 516 0 516>
AnchorPoint: "Anchor-1" 530 0 basechar 0
AnchorPoint: "Anchor-0" 290 0 basechar 0
LayerCount: 2
Fore
SplineSet
403 0 m 1x55
 403 91 l 1
 396 91 l 1
 368 29 321 -12 242 -12 c 0
 124 -12 45 76 45 258 c 0
 45 440 124 528 242 528 c 0xa5
 321 528 368 487 396 425 c 1
 403 425 l 1
 403 516 l 1
 531 516 l 1
 531 0 l 1
 403 0 l 1x55
296 90 m 0xa5
 354 90 403 118 403 177 c 2
 403 339 l 2
 403 398 354 426 296 426 c 0
 222 426 179 377 179 299 c 2
 179 217 l 2
 179 139 222 90 296 90 c 0xa5
290 578 m 0x0a
 174 578 129 673 106 742 c 1
 180 778 l 1
 201 745 l 2
 232 697 249 669 290 669 c 0
 331 669 348 697 379 745 c 2
 400 778 l 1
 474 742 l 1
 451 673 406 578 290 578 c 0x0a
EndSplineSet
Validated: 1
EndChar

StartChar: uni01CE.alt01
Encoding: 65557 -1 220
Width: 600
GlyphClass: 2
Flags: MW
HStem: -12 102<259 281.5> 0 21G<403 403 403 531> 426 102<259 281.5 183 325> 496 20G<403 531 531 531> 584 204<172 348 172 232>
VStem: 45 134<178 217 217 299 178 349> 106 368<739 739> 403 128<0 91 91 91 177 339 339 368.5 425 516 0 516>
AnchorPoint: "Anchor-1" 530 0 basechar 0
AnchorPoint: "Anchor-0" 290 0 basechar 0
LayerCount: 2
Fore
SplineSet
403 0 m 1x55
 403 91 l 1
 396 91 l 1
 368 29 321 -12 242 -12 c 0
 124 -12 45 76 45 258 c 0
 45 440 124 528 242 528 c 0xa5
 321 528 368 487 396 425 c 1
 403 425 l 1
 403 516 l 1
 531 516 l 1
 531 0 l 1
 403 0 l 1x55
296 90 m 0xa5
 354 90 403 118 403 177 c 2
 403 339 l 2
 403 398 354 426 296 426 c 0
 222 426 179 377 179 299 c 2
 179 217 l 2
 179 139 222 90 296 90 c 0xa5
348 584 m 1x0a
 232 584 l 1
 106 739 l 1
 172 788 l 1
 292 673 l 1
 412 788 l 1
 474 739 l 1
 348 584 l 1x0a
EndSplineSet
Validated: 1
EndChar

StartChar: acircumflex.alt01
Encoding: 65558 -1 221
Width: 600
GlyphClass: 2
Flags: MW
HStem: -12 102<259 281.5> 0 21G<403 403 403 531> 426 102<259 281.5 183 325> 496 20G<403 531 531 531> 576 204<168 348 232 408>
VStem: 45 134<178 217 217 299 178 349> 106 368<625 625> 403 128<0 91 91 91 177 339 339 368.5 425 516 0 516>
AnchorPoint: "Anchor-1" 530 0 basechar 0
AnchorPoint: "Anchor-0" 290 0 basechar 0
LayerCount: 2
Fore
SplineSet
403 0 m 1x55
 403 91 l 1
 396 91 l 1
 368 29 321 -12 242 -12 c 0
 124 -12 45 76 45 258 c 0
 45 440 124 528 242 528 c 0xa5
 321 528 368 487 396 425 c 1
 403 425 l 1
 403 516 l 1
 531 516 l 1
 531 0 l 1
 403 0 l 1x55
296 90 m 0xa5
 354 90 403 118 403 177 c 2
 403 339 l 2
 403 398 354 426 296 426 c 0
 222 426 179 377 179 299 c 2
 179 217 l 2
 179 139 222 90 296 90 c 0xa5
232 780 m 1x0a
 348 780 l 1
 474 625 l 1
 408 576 l 1
 288 691 l 1
 168 576 l 1
 106 625 l 1
 232 780 l 1x0a
EndSplineSet
Validated: 1
EndChar

StartChar: adieresis.alt01
Encoding: 65559 -1 222
Width: 600
GlyphClass: 2
Flags: MW
HStem: -12 102<259 281.5> 0 21G<403 403 403 531> 426 102<259 281.5 183 325> 496 20G<403 531 531 531> 599 138<158 212 368 422>
VStem: 45 134<178 217 217 299 178 349> 112 146<657 679 641 695> 322 146<657 679 641 695> 403 128<0 91 91 91 177 339 339 368.5 425 516 0 516>
AnchorPoint: "Anchor-1" 530 0 basechar 0
AnchorPoint: "Anchor-0" 290 0 basechar 0
LayerCount: 2
Fore
SplineSet
403 0 m 1x5480
 403 91 l 1
 396 91 l 1
 368 29 321 -12 242 -12 c 0
 124 -12 45 76 45 258 c 0
 45 440 124 528 242 528 c 0xa480
 321 528 368 487 396 425 c 1
 403 425 l 1
 403 516 l 1
 531 516 l 1
 531 0 l 1
 403 0 l 1x5480
296 90 m 0xa480
 354 90 403 118 403 177 c 2
 403 339 l 2
 403 398 354 426 296 426 c 0
 222 426 179 377 179 299 c 2
 179 217 l 2
 179 139 222 90 296 90 c 0xa480
185 599 m 0x0b
 131 599 112 625 112 657 c 2
 112 679 l 2
 112 711 131 737 185 737 c 0
 239 737 258 711 258 679 c 2
 258 657 l 2
 258 625 239 599 185 599 c 0x0b
395 599 m 0
 341 599 322 625 322 657 c 2
 322 679 l 2
 322 711 341 737 395 737 c 0
 449 737 468 711 468 679 c 2
 468 657 l 2
 468 625 449 599 395 599 c 0
EndSplineSet
Validated: 1
EndChar

StartChar: uni1EA1.alt01
Encoding: 65560 -1 223
Width: 600
GlyphClass: 2
Flags: MW
HStem: -194 138<262 316> -12 102<259 281.5> 0 21G<403 403 403 531> 426 102<259 281.5 183 325> 496 20G<403 531 531 531>
VStem: 45 134<178 217 217 299 178 349> 215 148<-136 -114 -152.5 -97.5> 403 128<0 91 91 91 177 339 339 368.5 425 516 0 516>
AnchorPoint: "Anchor-2" 290 516 basechar 0
AnchorPoint: "Anchor-1" 530 0 basechar 0
LayerCount: 2
Fore
SplineSet
403 0 m 1x2d
 403 91 l 1
 396 91 l 1
 368 29 321 -12 242 -12 c 0
 124 -12 45 76 45 258 c 0
 45 440 124 528 242 528 c 0x55
 321 528 368 487 396 425 c 1
 403 425 l 1
 403 516 l 1
 531 516 l 1
 531 0 l 1
 403 0 l 1x2d
296 90 m 0x55
 354 90 403 118 403 177 c 2
 403 339 l 2
 403 398 354 426 296 426 c 0
 222 426 179 377 179 299 c 2
 179 217 l 2
 179 139 222 90 296 90 c 0x55
289 -194 m 0x82
 235 -194 215 -169 215 -136 c 2
 215 -114 l 2
 215 -81 235 -56 289 -56 c 0
 343 -56 363 -81 363 -114 c 2
 363 -136 l 2
 363 -169 343 -194 289 -194 c 0x82
EndSplineSet
Validated: 1
EndChar

StartChar: agrave.alt01
Encoding: 65561 -1 224
Width: 600
GlyphClass: 2
Flags: MW
HStem: -12 102<259 281.5> 0 21G<403 403 403 531> 426 102<259 281.5 183 325> 496 20G<403 531 531 531> 575 224<259 277>
VStem: 45 134<178 217 217 299 178 349> 151 203<612 745> 403 128<0 91 91 91 177 339 339 368.5 425 516 0 516>
AnchorPoint: "Anchor-1" 530 0 basechar 0
AnchorPoint: "Anchor-0" 290 0 basechar 0
LayerCount: 2
Fore
SplineSet
403 0 m 1x55
 403 91 l 1
 396 91 l 1
 368 29 321 -12 242 -12 c 0
 124 -12 45 76 45 258 c 0
 45 440 124 528 242 528 c 0xa5
 321 528 368 487 396 425 c 1
 403 425 l 1
 403 516 l 1
 531 516 l 1
 531 0 l 1
 403 0 l 1x55
296 90 m 0xa5
 354 90 403 118 403 177 c 2
 403 339 l 2
 403 398 354 426 296 426 c 0
 222 426 179 377 179 299 c 2
 179 217 l 2
 179 139 222 90 296 90 c 0xa5
277 575 m 1x0a
 151 745 l 1
 259 799 l 1
 354 612 l 1
 277 575 l 1x0a
EndSplineSet
Validated: 1
EndChar

StartChar: uni1EA3.alt01
Encoding: 65562 -1 225
Width: 600
GlyphClass: 2
Flags: MW
HStem: -12 102<259 281.5> 0 21G<403 403 403 531> 426 102<259 281.5 183 325> 496 20G<403 531 531 531> 692 93<180 313 180 301>
VStem: 45 134<178 217 217 299 178 349> 301 101<692 735> 403 128<0 91 91 91 177 339 339 368.5 425 516 0 516>
AnchorPoint: "Anchor-1" 530 0 basechar 0
AnchorPoint: "Anchor-0" 290 0 basechar 0
LayerCount: 2
Fore
SplineSet
403 0 m 1x55
 403 91 l 1
 396 91 l 1
 368 29 321 -12 242 -12 c 0
 124 -12 45 76 45 258 c 0
 45 440 124 528 242 528 c 0xa5
 321 528 368 487 396 425 c 1
 403 425 l 1
 403 516 l 1
 531 516 l 1
 531 0 l 1
 403 0 l 1x55
296 90 m 0xa5
 354 90 403 118 403 177 c 2
 403 339 l 2
 403 398 354 426 296 426 c 0
 222 426 179 377 179 299 c 2
 179 217 l 2
 179 139 222 90 296 90 c 0xa5
180 692 m 1x0a
 180 785 l 1
 313 785 l 2
 380 785 402 753 402 717 c 0
 402 681 380 638 348 598 c 2
 321 565 l 1
 255 597 l 1
 301 692 l 1
 180 692 l 1x0a
EndSplineSet
Validated: 1
EndChar

StartChar: amacron.alt01
Encoding: 65563 -1 226
Width: 600
GlyphClass: 2
Flags: MW
HStem: -12 102<259 281.5> 0 21G<403 403 403 531> 426 102<259 281.5 183 325> 496 20G<403 531 531 531> 622 92<141 439 141 439>
VStem: 45 134<178 217 217 299 178 349> 141 298<622 714 622 714> 403 128<0 91 91 91 177 339 339 368.5 425 516 0 516>
AnchorPoint: "Anchor-1" 530 0 basechar 0
AnchorPoint: "Anchor-0" 290 0 basechar 0
LayerCount: 2
Fore
SplineSet
403 0 m 1x55
 403 91 l 1
 396 91 l 1
 368 29 321 -12 242 -12 c 0
 124 -12 45 76 45 258 c 0
 45 440 124 528 242 528 c 0xa5
 321 528 368 487 396 425 c 1
 403 425 l 1
 403 516 l 1
 531 516 l 1
 531 0 l 1
 403 0 l 1x55
296 90 m 0xa5
 354 90 403 118 403 177 c 2
 403 339 l 2
 403 398 354 426 296 426 c 0
 222 426 179 377 179 299 c 2
 179 217 l 2
 179 139 222 90 296 90 c 0xa5
141 622 m 1x0a
 141 714 l 1
 439 714 l 1
 439 622 l 1
 141 622 l 1x0a
EndSplineSet
Validated: 1
EndChar

StartChar: aogonek.alt01
Encoding: 65564 -1 227
Width: 600
GlyphClass: 2
Flags: MW
HStem: -210 68<446 468 446 475.5> -12 102<259 281.5> 0 21G<403 443 403 403 531 531> 426 102<259 281.5 183 325> 496 20G<403 531 531 531>
VStem: 45 134<178 217 217 299 178 349> 326 91<-121 -100.5> 403 128<0 91 91 91 177 339 339 368.5 425 516 0 516>
AnchorPoint: "Anchor-2" 290 516 basechar 0
AnchorPoint: "Anchor-0" 290 0 basechar 0
LayerCount: 2
Fore
SplineSet
446 -210 m 0xb6
 381 -210 326 -188 326 -127 c 0xd6
 326 -74 370 -39 444 -3 c 1
 443 0 l 1
 403 0 l 1xb5
 403 91 l 1
 396 91 l 1
 368 29 321 -12 242 -12 c 0
 124 -12 45 76 45 258 c 0
 45 440 124 528 242 528 c 0xd5
 321 528 368 487 396 425 c 1
 403 425 l 1
 403 516 l 1
 531 516 l 1
 531 0 l 1xad
 431 -62 417 -85 417 -108 c 0
 417 -134 436 -142 456 -142 c 0
 480 -142 497 -131 510 -115 c 1
 560 -163 l 1
 544 -191 505 -210 446 -210 c 0xb6
296 90 m 0
 354 90 403 118 403 177 c 2
 403 339 l 2xd5
 403 398 354 426 296 426 c 0
 222 426 179 377 179 299 c 2
 179 217 l 2
 179 139 222 90 296 90 c 0
EndSplineSet
Validated: 1
EndChar

StartChar: aring.alt01
Encoding: 65565 -1 228
Width: 600
GlyphClass: 2
Flags: MW
HStem: -12 102<259 281.5> 0 21G<403 403 403 531> 426 102<259 281.5 183 325> 496 20G<403 531 531 531> 556 67<273 307 273 329> 759 67<273 307>
VStem: 45 134<178 217 217 299 178 349> 152 85<658.5 675 675 707 658.5 730> 343 85<675 707 707 723.5> 403 128<0 91 91 91 177 339 339 368.5 425 516 0 516>
AnchorPoint: "Anchor-1" 530 0 basechar 0
AnchorPoint: "Anchor-0" 290 0 basechar 0
LayerCount: 2
Fore
SplineSet
403 0 m 1x5240
 403 91 l 1
 396 91 l 1
 368 29 321 -12 242 -12 c 0
 124 -12 45 76 45 258 c 0
 45 440 124 528 242 528 c 0xa240
 321 528 368 487 396 425 c 1
 403 425 l 1
 403 516 l 1
 531 516 l 1
 531 0 l 1
 403 0 l 1x5240
296 90 m 0xa240
 354 90 403 118 403 177 c 2
 403 339 l 2
 403 398 354 426 296 426 c 0
 222 426 179 377 179 299 c 2
 179 217 l 2
 179 139 222 90 296 90 c 0xa240
290 556 m 0x0d80
 212 556 152 612 152 691 c 0
 152 769 212 826 290 826 c 0
 368 826 428 770 428 691 c 0
 428 613 368 556 290 556 c 0x0d80
290 623 m 0
 324 623 343 643 343 675 c 2
 343 707 l 2
 343 740 324 759 290 759 c 0
 256 759 237 739 237 707 c 2
 237 675 l 2
 237 642 256 623 290 623 c 0
EndSplineSet
Validated: 1
EndChar

StartChar: aringacute.alt01
Encoding: 65566 -1 229
Width: 600
GlyphClass: 2
Flags: MW
HStem: -12 102<259 281.5> 0 21G<403 403 403 531> 426 102<259 281.5 183 325> 496 20G<403 531 531 531> 558 64<272 308 272 329.5> 732 64<272 308>
VStem: 45 134<178 217 217 299 178 349> 149 85<653.5 670 670 684 653.5 713.5> 346 85<670 684 684 700.5> 403 128<0 91 91 91 177 339 339 368.5 425 516 0 516>
AnchorPoint: "Anchor-1" 530 0 basechar 0
AnchorPoint: "Anchor-0" 290 0 basechar 0
LayerCount: 2
Fore
SplineSet
403 0 m 1x5240
 403 91 l 1
 396 91 l 1
 368 29 321 -12 242 -12 c 0
 124 -12 45 76 45 258 c 0
 45 440 124 528 242 528 c 0xa240
 321 528 368 487 396 425 c 1
 403 425 l 1
 403 516 l 1
 531 516 l 1
 531 0 l 1
 403 0 l 1x5240
296 90 m 0xa240
 354 90 403 118 403 177 c 2
 403 339 l 2
 403 398 354 426 296 426 c 0
 222 426 179 377 179 299 c 2
 179 217 l 2
 179 139 222 90 296 90 c 0xa240
422 905 m 1x0d80
 288 809 l 1
 239 856 l 1
 352 973 l 1
 422 905 l 1x0d80
290 558 m 0
 211 558 149 604 149 677 c 0
 149 750 211 796 290 796 c 0
 369 796 431 750 431 677 c 0
 431 604 369 558 290 558 c 0
290 622 m 0
 326 622 346 637 346 670 c 2
 346 684 l 2
 346 717 326 732 290 732 c 0
 254 732 234 717 234 684 c 2
 234 670 l 2
 234 637 254 622 290 622 c 0
EndSplineSet
Validated: 1
EndChar

StartChar: atilde.alt01
Encoding: 65567 -1 230
Width: 600
GlyphClass: 2
Flags: MW
HStem: -12 102<259 281.5> 0 21G<403 403 403 531> 426 102<259 281.5 183 325> 496 20G<403 531 531 531> 598 95<356.5 379.5 356.5 390.5> 642 95<200.5 223.5>
VStem: 45 134<178 217 217 299 178 349> 107 366<659 676> 403 128<0 91 91 91 177 339 339 368.5 425 516 0 516>
AnchorPoint: "Anchor-1" 530 0 basechar 0
AnchorPoint: "Anchor-0" 290 0 basechar 0
LayerCount: 2
Fore
SplineSet
403 0 m 1x5280
 403 91 l 1
 396 91 l 1
 368 29 321 -12 242 -12 c 0
 124 -12 45 76 45 258 c 0
 45 440 124 528 242 528 c 0xa280
 321 528 368 487 396 425 c 1
 403 425 l 1
 403 516 l 1
 531 516 l 1
 531 0 l 1
 403 0 l 1x5280
296 90 m 0xa280
 354 90 403 118 403 177 c 2
 403 339 l 2
 403 398 354 426 296 426 c 0
 222 426 179 377 179 299 c 2
 179 217 l 2
 179 139 222 90 296 90 c 0xa280
365 598 m 0x09
 333 598 311 609 287 620 c 0
 258 633 235 642 212 642 c 0
 189 642 174 634 153 617 c 1
 107 676 l 1
 129 710 164 737 215 737 c 0x05
 247 737 269 726 293 715 c 0
 322 702 345 693 368 693 c 0
 391 693 406 701 427 718 c 1
 473 659 l 1
 451 625 416 598 365 598 c 0x09
EndSplineSet
Validated: 1
EndChar

StartChar: uni1EAF.alt01
Encoding: 65568 -1 231
Width: 600
GlyphClass: 2
Flags: MW
HStem: -12 102<259 281.5> 0 21G<403 403 403 531> 426 102<259 281.5 183 325> 496 20G<403 531 531 531> 570 89<267.5 310.5 267.5 347>
VStem: 45 134<178 217 217 299 178 349> 98 382<716 716> 403 128<0 91 91 91 177 339 339 368.5 425 516 0 516>
AnchorPoint: "Anchor-1" 530 0 basechar 0
AnchorPoint: "Anchor-0" 290 0 basechar 0
LayerCount: 2
Fore
SplineSet
403 0 m 1x55
 403 91 l 1
 396 91 l 1
 368 29 321 -12 242 -12 c 0
 124 -12 45 76 45 258 c 0
 45 440 124 528 242 528 c 0xa5
 321 528 368 487 396 425 c 1
 403 425 l 1
 403 516 l 1
 531 516 l 1
 531 0 l 1
 403 0 l 1x55
296 90 m 0xa5
 354 90 403 118 403 177 c 2
 403 339 l 2
 403 398 354 426 296 426 c 0
 222 426 179 377 179 299 c 2
 179 217 l 2
 179 139 222 90 296 90 c 0xa5
289 570 m 0x0a
 173 570 122 649 98 716 c 1
 165 755 l 1
 186 726 l 2
 223 675 246 659 289 659 c 0
 332 659 355 675 392 726 c 2
 413 755 l 1
 480 716 l 1
 456 649 405 570 289 570 c 0x0a
430 890 m 1
 304 719 l 1
 234 753 l 1
 329 941 l 1
 430 890 l 1
EndSplineSet
Validated: 1
EndChar

StartChar: uni1EB7.alt01
Encoding: 65569 -1 232
Width: 600
GlyphClass: 2
Flags: MW
HStem: -194 138<262 316> -12 102<259 281.5> 0 21G<403 403 403 531> 426 102<259 281.5 183 325> 496 20G<403 531 531 531> 578 91<269.5 310.5 269.5 348>
VStem: 45 134<178 217 217 299 178 349> 106 368<742 742> 215 148<-136 -114 -152.5 -97.5> 403 128<0 91 91 91 177 339 339 368.5 425 516 0 516>
AnchorPoint: "Anchor-1" 530 0 basechar 0
LayerCount: 2
Fore
SplineSet
403 0 m 1x2a40
 403 91 l 1
 396 91 l 1
 368 29 321 -12 242 -12 c 0
 124 -12 45 76 45 258 c 0
 45 440 124 528 242 528 c 0x5240
 321 528 368 487 396 425 c 1
 403 425 l 1
 403 516 l 1
 531 516 l 1
 531 0 l 1
 403 0 l 1x2a40
296 90 m 0x5240
 354 90 403 118 403 177 c 2
 403 339 l 2
 403 398 354 426 296 426 c 0
 222 426 179 377 179 299 c 2
 179 217 l 2
 179 139 222 90 296 90 c 0x5240
290 578 m 0x05
 174 578 129 673 106 742 c 1
 180 778 l 1
 201 745 l 2
 232 697 249 669 290 669 c 0
 331 669 348 697 379 745 c 2
 400 778 l 1
 474 742 l 1
 451 673 406 578 290 578 c 0x05
289 -194 m 0x8080
 235 -194 215 -169 215 -136 c 2
 215 -114 l 2
 215 -81 235 -56 289 -56 c 0
 343 -56 363 -81 363 -114 c 2
 363 -136 l 2
 363 -169 343 -194 289 -194 c 0x8080
EndSplineSet
Validated: 1
EndChar

StartChar: uni1EB1.alt01
Encoding: 65570 -1 233
Width: 600
GlyphClass: 2
Flags: MW
HStem: -12 102<259 281.5> 0 21G<403 403 403 531> 426 102<259 281.5 183 325> 496 20G<403 531 531 531> 570 89<267.5 310.5 267.5 347>
VStem: 45 134<178 217 217 299 178 349> 98 382<716 716> 403 128<0 91 91 91 177 339 339 368.5 425 516 0 516>
AnchorPoint: "Anchor-1" 530 0 basechar 0
AnchorPoint: "Anchor-0" 290 0 basechar 0
LayerCount: 2
Fore
SplineSet
403 0 m 1x55
 403 91 l 1
 396 91 l 1
 368 29 321 -12 242 -12 c 0
 124 -12 45 76 45 258 c 0
 45 440 124 528 242 528 c 0xa5
 321 528 368 487 396 425 c 1
 403 425 l 1
 403 516 l 1
 531 516 l 1
 531 0 l 1
 403 0 l 1x55
296 90 m 0xa5
 354 90 403 118 403 177 c 2
 403 339 l 2
 403 398 354 426 296 426 c 0
 222 426 179 377 179 299 c 2
 179 217 l 2
 179 139 222 90 296 90 c 0xa5
289 570 m 0x0a
 173 570 122 649 98 716 c 1
 165 755 l 1
 186 726 l 2
 223 675 246 659 289 659 c 0
 332 659 355 675 392 726 c 2
 413 755 l 1
 480 716 l 1
 456 649 405 570 289 570 c 0x0a
274 719 m 1
 148 890 l 1
 249 941 l 1
 344 753 l 1
 274 719 l 1
EndSplineSet
Validated: 1
EndChar

StartChar: uni1EB3.alt01
Encoding: 65571 -1 234
Width: 600
GlyphClass: 2
Flags: MW
HStem: -12 102<259 281.5> 0 21G<403 403 403 531> 426 102<259 281.5 183 325> 496 20G<403 531 531 531> 570 89<267.5 310.5 267.5 347> 838 89<172 296 172 289>
VStem: 45 134<178 217 217 299 178 349> 289 97<838 878> 403 128<0 91 91 91 177 339 339 368.5 425 516 0 516>
AnchorPoint: "Anchor-1" 530 0 basechar 0
AnchorPoint: "Anchor-0" 290 0 basechar 0
LayerCount: 2
Fore
SplineSet
403 0 m 1x5280
 403 91 l 1
 396 91 l 1
 368 29 321 -12 242 -12 c 0
 124 -12 45 76 45 258 c 0
 45 440 124 528 242 528 c 0xa280
 321 528 368 487 396 425 c 1
 403 425 l 1
 403 516 l 1
 531 516 l 1
 531 0 l 1
 403 0 l 1x5280
296 90 m 0xa280
 354 90 403 118 403 177 c 2
 403 339 l 2
 403 398 354 426 296 426 c 0
 222 426 179 377 179 299 c 2
 179 217 l 2
 179 139 222 90 296 90 c 0xa280
289 570 m 0x0d
 173 570 122 649 98 716 c 1
 165 755 l 1
 186 726 l 2
 223 675 246 659 289 659 c 0
 332 659 355 675 392 726 c 2
 413 755 l 1
 480 716 l 1
 456 649 405 570 289 570 c 0x0d
172 838 m 1
 172 927 l 1
 296 927 l 2
 364 927 386 896 386 860 c 0
 386 824 360 781 327 740 c 2
 301 708 l 1
 241 738 l 1
 289 838 l 1
 172 838 l 1
EndSplineSet
Validated: 1
EndChar

StartChar: uni1EB5.alt01
Encoding: 65572 -1 235
Width: 600
GlyphClass: 2
Flags: MW
HStem: -12 102<259 281.5> 0 21G<403 403 403 531> 426 102<259 281.5 183 325> 496 20G<403 531 531 531> 570 89<267.5 310.5 267.5 347> 775 91<356.5 379.5 356.5 388.5> 820 91<198.5 221.5>
VStem: 45 134<178 217 217 299 178 349> 98 382<716 716> 403 128<0 91 91 91 177 339 339 368.5 425 516 0 516>
AnchorPoint: "Anchor-1" 530 0 basechar 0
AnchorPoint: "Anchor-0" 290 0 basechar 0
LayerCount: 2
Fore
SplineSet
403 0 m 1x5140
 403 91 l 1
 396 91 l 1
 368 29 321 -12 242 -12 c 0
 124 -12 45 76 45 258 c 0
 45 440 124 528 242 528 c 0xa140
 321 528 368 487 396 425 c 1
 403 425 l 1
 403 516 l 1
 531 516 l 1
 531 0 l 1
 403 0 l 1x5140
296 90 m 0xa140
 354 90 403 118 403 177 c 2
 403 339 l 2
 403 398 354 426 296 426 c 0
 222 426 179 377 179 299 c 2
 179 217 l 2
 179 139 222 90 296 90 c 0xa140
289 570 m 0x0c80
 173 570 122 649 98 716 c 1
 165 755 l 1
 186 726 l 2
 223 675 246 659 289 659 c 0
 332 659 355 675 392 726 c 2
 413 755 l 1
 480 716 l 1
 456 649 405 570 289 570 c 0x0c80
363 775 m 0
 331 775 309 786 285 797 c 0
 255 811 233 820 210 820 c 0
 187 820 172 811 151 794 c 1
 107 850 l 1
 129 883 164 911 215 911 c 0x0a80
 247 911 269 900 293 889 c 0
 323 875 345 866 368 866 c 0
 391 866 406 875 427 892 c 1
 471 836 l 1
 449 803 414 775 363 775 c 0
EndSplineSet
Validated: 1
EndChar

StartChar: uni1EA5.alt01
Encoding: 65573 -1 236
Width: 600
GlyphClass: 2
Flags: MW
HStem: -12 102<259 281.5> 0 21G<403 403 403 531> 426 102<259 281.5 183 325> 496 20G<403 531 531 531> 567 375<166 481 409 481>
VStem: 45 134<178 217 217 299 178 349> 107 475<621 891> 403 128<0 91 91 91 177 339 339 368.5 425 516 0 516>
AnchorPoint: "Anchor-1" 530 0 basechar 0
AnchorPoint: "Anchor-0" 290 0 basechar 0
LayerCount: 2
Fore
SplineSet
403 0 m 1x55
 403 91 l 1
 396 91 l 1
 368 29 321 -12 242 -12 c 0
 124 -12 45 76 45 258 c 0
 45 440 124 528 242 528 c 0xa5
 321 528 368 487 396 425 c 1
 403 425 l 1
 403 516 l 1
 531 516 l 1
 531 0 l 1
 403 0 l 1x55
296 90 m 0xa5
 354 90 403 118 403 177 c 2
 403 339 l 2
 403 398 354 426 296 426 c 0
 222 426 179 377 179 299 c 2
 179 217 l 2
 179 139 222 90 296 90 c 0xa5
582 891 m 1x0a
 456 720 l 1
 386 755 l 1
 481 942 l 1
 582 891 l 1x0a
241 767 m 1
 337 767 l 1
 471 621 l 1
 409 567 l 1
 288 675 l 1
 166 567 l 1
 107 621 l 1
 241 767 l 1
EndSplineSet
Validated: 1
EndChar

StartChar: uni1EAD.alt01
Encoding: 65574 -1 237
Width: 600
GlyphClass: 2
Flags: MW
HStem: -194 138<262 316> -12 102<259 281.5> 0 21G<403 403 403 531> 426 102<259 281.5 183 325> 496 20G<403 531 531 531> 576 204<168 348 232 408>
VStem: 45 134<178 217 217 299 178 349> 106 368<625 625> 215 148<-136 -114 -152.5 -97.5> 403 128<0 91 91 91 177 339 339 368.5 425 516 0 516>
AnchorPoint: "Anchor-1" 530 0 basechar 0
LayerCount: 2
Fore
SplineSet
403 0 m 1x2a40
 403 91 l 1
 396 91 l 1
 368 29 321 -12 242 -12 c 0
 124 -12 45 76 45 258 c 0
 45 440 124 528 242 528 c 0x5240
 321 528 368 487 396 425 c 1
 403 425 l 1
 403 516 l 1
 531 516 l 1
 531 0 l 1
 403 0 l 1x2a40
296 90 m 0x5240
 354 90 403 118 403 177 c 2
 403 339 l 2
 403 398 354 426 296 426 c 0
 222 426 179 377 179 299 c 2
 179 217 l 2
 179 139 222 90 296 90 c 0x5240
232 780 m 1x05
 348 780 l 1
 474 625 l 1
 408 576 l 1
 288 691 l 1
 168 576 l 1
 106 625 l 1
 232 780 l 1x05
289 -194 m 0x8080
 235 -194 215 -169 215 -136 c 2
 215 -114 l 2
 215 -81 235 -56 289 -56 c 0
 343 -56 363 -81 363 -114 c 2
 363 -136 l 2
 363 -169 343 -194 289 -194 c 0x8080
EndSplineSet
Validated: 1
EndChar

StartChar: uni1EA7.alt01
Encoding: 65575 -1 238
Width: 600
GlyphClass: 2
Flags: MW
HStem: -12 102<259 281.5> 0 21G<403 403 403 531> 426 102<259 281.5 183 325> 496 20G<403 531 531 531> 567 375<97 166 97 409>
VStem: -4 475<621 891> 45 134<178 217 217 299 178 349> 403 128<0 91 91 91 177 339 339 368.5 425 516 0 516>
AnchorPoint: "Anchor-1" 530 0 basechar 0
AnchorPoint: "Anchor-0" 290 0 basechar 0
LayerCount: 2
Fore
SplineSet
403 0 m 1x53
 403 91 l 1
 396 91 l 1
 368 29 321 -12 242 -12 c 0
 124 -12 45 76 45 258 c 0
 45 440 124 528 242 528 c 0xa3
 321 528 368 487 396 425 c 1
 403 425 l 1
 403 516 l 1
 531 516 l 1
 531 0 l 1
 403 0 l 1x53
296 90 m 0xa3
 354 90 403 118 403 177 c 2
 403 339 l 2
 403 398 354 426 296 426 c 0
 222 426 179 377 179 299 c 2
 179 217 l 2
 179 139 222 90 296 90 c 0xa3
122 720 m 1x0c
 -4 891 l 1
 97 942 l 1
 192 755 l 1
 122 720 l 1x0c
241 767 m 1
 337 767 l 1
 471 621 l 1
 409 567 l 1
 288 675 l 1
 166 567 l 1
 107 621 l 1
 241 767 l 1
EndSplineSet
Validated: 1
EndChar

StartChar: uni1EA9.alt01
Encoding: 65576 -1 239
Width: 600
GlyphClass: 2
Flags: MW
HStem: -12 102<259 281.5> 0 21G<403 403 403 531> 426 102<259 281.5 183 325> 496 20G<403 531 531 531> 839 90<332 458 332 450>
VStem: 45 134<178 217 217 299 178 349> 403 128<0 91 91 91 177 339 339 368.5 425 516 0 516> 450 98<839 879>
AnchorPoint: "Anchor-1" 530 0 basechar 0
AnchorPoint: "Anchor-0" 290 0 basechar 0
LayerCount: 2
Fore
SplineSet
403 0 m 1x56
 403 91 l 1
 396 91 l 1
 368 29 321 -12 242 -12 c 0
 124 -12 45 76 45 258 c 0
 45 440 124 528 242 528 c 0xa6
 321 528 368 487 396 425 c 1
 403 425 l 1
 403 516 l 1
 531 516 l 1
 531 0 l 1
 403 0 l 1x56
296 90 m 0xa6
 354 90 403 118 403 177 c 2
 403 339 l 2
 403 398 354 426 296 426 c 0
 222 426 179 377 179 299 c 2
 179 217 l 2
 179 139 222 90 296 90 c 0xa6
332 839 m 1x09
 332 929 l 1
 458 929 l 2
 525 929 548 897 548 861 c 0
 548 825 521 781 489 741 c 2
 463 709 l 1
 402 740 l 1
 450 839 l 1
 332 839 l 1x09
241 767 m 1
 337 767 l 1
 471 621 l 1
 409 567 l 1
 288 675 l 1
 166 567 l 1
 107 621 l 1
 241 767 l 1
EndSplineSet
Validated: 1
EndChar

StartChar: uni1EAB.alt01
Encoding: 65577 -1 240
Width: 600
GlyphClass: 2
Flags: MW
HStem: -12 102<259 281.5> 0 21G<403 403 403 531> 426 102<259 281.5 183 325> 496 20G<403 531 531 531> 785 91<356.5 379.5 356.5 388.5> 830 91<198.5 221.5>
VStem: 45 134<178 217 217 299 178 349> 108 362<621 621> 403 128<0 91 91 91 177 339 339 368.5 425 516 0 516>
AnchorPoint: "Anchor-1" 530 0 basechar 0
AnchorPoint: "Anchor-0" 290 0 basechar 0
LayerCount: 2
Fore
SplineSet
403 0 m 1x5280
 403 91 l 1
 396 91 l 1
 368 29 321 -12 242 -12 c 0
 124 -12 45 76 45 258 c 0
 45 440 124 528 242 528 c 0xa280
 321 528 368 487 396 425 c 1
 403 425 l 1
 403 516 l 1
 531 516 l 1
 531 0 l 1
 403 0 l 1x5280
296 90 m 0xa280
 354 90 403 118 403 177 c 2
 403 339 l 2
 403 398 354 426 296 426 c 0
 222 426 179 377 179 299 c 2
 179 217 l 2
 179 139 222 90 296 90 c 0xa280
215 921 m 0x05
 247 921 269 910 293 899 c 0
 323 885 345 876 368 876 c 0
 391 876 406 885 427 902 c 1
 471 846 l 1
 449 813 414 785 363 785 c 0x09
 331 785 309 796 285 807 c 0
 255 821 233 830 210 830 c 0
 187 830 172 821 151 804 c 1
 107 860 l 1
 129 893 164 921 215 921 c 0x05
240 755 m 1
 338 755 l 1
 470 621 l 1
 410 567 l 1
 288 667 l 1
 166 567 l 1
 108 621 l 1
 240 755 l 1
EndSplineSet
Validated: 1
EndChar

StartChar: ae
Encoding: 230 230 241
Width: 600
GlyphClass: 2
Flags: MW
HStem: -12 82<145.5 169.5> 231 71<187 198 198 233 339 487> 445 83<148.5 189.5>
VStem: 6 103<117 138 138 156 117 193> 233 106<172 213 213 231 172 231 302 343> 487 96<231 343 231 374.5>
AnchorPoint: "Anchor-2" 299 516 basechar 0
LayerCount: 2
Fore
SplineSet
138 -12 m 0
 63 -12 6 39 6 140 c 0
 6 246 70 302 187 302 c 2
 233 302 l 1
 233 358 l 2
 233 416 210 445 169 445 c 0
 128 445 110 418 96 374 c 1
 16 407 l 1
 37 484 92 528 169 528 c 0
 230 528 271 501 294 454 c 1
 298 454 l 1
 326 505 367 528 419 528 c 0
 521 528 583 441 583 296 c 2
 583 231 l 1
 339 231 l 1
 339 213 l 2
 339 131 366 75 418 75 c 0
 459 75 479 111 491 152 c 1
 577 125 l 1
 557 52 508 -12 418 -12 c 0
 349 -12 290 25 265 104 c 1
 261 104 l 1
 247 24 201 -12 138 -12 c 0
165 70 m 0
 214 70 233 110 233 172 c 2
 233 231 l 1
 198 231 l 2
 142 231 109 207 109 156 c 2
 109 138 l 2
 109 96 126 70 165 70 c 0
413 447 m 0
 364 447 339 406 339 343 c 2
 339 302 l 1
 487 302 l 1
 487 343 l 2
 487 406 462 447 413 447 c 0
EndSplineSet
Validated: 1
EndChar

StartChar: aeacute
Encoding: 509 509 242
Width: 600
GlyphClass: 1
Flags: MW
HStem: -12 82<145.5 169.5> 231 71<187 198 198 233 339 487> 445 83<148.5 189.5> 575 224<313 331>
VStem: 6 103<117 138 138 156 117 193> 233 106<172 213 213 231 172 231 302 343> 236 203<612 745> 487 96<231 343 231 374.5>
LayerCount: 2
Fore
SplineSet
439 745 m 1x12
 313 575 l 1
 236 612 l 1
 331 799 l 1
 439 745 l 1x12
138 -12 m 0xed
 63 -12 6 39 6 140 c 0
 6 246 70 302 187 302 c 2
 233 302 l 1
 233 358 l 2
 233 416 210 445 169 445 c 0
 128 445 110 418 96 374 c 1
 16 407 l 1
 37 484 92 528 169 528 c 0
 230 528 271 501 294 454 c 1
 298 454 l 1
 326 505 367 528 419 528 c 0
 521 528 583 441 583 296 c 2
 583 231 l 1
 339 231 l 1
 339 213 l 2
 339 131 366 75 418 75 c 0
 459 75 479 111 491 152 c 1
 577 125 l 1
 557 52 508 -12 418 -12 c 0
 349 -12 290 25 265 104 c 1
 261 104 l 1
 247 24 201 -12 138 -12 c 0xed
165 70 m 0
 214 70 233 110 233 172 c 2
 233 231 l 1
 198 231 l 2
 142 231 109 207 109 156 c 2
 109 138 l 2
 109 96 126 70 165 70 c 0
413 447 m 0
 364 447 339 406 339 343 c 2
 339 302 l 1
 487 302 l 1
 487 343 l 2
 487 406 462 447 413 447 c 0
EndSplineSet
Validated: 1
EndChar

StartChar: cacute
Encoding: 263 263 243
Width: 600
GlyphClass: 2
Flags: MW
HStem: -12 104<282 351.5 282 375.5> 424 104<281.5 348> 572 224<326 344>
VStem: 67 134<178 215 215 301 178 341> 249 203<609 742>
AnchorPoint: "Anchor-0" 302 0 basechar 0
LayerCount: 2
Fore
SplineSet
452 742 m 1
 326 572 l 1
 249 609 l 1
 344 796 l 1
 452 742 l 1
320 -12 m 0xd0
 162 -12 67 92 67 258 c 0
 67 424 163 528 319 528 c 0
 428 528 493 478 527 404 c 1
 428 350 l 1
 410 394 377 424 319 424 c 0
 244 424 201 376 201 301 c 2
 201 215 l 2
 201 141 243 92 321 92 c 0
 382 92 416 123 439 169 c 1
 535 112 l 1
 500 39 431 -12 320 -12 c 0xd0
EndSplineSet
Validated: 1
EndChar

StartChar: ccaron
Encoding: 269 269 244
Width: 600
GlyphClass: 2
Flags: MW
HStem: -12 104<282 351.5 282 375.5> 424 104<281.5 348> 584 204<195 371 195 255>
VStem: 67 134<178 215 215 301 178 341> 129 368<739 739>
AnchorPoint: "Anchor-0" 302 0 basechar 0
LayerCount: 2
Fore
SplineSet
371 584 m 1x28
 255 584 l 1
 129 739 l 1
 195 788 l 1
 315 673 l 1
 435 788 l 1
 497 739 l 1
 371 584 l 1x28
320 -12 m 0xd0
 162 -12 67 92 67 258 c 0
 67 424 163 528 319 528 c 0
 428 528 493 478 527 404 c 1
 428 350 l 1
 410 394 377 424 319 424 c 0
 244 424 201 376 201 301 c 2
 201 215 l 2
 201 141 243 92 321 92 c 0
 382 92 416 123 439 169 c 1
 535 112 l 1
 500 39 431 -12 320 -12 c 0xd0
EndSplineSet
Validated: 1
EndChar

StartChar: ccedilla
Encoding: 231 231 245
Width: 600
GlyphClass: 2
Flags: MW
HStem: -210 65<291.5 319.5 291.5 347.5> -12 104<329 329> 424 104<281.5 348>
VStem: 67 134<184.5 215 215 301 178 341> 351 90<-127 -110>
AnchorPoint: "Anchor-2" 314 516 basechar 0
LayerCount: 2
Fore
SplineSet
319 528 m 0
 428 528 493 478 527 404 c 1
 428 350 l 1
 410 394 377 424 319 424 c 0
 244 424 201 376 201 301 c 2
 201 215 l 2
 201 141 243 92 321 92 c 0
 382 92 416 123 439 169 c 1
 535 112 l 1
 501 40 435 -9 329 -12 c 1
 320 -57 l 1
 324 -61 l 1
 339 -57 354 -54 369 -54 c 0
 409 -54 441 -75 441 -122 c 0
 441 -186 380 -210 315 -210 c 0
 251 -210 215 -187 199 -167 c 1
 242 -116 l 1
 255 -132 276 -145 307 -145 c 0
 332 -145 351 -136 351 -118 c 0
 351 -102 338 -84 278 -78 c 2
 255 -75 l 1
 269 -8 l 1
 142 12 67 111 67 258 c 0
 67 424 163 528 319 528 c 0
EndSplineSet
Validated: 1
EndChar

StartChar: ccircumflex
Encoding: 265 265 246
Width: 600
GlyphClass: 2
Flags: MW
HStem: -12 104<282 351.5 282 375.5> 424 104<281.5 348> 576 204<191 371 255 431>
VStem: 67 134<178 215 215 301 178 341> 129 368<625 625>
AnchorPoint: "Anchor-0" 302 0 basechar 0
LayerCount: 2
Fore
SplineSet
255 780 m 1x28
 371 780 l 1
 497 625 l 1
 431 576 l 1
 311 691 l 1
 191 576 l 1
 129 625 l 1
 255 780 l 1x28
320 -12 m 0xd0
 162 -12 67 92 67 258 c 0
 67 424 163 528 319 528 c 0
 428 528 493 478 527 404 c 1
 428 350 l 1
 410 394 377 424 319 424 c 0
 244 424 201 376 201 301 c 2
 201 215 l 2
 201 141 243 92 321 92 c 0
 382 92 416 123 439 169 c 1
 535 112 l 1
 500 39 431 -12 320 -12 c 0xd0
EndSplineSet
Validated: 1
EndChar

StartChar: cdotaccent
Encoding: 267 267 247
Width: 600
GlyphClass: 2
Flags: MW
HStem: -12 104<282 351.5 282 375.5> 424 104<281.5 348> 591 154<283 343>
VStem: 67 134<178 215 215 301 178 341> 231 164<656 680 638 698>
AnchorPoint: "Anchor-0" 302 0 basechar 0
LayerCount: 2
Fore
SplineSet
320 -12 m 0
 162 -12 67 92 67 258 c 0
 67 424 163 528 319 528 c 0
 428 528 493 478 527 404 c 1
 428 350 l 1
 410 394 377 424 319 424 c 0
 244 424 201 376 201 301 c 2
 201 215 l 2
 201 141 243 92 321 92 c 0
 382 92 416 123 439 169 c 1
 535 112 l 1
 500 39 431 -12 320 -12 c 0
313 591 m 0x28
 253 591 231 620 231 656 c 2
 231 680 l 2
 231 716 253 745 313 745 c 0
 373 745 395 716 395 680 c 2
 395 656 l 2
 395 620 373 591 313 591 c 0x28
EndSplineSet
Validated: 1
EndChar

StartChar: dcaron
Encoding: 271 271 248
Width: 600
GlyphClass: 1
Flags: MW
HStem: -12 98<221.5 234.5> 0 21G<337 460 337 337> 430 98<221.5 234.5 147.5 274> 720 20G<337 460 460 460 519 640 640 640>
VStem: 32 129<168 204 204 312 164 348> 337 123<0 90 90 90 175 341 341 370.5 426 740 0 740> 516 124
LayerCount: 2
Fore
SplineSet
200 -12 m 0xbe
 95 -12 32 78 32 258 c 0
 32 438 95 528 200 528 c 0
 269 528 307 488 330 426 c 1
 337 426 l 1
 337 740 l 1
 460 740 l 1
 460 0 l 1
 337 0 l 1x7e
 337 90 l 1
 330 90 l 1
 307 28 269 -12 200 -12 c 0xbe
250 86 m 0
 298 86 337 116 337 175 c 2
 337 341 l 2
 337 400 298 430 250 430 c 0
 193 430 161 392 161 312 c 2
 161 204 l 2
 161 124 193 86 250 86 c 0
516 536 m 1
 519 740 l 1
 640 740 l 1
 588 536 l 1
 516 536 l 1
EndSplineSet
Validated: 1
EndChar

StartChar: dcroat
Encoding: 273 273 249
Width: 600
GlyphClass: 1
Flags: MW
HStem: -12 102<259 281.5> 0 21G<403 403 403 531> 426 102<259 281.5 183 325> 588 96<259 403 259 403 531 588> 720 20G<403 531 531 531>
VStem: 45 134<178 217 217 299 178 349> 403 128<0 91 91 91 177 339 339 368.5 425 588 0 588 684 740>
LayerCount: 2
Fore
SplineSet
403 0 m 1x7e
 403 91 l 1
 396 91 l 1
 368 29 321 -12 242 -12 c 0xbe
 124 -12 45 76 45 258 c 0
 45 440 124 528 242 528 c 0
 321 528 368 487 396 425 c 1
 403 425 l 1
 403 588 l 1
 259 588 l 1
 259 684 l 1
 403 684 l 1
 403 740 l 1
 531 740 l 1
 531 684 l 1
 588 684 l 1
 588 588 l 1
 531 588 l 1
 531 0 l 1
 403 0 l 1x7e
296 90 m 0xbe
 354 90 403 118 403 177 c 2
 403 339 l 2
 403 398 354 426 296 426 c 0
 222 426 179 378 179 299 c 2
 179 217 l 2
 179 139 222 90 296 90 c 0xbe
EndSplineSet
Validated: 1
EndChar

StartChar: eth
Encoding: 240 240 250
Width: 600
GlyphClass: 1
Flags: MW
HStem: -12 98<264.5 337.5 264.5 378> 403 98<264.5 291.5 191.5 337.5> 720 20G<87 284 284 284>
VStem: 48 133<173 215 215 274 173 327> 421 132<215 274 274 316>
LayerCount: 2
Fore
SplineSet
429 753 m 1
 476 698 l 1
 397 648 l 1
 483 562 553 440 553 274 c 0
 553 77 453 -12 303 -12 c 0
 143 -12 48 89 48 251 c 0
 48 403 130 501 253 501 c 0
 330 501 381 462 413 405 c 1
 420 409 l 1
 398 476 356 536 300 590 c 1
 206 531 l 1
 159 586 l 1
 244 639 l 1
 197 677 144 710 87 740 c 1
 284 740 l 1
 302 728 322 714 342 698 c 1
 429 753 l 1
301 86 m 0
 374 86 421 131 421 215 c 2
 421 274 l 2
 421 358 374 403 301 403 c 0
 228 403 181 358 181 274 c 2
 181 215 l 2
 181 131 228 86 301 86 c 0
EndSplineSet
Validated: 1
EndChar

StartChar: eacute
Encoding: 233 233 251
Width: 600
GlyphClass: 2
Flags: MW
HStem: -12 101<274 347.5 274 366.5> 227 76<183 417 183 545 183 417> 434 94<267 338> 575 224<314 332>
VStem: 55 128<177 214 214 227 177 303 303 310 177 340.5> 237 203<612 745> 417 128<227 312 227 349>
AnchorPoint: "Anchor-1" 404 0 basechar 0
AnchorPoint: "Anchor-0" 307 0 basechar 0
LayerCount: 2
Fore
SplineSet
440 745 m 1x14
 314 575 l 1
 237 612 l 1
 332 799 l 1
 440 745 l 1x14
312 -12 m 0xea
 147 -12 55 92 55 257 c 0
 55 424 151 528 302 528 c 0
 451 528 545 425 545 269 c 2
 545 227 l 1
 183 227 l 1
 183 214 l 2
 183 140 232 89 316 89 c 0
 379 89 425 117 456 160 c 1
 529 87 l 1
 492 33 421 -12 312 -12 c 0xea
303 434 m 0
 231 434 183 384 183 310 c 2
 183 303 l 1
 417 303 l 1
 417 312 l 2
 417 386 373 434 303 434 c 0
EndSplineSet
Validated: 1
EndChar

StartChar: ebreve
Encoding: 277 277 252
Width: 600
GlyphClass: 2
Flags: MW
HStem: -12 101<274 347.5 274 366.5> 227 76<183 417 183 545 183 417> 434 94<267 338> 578 91<280.5 321.5 280.5 359>
VStem: 55 128<177 214 214 227 177 303 303 310 177 340.5> 117 368<742 742> 417 128<227 312 227 349>
AnchorPoint: "Anchor-1" 404 0 basechar 0
AnchorPoint: "Anchor-0" 307 0 basechar 0
LayerCount: 2
Fore
SplineSet
312 -12 m 0xea
 147 -12 55 92 55 257 c 0
 55 424 151 528 302 528 c 0
 451 528 545 425 545 269 c 2
 545 227 l 1
 183 227 l 1
 183 214 l 2
 183 140 232 89 316 89 c 0
 379 89 425 117 456 160 c 1
 529 87 l 1
 492 33 421 -12 312 -12 c 0xea
303 434 m 0
 231 434 183 384 183 310 c 2
 183 303 l 1
 417 303 l 1
 417 312 l 2
 417 386 373 434 303 434 c 0
301 578 m 0x14
 185 578 140 673 117 742 c 1
 191 778 l 1
 212 745 l 2
 243 697 260 669 301 669 c 0
 342 669 359 697 390 745 c 2
 411 778 l 1
 485 742 l 1
 462 673 417 578 301 578 c 0x14
EndSplineSet
Validated: 1
EndChar

StartChar: ecaron
Encoding: 283 283 253
Width: 600
GlyphClass: 2
Flags: MW
HStem: -12 101<274 347.5 274 366.5> 227 76<183 417 183 545 183 417> 434 94<267 338> 584 204<183 359 183 243>
VStem: 55 128<177 214 214 227 177 303 303 310 177 340.5> 117 368<739 739> 417 128<227 312 227 349>
AnchorPoint: "Anchor-1" 404 0 basechar 0
AnchorPoint: "Anchor-0" 307 0 basechar 0
LayerCount: 2
Fore
SplineSet
359 584 m 1x14
 243 584 l 1
 117 739 l 1
 183 788 l 1
 303 673 l 1
 423 788 l 1
 485 739 l 1
 359 584 l 1x14
312 -12 m 0xea
 147 -12 55 92 55 257 c 0
 55 424 151 528 302 528 c 0
 451 528 545 425 545 269 c 2
 545 227 l 1
 183 227 l 1
 183 214 l 2
 183 140 232 89 316 89 c 0
 379 89 425 117 456 160 c 1
 529 87 l 1
 492 33 421 -12 312 -12 c 0xea
303 434 m 0
 231 434 183 384 183 310 c 2
 183 303 l 1
 417 303 l 1
 417 312 l 2
 417 386 373 434 303 434 c 0
EndSplineSet
Validated: 1
EndChar

StartChar: ecircumflex
Encoding: 234 234 254
Width: 600
GlyphClass: 2
Flags: MW
HStem: -12 101<274 347.5 274 366.5> 227 76<183 417 183 545 183 417> 434 94<267 338> 576 204<179 359 243 419>
VStem: 55 128<177 214 214 227 177 303 303 310 177 340.5> 117 368<625 625> 417 128<227 312 227 349>
AnchorPoint: "Anchor-1" 404 0 basechar 0
AnchorPoint: "Anchor-0" 307 0 basechar 0
LayerCount: 2
Fore
SplineSet
243 780 m 1x14
 359 780 l 1
 485 625 l 1
 419 576 l 1
 299 691 l 1
 179 576 l 1
 117 625 l 1
 243 780 l 1x14
312 -12 m 0xea
 147 -12 55 92 55 257 c 0
 55 424 151 528 302 528 c 0
 451 528 545 425 545 269 c 2
 545 227 l 1
 183 227 l 1
 183 214 l 2
 183 140 232 89 316 89 c 0
 379 89 425 117 456 160 c 1
 529 87 l 1
 492 33 421 -12 312 -12 c 0xea
303 434 m 0
 231 434 183 384 183 310 c 2
 183 303 l 1
 417 303 l 1
 417 312 l 2
 417 386 373 434 303 434 c 0
EndSplineSet
Validated: 1
EndChar

StartChar: edieresis
Encoding: 235 235 255
Width: 600
GlyphClass: 2
Flags: MW
HStem: -12 101<274 347.5 274 366.5> 227 76<183 417 183 545 183 417> 434 94<267 338> 599 138<169 223 379 433>
VStem: 55 128<177 214 214 227 177 303 303 310 177 340.5> 123 146<657 679 641 695> 333 146<657 679 641 695> 417 128<227 312 227 349>
AnchorPoint: "Anchor-1" 404 0 basechar 0
AnchorPoint: "Anchor-0" 307 0 basechar 0
LayerCount: 2
Fore
SplineSet
196 599 m 0x16
 142 599 123 625 123 657 c 2
 123 679 l 2
 123 711 142 737 196 737 c 0
 250 737 269 711 269 679 c 2
 269 657 l 2
 269 625 250 599 196 599 c 0x16
406 599 m 0
 352 599 333 625 333 657 c 2
 333 679 l 2
 333 711 352 737 406 737 c 0
 460 737 479 711 479 679 c 2
 479 657 l 2
 479 625 460 599 406 599 c 0
312 -12 m 0xe9
 147 -12 55 92 55 257 c 0
 55 424 151 528 302 528 c 0
 451 528 545 425 545 269 c 2
 545 227 l 1
 183 227 l 1
 183 214 l 2
 183 140 232 89 316 89 c 0
 379 89 425 117 456 160 c 1
 529 87 l 1
 492 33 421 -12 312 -12 c 0xe9
303 434 m 0
 231 434 183 384 183 310 c 2
 183 303 l 1
 417 303 l 1
 417 312 l 2
 417 386 373 434 303 434 c 0
EndSplineSet
Validated: 1
EndChar

StartChar: edotaccent
Encoding: 279 279 256
Width: 600
GlyphClass: 2
Flags: MW
HStem: -12 101<274 347.5 274 366.5> 227 76<183 417 183 545 183 417> 434 94<267 338> 591 154<271 331>
VStem: 55 128<177 214 214 227 177 303 303 310 177 340.5> 219 164<656 680 638 698> 417 128<227 312 227 349>
AnchorPoint: "Anchor-1" 404 0 basechar 0
AnchorPoint: "Anchor-0" 307 0 basechar 0
LayerCount: 2
Fore
SplineSet
312 -12 m 0
 147 -12 55 92 55 257 c 0
 55 424 151 528 302 528 c 0
 451 528 545 425 545 269 c 2
 545 227 l 1
 183 227 l 1
 183 214 l 2
 183 140 232 89 316 89 c 0
 379 89 425 117 456 160 c 1
 529 87 l 1
 492 33 421 -12 312 -12 c 0
303 434 m 0
 231 434 183 384 183 310 c 2
 183 303 l 1
 417 303 l 1
 417 312 l 2
 417 386 373 434 303 434 c 0
301 591 m 0x14
 241 591 219 620 219 656 c 2
 219 680 l 2
 219 716 241 745 301 745 c 0
 361 745 383 716 383 680 c 2
 383 656 l 2
 383 620 361 591 301 591 c 0x14
EndSplineSet
Validated: 1
EndChar

StartChar: uni1EB9
Encoding: 7865 7865 257
Width: 600
GlyphClass: 2
Flags: MW
HStem: -194 138<279 333> -12 101<274 347.5 274 366.5> 227 76<183 417 183 545 183 417> 434 94<267 338>
VStem: 55 128<177 214 214 227 177 303 303 310 177 340.5> 232 148<-136 -114 -152.5 -97.5> 417 128<227 312 227 349>
AnchorPoint: "Anchor-2" 301 516 basechar 0
AnchorPoint: "Anchor-1" 404 0 basechar 0
LayerCount: 2
Fore
SplineSet
312 -12 m 0
 147 -12 55 92 55 257 c 0
 55 424 151 528 302 528 c 0
 451 528 545 425 545 269 c 2
 545 227 l 1
 183 227 l 1
 183 214 l 2
 183 140 232 89 316 89 c 0
 379 89 425 117 456 160 c 1
 529 87 l 1
 492 33 421 -12 312 -12 c 0
303 434 m 0
 231 434 183 384 183 310 c 2
 183 303 l 1
 417 303 l 1
 417 312 l 2
 417 386 373 434 303 434 c 0
306 -194 m 0x84
 252 -194 232 -169 232 -136 c 2
 232 -114 l 2
 232 -81 252 -56 306 -56 c 0
 360 -56 380 -81 380 -114 c 2
 380 -136 l 2
 380 -169 360 -194 306 -194 c 0x84
EndSplineSet
Validated: 1
EndChar

StartChar: egrave
Encoding: 232 232 258
Width: 600
GlyphClass: 2
Flags: MW
HStem: -12 101<274 347.5 274 366.5> 227 76<183 417 183 545 183 417> 434 94<267 338> 575 224<270 288>
VStem: 55 128<177 214 214 227 177 303 303 310 177 340.5> 162 203<612 745> 417 128<227 312 227 349>
AnchorPoint: "Anchor-1" 404 0 basechar 0
AnchorPoint: "Anchor-0" 307 0 basechar 0
LayerCount: 2
Fore
SplineSet
312 -12 m 0xea
 147 -12 55 92 55 257 c 0
 55 424 151 528 302 528 c 0
 451 528 545 425 545 269 c 2
 545 227 l 1
 183 227 l 1
 183 214 l 2
 183 140 232 89 316 89 c 0
 379 89 425 117 456 160 c 1
 529 87 l 1
 492 33 421 -12 312 -12 c 0xea
303 434 m 0
 231 434 183 384 183 310 c 2
 183 303 l 1
 417 303 l 1
 417 312 l 2
 417 386 373 434 303 434 c 0
288 575 m 1x14
 162 745 l 1
 270 799 l 1
 365 612 l 1
 288 575 l 1x14
EndSplineSet
Validated: 1
EndChar

StartChar: uni1EBB
Encoding: 7867 7867 259
Width: 600
GlyphClass: 2
Flags: MW
HStem: -12 101<274 347.5 274 366.5> 227 76<183 417 183 545 183 417> 434 94<267 338> 692 93<192 325 192 313>
VStem: 55 128<177 214 214 227 177 303 303 310 177 340.5> 313 101<692 735> 417 128<227 312 227 349>
AnchorPoint: "Anchor-1" 404 0 basechar 0
AnchorPoint: "Anchor-0" 307 0 basechar 0
LayerCount: 2
Fore
SplineSet
312 -12 m 0
 147 -12 55 92 55 257 c 0
 55 424 151 528 302 528 c 0
 451 528 545 425 545 269 c 2
 545 227 l 1
 183 227 l 1
 183 214 l 2
 183 140 232 89 316 89 c 0
 379 89 425 117 456 160 c 1
 529 87 l 1
 492 33 421 -12 312 -12 c 0
303 434 m 0
 231 434 183 384 183 310 c 2
 183 303 l 1
 417 303 l 1
 417 312 l 2
 417 386 373 434 303 434 c 0
192 692 m 1x14
 192 785 l 1
 325 785 l 2
 392 785 414 753 414 717 c 0
 414 681 392 638 360 598 c 2
 333 565 l 1
 267 597 l 1
 313 692 l 1
 192 692 l 1x14
EndSplineSet
Validated: 1
EndChar

StartChar: emacron
Encoding: 275 275 260
Width: 600
GlyphClass: 2
Flags: MW
HStem: -12 101<274 347.5 274 366.5> 227 76<183 417 183 545 183 417> 434 94<267 338> 622 92<152 450 152 450>
VStem: 55 128<177 214 214 227 177 303 303 310 177 340.5> 152 298<622 714 622 714> 417 128<227 312 227 349>
AnchorPoint: "Anchor-1" 404 0 basechar 0
AnchorPoint: "Anchor-0" 307 0 basechar 0
LayerCount: 2
Fore
SplineSet
312 -12 m 0xea
 147 -12 55 92 55 257 c 0
 55 424 151 528 302 528 c 0
 451 528 545 425 545 269 c 2
 545 227 l 1
 183 227 l 1
 183 214 l 2
 183 140 232 89 316 89 c 0
 379 89 425 117 456 160 c 1
 529 87 l 1
 492 33 421 -12 312 -12 c 0xea
303 434 m 0
 231 434 183 384 183 310 c 2
 183 303 l 1
 417 303 l 1
 417 312 l 2
 417 386 373 434 303 434 c 0
152 622 m 1x14
 152 714 l 1
 450 714 l 1
 450 622 l 1
 152 622 l 1x14
EndSplineSet
Validated: 1
EndChar

StartChar: eogonek
Encoding: 281 281 261
Width: 600
GlyphClass: 2
Flags: MW
HStem: -210 68<362 384 362 391.5> -12 101<274 317> 227 76<183 417 183 545 183 417> 434 94<267 338>
VStem: 55 128<177 214 214 227 303 310 177 340.5> 243 90<-121 -101.5> 417 128<227 312 227 349>
AnchorPoint: "Anchor-2" 301 516 basechar 0
AnchorPoint: "Anchor-0" 307 0 basechar 0
LayerCount: 2
Fore
SplineSet
362 -210 m 0
 298 -210 243 -188 243 -127 c 0
 243 -76 286 -42 360 -10 c 1
 358 -6 l 1
 347 -9 328 -12 306 -12 c 0
 155 -12 55 87 55 257 c 0
 55 424 151 528 302 528 c 0
 451 528 545 425 545 269 c 2
 545 227 l 1
 183 227 l 1
 183 214 l 2
 183 140 232 89 316 89 c 0
 379 89 425 117 456 160 c 1
 529 87 l 1
 507 57 476 32 424 -9 c 0
 356 -62 333 -80 333 -108 c 0
 333 -134 352 -142 372 -142 c 0
 396 -142 413 -131 426 -115 c 1
 476 -163 l 1
 460 -191 421 -210 362 -210 c 0
183 303 m 1
 417 303 l 1
 417 312 l 2
 417 386 373 434 303 434 c 0
 231 434 183 384 183 310 c 2
 183 303 l 1
EndSplineSet
Validated: 1
EndChar

StartChar: uni1EBD
Encoding: 7869 7869 262
Width: 600
GlyphClass: 2
Flags: MW
HStem: -12 101<274 347.5 274 366.5> 227 76<183 417 183 545 183 417> 434 94<267 338> 598 95<367.5 390.5 367.5 401.5> 642 95<211.5 234.5>
VStem: 55 128<177 214 214 227 177 303 303 310 177 340.5> 118 366<659 676> 417 128<227 312 227 349>
AnchorPoint: "Anchor-1" 404 0 basechar 0
AnchorPoint: "Anchor-0" 307 0 basechar 0
LayerCount: 2
Fore
SplineSet
312 -12 m 0xe5
 147 -12 55 92 55 257 c 0
 55 424 151 528 302 528 c 0
 451 528 545 425 545 269 c 2
 545 227 l 1
 183 227 l 1
 183 214 l 2
 183 140 232 89 316 89 c 0
 379 89 425 117 456 160 c 1
 529 87 l 1
 492 33 421 -12 312 -12 c 0xe5
303 434 m 0
 231 434 183 384 183 310 c 2
 183 303 l 1
 417 303 l 1
 417 312 l 2
 417 386 373 434 303 434 c 0
376 598 m 0x12
 344 598 322 609 298 620 c 0
 269 633 246 642 223 642 c 0
 200 642 185 634 164 617 c 1
 118 676 l 1
 140 710 175 737 226 737 c 0x0a
 258 737 280 726 304 715 c 0
 333 702 356 693 379 693 c 0
 402 693 417 701 438 718 c 1
 484 659 l 1
 462 625 427 598 376 598 c 0x12
EndSplineSet
Validated: 1
EndChar

StartChar: uni1EBF
Encoding: 7871 7871 263
Width: 600
GlyphClass: 2
Flags: MW
HStem: -12 101<274 347.5 274 366.5> 227 76<183 417 183 545 183 417> 434 94<267 338> 567 375<178 493 421 493>
VStem: 55 128<177 214 214 227 177 303 303 310 177 340.5> 119 475<621 891> 417 128<227 312 227 349>
AnchorPoint: "Anchor-1" 404 0 basechar 0
AnchorPoint: "Anchor-0" 307 0 basechar 0
LayerCount: 2
Fore
SplineSet
594 891 m 1x14
 468 720 l 1
 398 755 l 1
 493 942 l 1
 594 891 l 1x14
253 767 m 1
 349 767 l 1
 483 621 l 1
 421 567 l 1
 300 675 l 1
 178 567 l 1
 119 621 l 1
 253 767 l 1
312 -12 m 0xea
 147 -12 55 92 55 257 c 0
 55 424 151 528 302 528 c 0
 451 528 545 425 545 269 c 2
 545 227 l 1
 183 227 l 1
 183 214 l 2
 183 140 232 89 316 89 c 0
 379 89 425 117 456 160 c 1
 529 87 l 1
 492 33 421 -12 312 -12 c 0xea
303 434 m 0
 231 434 183 384 183 310 c 2
 183 303 l 1
 417 303 l 1
 417 312 l 2
 417 386 373 434 303 434 c 0
EndSplineSet
Validated: 1
EndChar

